<?xml version="1.0" standalone="no"?>
<!DOCTYPE svg PUBLIC "-//W3C//DTD SVG 1.1//EN" "http://www.w3.org/Graphics/SVG/1.1/DTD/svg11.dtd" >
<svg xmlns="http://www.w3.org/2000/svg" xmlns:xlink="http://www.w3.org/1999/xlink" version="1.1">
<metadata>
Created by FontForge 20190801 at Wed Jan 15 03:05:45 2020
 By Jimmy Wärting
Copyright \(c\) 2020 by MARSNEV. All rights reserved.
</metadata>
<defs>
<font id="LEMONMILK-RegularItalic" horiz-adv-x="0" >
  <font-face 
    font-family="LEMON MILK"
    font-weight="400"
    font-style="italic"
    font-stretch="normal"
    units-per-em="2048"
    panose-1="0 0 5 0 0 0 0 0 0 0"
    ascent="1638"
    descent="-410"
    cap-height="1612"
    bbox="-1256 -549 2520 2144"
    underline-thickness="50"
    underline-position="-100"
    slope="-11"
    stemh="255"
    stemv="255"
    unicode-range="U+0020-3000"
  />
<missing-glyph horiz-adv-x="1313" 
d="M83 0l314 1612h913l-314 -1612h-913zM204 83h705l281 1446h-705z" />
    <glyph glyph-name=".notdef" horiz-adv-x="1313" 
d="M83 0l314 1612h913l-314 -1612h-913zM204 83h705l281 1446h-705z" />
    <glyph glyph-name="space" unicode=" " horiz-adv-x="600" 
 />
    <glyph glyph-name="A" unicode="A" horiz-adv-x="1515" 
d="M1111 0l-54 245h-703l-146 -245h-302l1030 1645h47l392 -1645h-264zM483 462h526l-143 643z" />
    <glyph glyph-name="A" unicode="a" horiz-adv-x="1515" 
d="M1111 0l-54 245h-703l-146 -245h-302l1030 1645h47l392 -1645h-264zM483 462h526l-143 643z" />
    <glyph glyph-name="Aacute" unicode="&#xc1;" horiz-adv-x="1515" 
d="M1253 2072l-301 -327h-183l262 327h222zM1111 0l-54 245h-703l-146 -245h-302l1030 1645h47l392 -1645h-264zM483 462h526l-143 643z" />
    <glyph glyph-name="Aacute" unicode="&#xe1;" horiz-adv-x="1515" 
d="M1253 2072l-301 -327h-183l262 327h222zM1111 0l-54 245h-703l-146 -245h-302l1030 1645h47l392 -1645h-264zM483 462h526l-143 643z" />
    <glyph glyph-name="Abreve" unicode="&#x102;" horiz-adv-x="1515" 
d="M996 1762c-180 0 -271 133 -243 287h122c-17 -91 38 -171 135 -171c95 0 174 70 194 171h122c-32 -169 -160 -287 -330 -287zM1111 0l-54 245h-703l-146 -245h-302l1030 1645h47l392 -1645h-264zM483 462h526l-143 643z" />
    <glyph glyph-name="Abreve" unicode="&#x103;" horiz-adv-x="1515" 
d="M996 1762c-180 0 -271 133 -243 287h122c-17 -91 38 -171 135 -171c95 0 174 70 194 171h122c-32 -169 -160 -287 -330 -287zM1111 0l-54 245h-703l-146 -245h-302l1030 1645h47l392 -1645h-264zM483 462h526l-143 643z" />
    <glyph glyph-name="Acircumflex" unicode="&#xc2;" horiz-adv-x="1515" 
d="M1027 1928l-208 -168h-214l370 292h126l261 -292h-190zM1111 0l-54 245h-703l-146 -245h-302l1030 1645h47l392 -1645h-264zM483 462h526l-143 643z" />
    <glyph glyph-name="Acircumflex" unicode="&#xe2;" horiz-adv-x="1515" 
d="M1027 1928l-208 -168h-214l370 292h126l261 -292h-190zM1111 0l-54 245h-703l-146 -245h-302l1030 1645h47l392 -1645h-264zM483 462h526l-143 643z" />
    <glyph glyph-name="Adieresis" unicode="&#xc4;" horiz-adv-x="1515" 
d="M766 1794c-57 0 -97 47 -85 104c11 57 68 106 125 106s96 -49 85 -106c-12 -57 -68 -104 -125 -104zM1214 1794c-57 0 -96 47 -84 104c11 57 68 106 124 106c58 0 97 -49 86 -106c-12 -57 -68 -104 -126 -104zM1111 0l-54 245h-703l-146 -245h-302l1030 1645h47
l392 -1645h-264zM483 462h526l-143 643z" />
    <glyph glyph-name="Adieresis" unicode="&#xe4;" horiz-adv-x="1515" 
d="M766 1794c-57 0 -97 47 -85 104c11 57 68 106 125 106s96 -49 85 -106c-12 -57 -68 -104 -125 -104zM1214 1794c-57 0 -96 47 -84 104c11 57 68 106 124 106c58 0 97 -49 86 -106c-12 -57 -68 -104 -126 -104zM1111 0l-54 245h-703l-146 -245h-302l1030 1645h47
l392 -1645h-264zM483 462h526l-143 643z" />
    <glyph glyph-name="Agrave" unicode="&#xc0;" horiz-adv-x="1515" 
d="M1138 1745h-183l-174 327h223zM1111 0l-54 245h-703l-146 -245h-302l1030 1645h47l392 -1645h-264zM483 462h526l-143 643z" />
    <glyph glyph-name="Agrave" unicode="&#xe0;" horiz-adv-x="1515" 
d="M1138 1745h-183l-174 327h223zM1111 0l-54 245h-703l-146 -245h-302l1030 1645h47l392 -1645h-264zM483 462h526l-143 643z" />
    <glyph glyph-name="Amacron" unicode="&#x100;" horiz-adv-x="1515" 
d="M1305 1945l-26 -132h-572l26 132h572zM1111 0l-54 245h-703l-146 -245h-302l1030 1645h47l392 -1645h-264zM483 462h526l-143 643z" />
    <glyph glyph-name="Amacron" unicode="&#x101;" horiz-adv-x="1515" 
d="M1305 1945l-26 -132h-572l26 132h572zM1111 0l-54 245h-703l-146 -245h-302l1030 1645h47l392 -1645h-264zM483 462h526l-143 643z" />
    <glyph glyph-name="Aogonek" unicode="&#x104;" horiz-adv-x="1515" 
d="M1228 -348c20 0 61 4 106 14l31 -174c-58 -13 -111 -19 -156 -19c-168 0 -264 82 -259 217c6 139 117 252 246 310h-85l-54 245h-703l-146 -245h-302l1030 1645h47l392 -1645c-143 -92 -237 -165 -243 -252c-3 -29 6 -96 96 -96zM483 462h526l-143 643z" />
    <glyph glyph-name="Aogonek" unicode="&#x105;" horiz-adv-x="1515" 
d="M1228 -348c20 0 61 4 106 14l31 -174c-58 -13 -111 -19 -156 -19c-168 0 -264 82 -259 217c6 139 117 252 246 310h-85l-54 245h-703l-146 -245h-302l1030 1645h47l392 -1645c-143 -92 -237 -165 -243 -252c-3 -29 6 -96 96 -96zM483 462h526l-143 643z" />
    <glyph glyph-name="Aring" unicode="&#xc5;" horiz-adv-x="1515" 
d="M980 1714c-123 0 -199 95 -179 215c21 121 130 215 254 215c116 0 197 -89 175 -215c-20 -118 -127 -215 -250 -215zM909 1928c-11 -60 27 -106 88 -106c59 0 114 45 125 106c12 60 -26 107 -87 107c-59 0 -114 -44 -126 -107zM1111 0l-54 245h-703l-146 -245h-302
l1030 1645h47l392 -1645h-264zM483 462h526l-143 643z" />
    <glyph glyph-name="Aring" unicode="&#xe5;" horiz-adv-x="1515" 
d="M980 1714c-123 0 -199 95 -179 215c21 121 130 215 254 215c116 0 197 -89 175 -215c-20 -118 -127 -215 -250 -215zM909 1928c-11 -60 27 -106 88 -106c59 0 114 45 125 106c12 60 -26 107 -87 107c-59 0 -114 -44 -126 -107zM1111 0l-54 245h-703l-146 -245h-302
l1030 1645h47l392 -1645h-264zM483 462h526l-143 643z" />
    <glyph glyph-name="Atilde" unicode="&#xc3;" horiz-adv-x="1515" 
d="M867 1905c-63 0 -115 -52 -149 -130l-116 49c76 185 201 216 276 216c151 0 172 -136 277 -136c62 0 115 52 149 130l116 -48c-76 -185 -201 -216 -276 -216c-151 0 -172 135 -277 135zM936 1645h47l392 -1645h-264l-54 245h-703l-146 -245h-302zM483 462h526l-143 643z
" />
    <glyph glyph-name="Atilde" unicode="&#xe3;" horiz-adv-x="1515" 
d="M867 1905c-63 0 -115 -52 -149 -130l-116 49c76 185 201 216 276 216c151 0 172 -136 277 -136c62 0 115 52 149 130l116 -48c-76 -185 -201 -216 -276 -216c-151 0 -172 135 -277 135zM936 1645h47l392 -1645h-264l-54 245h-703l-146 -245h-302zM483 462h526l-143 643z
" />
    <glyph glyph-name="AE" unicode="&#xc6;" horiz-adv-x="1988" 
d="M2028 1363h-658l-81 -413h565l-50 -252h-564l-87 -446h659l-49 -252h-918l51 262h-516l-176 -262h-298l1077 1612h1093zM531 488h409l166 856z" />
    <glyph glyph-name="AE" unicode="&#xe6;" horiz-adv-x="1988" 
d="M2028 1363h-658l-81 -413h565l-50 -252h-564l-87 -446h659l-49 -252h-918l51 262h-516l-176 -262h-298l1077 1612h1093zM531 488h409l166 856z" />
    <glyph glyph-name="B" unicode="B" horiz-adv-x="1272" 
d="M917 908c177 0 329 -166 283 -437c-48 -278 -272 -471 -607 -471h-554l313 1612h408c269 0 430 -196 386 -423c-31 -162 -144 -262 -229 -281zM910 1158c24 114 -51 208 -186 208h-159l-78 -402h169c133 0 227 67 254 194zM958 487c27 151 -73 255 -244 255l-271 -1
l-96 -494h269c193 0 316 96 342 240z" />
    <glyph glyph-name="B" unicode="b" horiz-adv-x="1272" 
d="M917 908c177 0 329 -166 283 -437c-48 -278 -272 -471 -607 -471h-554l313 1612h408c269 0 430 -196 386 -423c-31 -162 -144 -262 -229 -281zM910 1158c24 114 -51 208 -186 208h-159l-78 -402h169c133 0 227 67 254 194zM958 487c27 151 -73 255 -244 255l-271 -1
l-96 -494h269c193 0 316 96 342 240z" />
    <glyph glyph-name="C" unicode="C" horiz-adv-x="1480" 
d="M765 -26c-457 0 -727 362 -643 851c95 557 575 835 936 813c215 -15 409 -132 509 -326l-192 -169c-106 169 -228 240 -380 240c-281 0 -550 -235 -612 -559c-65 -334 118 -596 418 -596c163 0 301 79 433 194l110 -219c-164 -143 -357 -229 -579 -229z" />
    <glyph glyph-name="C" unicode="c" horiz-adv-x="1480" 
d="M765 -26c-457 0 -727 362 -643 851c95 557 575 835 936 813c215 -15 409 -132 509 -326l-192 -169c-106 169 -228 240 -380 240c-281 0 -550 -235 -612 -559c-65 -334 118 -596 418 -596c163 0 301 79 433 194l110 -219c-164 -143 -357 -229 -579 -229z" />
    <glyph glyph-name="Cacute" unicode="&#x106;" horiz-adv-x="1480" 
d="M948 1745h-183l262 327h222zM765 -26c-457 0 -727 362 -643 851c95 557 575 835 936 813c215 -15 409 -132 509 -326l-192 -169c-106 169 -228 240 -380 240c-281 0 -550 -235 -612 -559c-65 -334 118 -596 418 -596c163 0 301 79 433 194l110 -219
c-164 -143 -357 -229 -579 -229z" />
    <glyph glyph-name="Cacute" unicode="&#x107;" horiz-adv-x="1480" 
d="M948 1745h-183l262 327h222zM765 -26c-457 0 -727 362 -643 851c95 557 575 835 936 813c215 -15 409 -132 509 -326l-192 -169c-106 169 -228 240 -380 240c-281 0 -550 -235 -612 -559c-65 -334 118 -596 418 -596c163 0 301 79 433 194l110 -219
c-164 -143 -357 -229 -579 -229z" />
    <glyph glyph-name="Ccaron" unicode="&#x10c;" horiz-adv-x="1480" 
d="M1415 2052l-370 -292h-127l-261 292h190l146 -168l208 168h214zM765 -26c-457 0 -727 362 -643 851c95 557 575 835 936 813c215 -15 409 -132 509 -326l-192 -169c-106 169 -228 240 -380 240c-281 0 -550 -235 -612 -559c-65 -334 118 -596 418 -596
c163 0 301 79 433 194l110 -219c-164 -143 -357 -229 -579 -229z" />
    <glyph glyph-name="Ccaron" unicode="&#x10d;" horiz-adv-x="1480" 
d="M1415 2052l-370 -292h-127l-261 292h190l146 -168l208 168h214zM765 -26c-457 0 -727 362 -643 851c95 557 575 835 936 813c215 -15 409 -132 509 -326l-192 -169c-106 169 -228 240 -380 240c-281 0 -550 -235 -612 -559c-65 -334 118 -596 418 -596
c163 0 301 79 433 194l110 -219c-164 -143 -357 -229 -579 -229z" />
    <glyph glyph-name="Ccedilla" unicode="&#xc7;" horiz-adv-x="1480" 
d="M995 1383c-281 0 -550 -235 -612 -559c-65 -334 118 -596 418 -596c163 0 301 79 433 194l110 -219c-155 -135 -336 -220 -544 -228l-81 -86c17 2 29 3 45 3c82 0 128 -61 112 -145c-28 -141 -212 -263 -441 -268l-33 156c195 5 286 45 297 105c6 32 -11 57 -73 57
c-17 0 -39 -2 -62 -6l-26 44l137 144c-402 44 -631 390 -553 846c95 557 575 835 936 813c215 -15 409 -132 509 -326l-192 -169c-106 169 -228 240 -380 240z" />
    <glyph glyph-name="Ccedilla" unicode="&#xe7;" horiz-adv-x="1480" 
d="M995 1383c-281 0 -550 -235 -612 -559c-65 -334 118 -596 418 -596c163 0 301 79 433 194l110 -219c-155 -135 -336 -220 -544 -228l-81 -86c17 2 29 3 45 3c82 0 128 -61 112 -145c-28 -141 -212 -263 -441 -268l-33 156c195 5 286 45 297 105c6 32 -11 57 -73 57
c-17 0 -39 -2 -62 -6l-26 44l137 144c-402 44 -631 390 -553 846c95 557 575 835 936 813c215 -15 409 -132 509 -326l-192 -169c-106 169 -228 240 -380 240z" />
    <glyph glyph-name="Cdotaccent" unicode="&#x10a;" horiz-adv-x="1480" 
d="M986 1794c-67 0 -110 54 -97 119c12 65 77 121 143 121c65 0 109 -56 97 -121c-13 -66 -78 -119 -143 -119zM765 -26c-457 0 -727 362 -643 851c95 557 575 835 936 813c215 -15 409 -132 509 -326l-192 -169c-106 169 -228 240 -380 240c-281 0 -550 -235 -612 -559
c-65 -334 118 -596 418 -596c163 0 301 79 433 194l110 -219c-164 -143 -357 -229 -579 -229z" />
    <glyph glyph-name="Cdotaccent" unicode="&#x10b;" horiz-adv-x="1480" 
d="M986 1794c-67 0 -110 54 -97 119c12 65 77 121 143 121c65 0 109 -56 97 -121c-13 -66 -78 -119 -143 -119zM765 -26c-457 0 -727 362 -643 851c95 557 575 835 936 813c215 -15 409 -132 509 -326l-192 -169c-106 169 -228 240 -380 240c-281 0 -550 -235 -612 -559
c-65 -334 118 -596 418 -596c163 0 301 79 433 194l110 -219c-164 -143 -357 -229 -579 -229z" />
    <glyph glyph-name="D" unicode="D" horiz-adv-x="1484" 
d="M792 1612c335 1 731 -211 652 -808c-95 -722 -742 -804 -965 -804h-440l313 1612h440zM1180 806c56 368 -174 555 -439 555h-177l-216 -1109h180c356 0 602 222 652 554z" />
    <glyph glyph-name="D" unicode="d" horiz-adv-x="1484" 
d="M792 1612c335 1 731 -211 652 -808c-95 -722 -742 -804 -965 -804h-440l313 1612h440zM1180 806c56 368 -174 555 -439 555h-177l-216 -1109h180c356 0 602 222 652 554z" />
    <glyph glyph-name="Eth" unicode="&#xd0;" horiz-adv-x="1570" 
d="M878 1612c336 1 732 -211 652 -808c-94 -722 -741 -804 -965 -804h-440l139 715h-195l33 169h195l142 728h439zM1266 806c56 368 -174 555 -439 555h-176l-94 -478h264l-33 -168h-263l-91 -463h181c356 0 601 222 651 554z" />
    <glyph glyph-name="Eth" unicode="&#xf0;" horiz-adv-x="1570" 
d="M878 1612c336 1 732 -211 652 -808c-94 -722 -741 -804 -965 -804h-440l139 715h-195l33 169h195l142 728h439zM1266 806c56 368 -174 555 -439 555h-176l-94 -478h264l-33 -168h-263l-91 -463h181c356 0 601 222 651 554z" />
    <glyph glyph-name="Dcaron" unicode="&#x10e;" horiz-adv-x="1484" 
d="M1034 1760h-127l-261 292h190l146 -168l208 168h214zM792 1612c335 1 731 -211 652 -808c-95 -722 -742 -804 -965 -804h-440l313 1612h440zM1180 806c56 368 -174 555 -439 555h-177l-216 -1109h180c356 0 602 222 652 554z" />
    <glyph glyph-name="Dcaron" unicode="&#x10f;" horiz-adv-x="1484" 
d="M1034 1760h-127l-261 292h190l146 -168l208 168h214zM792 1612c335 1 731 -211 652 -808c-95 -722 -742 -804 -965 -804h-440l313 1612h440zM1180 806c56 368 -174 555 -439 555h-177l-216 -1109h180c356 0 602 222 652 554z" />
    <glyph glyph-name="Dcroat" unicode="&#x110;" horiz-adv-x="1570" 
d="M878 1612c336 1 732 -211 652 -808c-94 -722 -741 -804 -965 -804h-440l139 715h-195l33 169h195l142 728h439zM1266 806c56 368 -174 555 -439 555h-176l-94 -478h264l-33 -168h-263l-91 -463h181c356 0 601 222 651 554z" />
    <glyph glyph-name="Dcroat" unicode="&#x111;" horiz-adv-x="1570" 
d="M878 1612c336 1 732 -211 652 -808c-94 -722 -741 -804 -965 -804h-440l139 715h-195l33 169h195l142 728h439zM1266 806c56 368 -174 555 -439 555h-176l-94 -478h264l-33 -168h-263l-91 -463h181c356 0 601 222 651 554z" />
    <glyph glyph-name="E" unicode="E" horiz-adv-x="1183" 
d="M1222 1363h-658l-80 -413h564l-49 -252h-564l-87 -446h658l-49 -252h-918l313 1612h918z" />
    <glyph glyph-name="E" unicode="e" horiz-adv-x="1183" 
d="M1222 1363h-658l-80 -413h564l-49 -252h-564l-87 -446h658l-49 -252h-918l313 1612h918z" />
    <glyph glyph-name="Eacute" unicode="&#xc9;" horiz-adv-x="1183" 
d="M1093 2072l-301 -327h-183l262 327h222zM1222 1363h-658l-80 -413h564l-49 -252h-564l-87 -446h658l-49 -252h-918l313 1612h918z" />
    <glyph glyph-name="Eacute" unicode="&#xe9;" horiz-adv-x="1183" 
d="M1093 2072l-301 -327h-183l262 327h222zM1222 1363h-658l-80 -413h564l-49 -252h-564l-87 -446h658l-49 -252h-918l313 1612h918z" />
    <glyph glyph-name="Ebreve" unicode="&#x114;" horiz-adv-x="1183" 
d="M836 1762c-180 0 -271 133 -243 287h122c-17 -91 38 -171 135 -171c95 0 174 70 194 171h122c-32 -169 -160 -287 -330 -287zM1222 1363h-658l-80 -413h564l-49 -252h-564l-87 -446h658l-49 -252h-918l313 1612h918z" />
    <glyph glyph-name="Ebreve" unicode="&#x115;" horiz-adv-x="1183" 
d="M836 1762c-180 0 -271 133 -243 287h122c-17 -91 38 -171 135 -171c95 0 174 70 194 171h122c-32 -169 -160 -287 -330 -287zM1222 1363h-658l-80 -413h564l-49 -252h-564l-87 -446h658l-49 -252h-918l313 1612h918z" />
    <glyph glyph-name="Ecaron" unicode="&#x11a;" horiz-adv-x="1183" 
d="M889 1760h-127l-261 292h190l146 -168l208 168h214zM1222 1363h-658l-80 -413h564l-49 -252h-564l-87 -446h658l-49 -252h-918l313 1612h918z" />
    <glyph glyph-name="Ecaron" unicode="&#x11b;" horiz-adv-x="1183" 
d="M889 1760h-127l-261 292h190l146 -168l208 168h214zM1222 1363h-658l-80 -413h564l-49 -252h-564l-87 -446h658l-49 -252h-918l313 1612h918z" />
    <glyph glyph-name="Ecircumflex" unicode="&#xca;" horiz-adv-x="1183" 
d="M867 1928l-208 -168h-214l370 292h126l261 -292h-190zM1222 1363h-658l-80 -413h564l-49 -252h-564l-87 -446h658l-49 -252h-918l313 1612h918z" />
    <glyph glyph-name="Ecircumflex" unicode="&#xea;" horiz-adv-x="1183" 
d="M867 1928l-208 -168h-214l370 292h126l261 -292h-190zM1222 1363h-658l-80 -413h564l-49 -252h-564l-87 -446h658l-49 -252h-918l313 1612h918z" />
    <glyph glyph-name="Edieresis" unicode="&#xcb;" horiz-adv-x="1183" 
d="M606 1794c-57 0 -97 47 -85 104c11 57 68 106 125 106s96 -49 85 -106c-12 -57 -68 -104 -125 -104zM1054 1794c-57 0 -96 47 -84 104c11 57 68 106 124 106c58 0 97 -49 86 -106c-12 -57 -68 -104 -126 -104zM1222 1363h-658l-80 -413h564l-49 -252h-564l-87 -446h658
l-49 -252h-918l313 1612h918z" />
    <glyph glyph-name="Edieresis" unicode="&#xeb;" horiz-adv-x="1183" 
d="M606 1794c-57 0 -97 47 -85 104c11 57 68 106 125 106s96 -49 85 -106c-12 -57 -68 -104 -125 -104zM1054 1794c-57 0 -96 47 -84 104c11 57 68 106 124 106c58 0 97 -49 86 -106c-12 -57 -68 -104 -126 -104zM1222 1363h-658l-80 -413h564l-49 -252h-564l-87 -446h658
l-49 -252h-918l313 1612h918z" />
    <glyph glyph-name="Edotaccent" unicode="&#x116;" horiz-adv-x="1183" 
d="M830 1794c-67 0 -110 54 -97 119c12 65 77 121 143 121c65 0 109 -56 97 -121c-13 -66 -78 -119 -143 -119zM1222 1363h-658l-80 -413h564l-49 -252h-564l-87 -446h658l-49 -252h-918l313 1612h918z" />
    <glyph glyph-name="Edotaccent" unicode="&#x117;" horiz-adv-x="1183" 
d="M830 1794c-67 0 -110 54 -97 119c12 65 77 121 143 121c65 0 109 -56 97 -121c-13 -66 -78 -119 -143 -119zM1222 1363h-658l-80 -413h564l-49 -252h-564l-87 -446h658l-49 -252h-918l313 1612h918z" />
    <glyph glyph-name="Egrave" unicode="&#xc8;" horiz-adv-x="1183" 
d="M978 1745h-183l-174 327h223zM1222 1363h-658l-80 -413h564l-49 -252h-564l-87 -446h658l-49 -252h-918l313 1612h918z" />
    <glyph glyph-name="Egrave" unicode="&#xe8;" horiz-adv-x="1183" 
d="M978 1745h-183l-174 327h223zM1222 1363h-658l-80 -413h564l-49 -252h-564l-87 -446h658l-49 -252h-918l313 1612h918z" />
    <glyph glyph-name="Emacron" unicode="&#x112;" horiz-adv-x="1183" 
d="M1145 1945l-26 -132h-572l26 132h572zM1222 1363h-658l-80 -413h564l-49 -252h-564l-87 -446h658l-49 -252h-918l313 1612h918z" />
    <glyph glyph-name="Emacron" unicode="&#x113;" horiz-adv-x="1183" 
d="M1145 1945l-26 -132h-572l26 132h572zM1222 1363h-658l-80 -413h564l-49 -252h-564l-87 -446h658l-49 -252h-918l313 1612h918z" />
    <glyph glyph-name="Eogonek" unicode="&#x118;" horiz-adv-x="1183" 
d="M1222 1363h-658l-80 -413h564l-49 -252h-564l-87 -446h658l-47 -242h2c-1 -1 -2 -1 -2 -2l-2 -8h-11c-135 -87 -222 -158 -228 -242c-3 -29 6 -96 96 -96c20 0 61 4 106 14l31 -174c-58 -13 -111 -19 -156 -19c-168 0 -264 82 -259 217c6 132 106 240 225 300h-722
l313 1612h918z" />
    <glyph glyph-name="Eogonek" unicode="&#x119;" horiz-adv-x="1183" 
d="M1222 1363h-658l-80 -413h564l-49 -252h-564l-87 -446h658l-47 -242h2c-1 -1 -2 -1 -2 -2l-2 -8h-11c-135 -87 -222 -158 -228 -242c-3 -29 6 -96 96 -96c20 0 61 4 106 14l31 -174c-58 -13 -111 -19 -156 -19c-168 0 -264 82 -259 217c6 132 106 240 225 300h-722
l313 1612h918z" />
    <glyph glyph-name="F" unicode="F" horiz-adv-x="1121" 
d="M1222 1364h-658l-84 -431h564l-49 -252h-564l-133 -683h-260l315 1618h918z" />
    <glyph glyph-name="F" unicode="f" horiz-adv-x="1121" 
d="M1222 1364h-658l-84 -431h564l-49 -252h-564l-133 -683h-260l315 1618h918z" />
    <glyph glyph-name="G" unicode="G" horiz-adv-x="1694" 
d="M932 880h732c-5 -57 -14 -105 -18 -126c-87 -462 -435 -781 -876 -781c-463 0 -727 352 -652 831c78 507 482 835 948 835c204 -2 389 -122 497 -274l-180 -208c-95 135 -210 227 -381 227c-273 0 -563 -231 -624 -580c-60 -341 140 -576 426 -576c302 0 502 270 534 410
c1 3 2 7 2 10h-453z" />
    <glyph glyph-name="G" unicode="g" horiz-adv-x="1694" 
d="M932 880h732c-5 -57 -14 -105 -18 -126c-87 -462 -435 -781 -876 -781c-463 0 -727 352 -652 831c78 507 482 835 948 835c204 -2 389 -122 497 -274l-180 -208c-95 135 -210 227 -381 227c-273 0 -563 -231 -624 -580c-60 -341 140 -576 426 -576c302 0 502 270 534 410
c1 3 2 7 2 10h-453z" />
    <glyph glyph-name="Gbreve" unicode="&#x11e;" horiz-adv-x="1694" 
d="M1086 1762c-180 0 -271 133 -243 287h122c-17 -91 38 -171 135 -171c95 0 174 70 194 171h122c-32 -169 -160 -287 -330 -287zM932 880h732c-5 -57 -14 -105 -18 -126c-87 -462 -435 -781 -876 -781c-463 0 -727 352 -652 831c78 507 482 835 948 835
c204 -2 389 -122 497 -274l-180 -208c-95 135 -210 227 -381 227c-273 0 -563 -231 -624 -580c-60 -341 140 -576 426 -576c302 0 502 270 534 410c1 3 2 7 2 10h-453z" />
    <glyph glyph-name="Gbreve" unicode="&#x11f;" horiz-adv-x="1694" 
d="M1086 1762c-180 0 -271 133 -243 287h122c-17 -91 38 -171 135 -171c95 0 174 70 194 171h122c-32 -169 -160 -287 -330 -287zM932 880h732c-5 -57 -14 -105 -18 -126c-87 -462 -435 -781 -876 -781c-463 0 -727 352 -652 831c78 507 482 835 948 835
c204 -2 389 -122 497 -274l-180 -208c-95 135 -210 227 -381 227c-273 0 -563 -231 -624 -580c-60 -341 140 -576 426 -576c302 0 502 270 534 410c1 3 2 7 2 10h-453z" />
    <glyph glyph-name="uni0122" unicode="&#x122;" horiz-adv-x="1694" 
d="M932 880h732c-5 -57 -14 -105 -18 -126c-87 -462 -435 -781 -876 -781c-463 0 -727 352 -652 831c78 507 482 835 948 835c204 -2 389 -122 497 -274l-180 -208c-95 135 -210 227 -381 227c-273 0 -563 -231 -624 -580c-60 -341 140 -576 426 -576c302 0 502 270 534 410
c1 3 2 7 2 10h-453zM715 -123c65 0 118 -51 97 -161c-29 -148 -148 -265 -261 -265c-39 0 -59 19 -57 29c47 0 148 39 168 142c4 23 4 36 -4 50c-49 0 -99 35 -88 96c11 59 73 109 145 109z" />
    <glyph glyph-name="uni0122" unicode="&#x123;" horiz-adv-x="1694" 
d="M932 880h732c-5 -57 -14 -105 -18 -126c-87 -462 -435 -781 -876 -781c-463 0 -727 352 -652 831c78 507 482 835 948 835c204 -2 389 -122 497 -274l-180 -208c-95 135 -210 227 -381 227c-273 0 -563 -231 -624 -580c-60 -341 140 -576 426 -576c302 0 502 270 534 410
c1 3 2 7 2 10h-453zM715 -123c65 0 118 -51 97 -161c-29 -148 -148 -265 -261 -265c-39 0 -59 19 -57 29c47 0 148 39 168 142c4 23 4 36 -4 50c-49 0 -99 35 -88 96c11 59 73 109 145 109z" />
    <glyph glyph-name="Gdotaccent" unicode="&#x120;" horiz-adv-x="1694" 
d="M1080 1794c-67 0 -110 54 -97 119c12 65 77 121 143 121c65 0 109 -56 97 -121c-13 -66 -78 -119 -143 -119zM932 880h732c-5 -57 -14 -105 -18 -126c-87 -462 -435 -781 -876 -781c-463 0 -727 352 -652 831c78 507 482 835 948 835c204 -2 389 -122 497 -274l-180 -208
c-95 135 -210 227 -381 227c-273 0 -563 -231 -624 -580c-60 -341 140 -576 426 -576c302 0 502 270 534 410c1 3 2 7 2 10h-453z" />
    <glyph glyph-name="Gdotaccent" unicode="&#x121;" horiz-adv-x="1694" 
d="M1080 1794c-67 0 -110 54 -97 119c12 65 77 121 143 121c65 0 109 -56 97 -121c-13 -66 -78 -119 -143 -119zM932 880h732c-5 -57 -14 -105 -18 -126c-87 -462 -435 -781 -876 -781c-463 0 -727 352 -652 831c78 507 482 835 948 835c204 -2 389 -122 497 -274l-180 -208
c-95 135 -210 227 -381 227c-273 0 -563 -231 -624 -580c-60 -341 140 -576 426 -576c302 0 502 270 534 410c1 3 2 7 2 10h-453z" />
    <glyph glyph-name="H" unicode="H" horiz-adv-x="1464" 
d="M1245 1612h260l-313 -1612h-260l132 681h-633l-132 -681h-260l313 1612h260l-132 -680h633z" />
    <glyph glyph-name="H" unicode="h" horiz-adv-x="1464" 
d="M1245 1612h260l-313 -1612h-260l132 681h-633l-132 -681h-260l313 1612h260l-132 -680h633z" />
    <glyph glyph-name="Hbar" unicode="&#x126;" horiz-adv-x="1464" 
d="M1605 1322l-35 -183h-157l-221 -1139h-260l132 681h-633l-132 -681h-260l221 1139h-157l35 183h158l56 290h260l-56 -290h633l56 290h260l-56 -290h156zM1113 932l40 207h-633l-40 -207h633z" />
    <glyph glyph-name="Hbar" unicode="&#x127;" horiz-adv-x="1464" 
d="M1605 1322l-35 -183h-157l-221 -1139h-260l132 681h-633l-132 -681h-260l221 1139h-157l35 183h158l56 290h260l-56 -290h633l56 290h260l-56 -290h156zM1113 932l40 207h-633l-40 -207h633z" />
    <glyph glyph-name="I" unicode="I" horiz-adv-x="571" 
d="M39 0l313 1612h260l-313 -1612h-260z" />
    <glyph glyph-name="Iacute" unicode="&#xcd;" horiz-adv-x="571" 
d="M480 1745h-183l262 327h222zM39 0l313 1612h260l-313 -1612h-260z" />
    <glyph glyph-name="Iacute" unicode="&#xed;" horiz-adv-x="571" 
d="M480 1745h-183l262 327h222zM39 0l313 1612h260l-313 -1612h-260z" />
    <glyph glyph-name="Icircumflex" unicode="&#xce;" horiz-adv-x="571" 
d="M133 1760l370 292h126l261 -292h-190l-145 168l-208 -168h-214zM39 0l313 1612h260l-313 -1612h-260z" />
    <glyph glyph-name="Icircumflex" unicode="&#xee;" horiz-adv-x="571" 
d="M133 1760l370 292h126l261 -292h-190l-145 168l-208 -168h-214zM39 0l313 1612h260l-313 -1612h-260z" />
    <glyph glyph-name="Idieresis" unicode="&#xcf;" horiz-adv-x="571" 
d="M294 1794c-57 0 -97 47 -85 104c11 57 68 106 125 106s96 -49 85 -106c-12 -57 -68 -104 -125 -104zM742 1794c-57 0 -96 47 -84 104c11 57 68 106 124 106c58 0 97 -49 86 -106c-12 -57 -68 -104 -126 -104zM39 0l313 1612h260l-313 -1612h-260z" />
    <glyph glyph-name="Idieresis" unicode="&#xef;" horiz-adv-x="571" 
d="M294 1794c-57 0 -97 47 -85 104c11 57 68 106 125 106s96 -49 85 -106c-12 -57 -68 -104 -125 -104zM742 1794c-57 0 -96 47 -84 104c11 57 68 106 124 106c58 0 97 -49 86 -106c-12 -57 -68 -104 -126 -104zM39 0l313 1612h260l-313 -1612h-260z" />
    <glyph glyph-name="Idotaccent" unicode="&#x130;" horiz-adv-x="571" 
d="M518 1794c-67 0 -110 54 -97 119c12 65 77 121 143 121c65 0 109 -56 97 -121c-13 -66 -78 -119 -143 -119zM39 0l313 1612h260l-313 -1612h-260z" />
    <glyph glyph-name="Igrave" unicode="&#xcc;" horiz-adv-x="571" 
d="M483 1745l-174 327h223l134 -327h-183zM39 0l313 1612h260l-313 -1612h-260z" />
    <glyph glyph-name="Igrave" unicode="&#xec;" horiz-adv-x="571" 
d="M483 1745l-174 327h223l134 -327h-183zM39 0l313 1612h260l-313 -1612h-260z" />
    <glyph glyph-name="Imacron" unicode="&#x12a;" horiz-adv-x="571" 
d="M235 1813l26 132h572l-26 -132h-572zM39 0l313 1612h260l-313 -1612h-260z" />
    <glyph glyph-name="Imacron" unicode="&#x12b;" horiz-adv-x="571" 
d="M235 1813l26 132h572l-26 -132h-572zM39 0l313 1612h260l-313 -1612h-260z" />
    <glyph glyph-name="Iogonek" unicode="&#x12e;" horiz-adv-x="571" 
d="M299 0c-143 -92 -237 -165 -243 -252c-3 -29 6 -96 96 -96c20 0 61 4 106 14l31 -174c-58 -13 -111 -19 -156 -19c-168 0 -264 82 -259 217c6 139 117 252 246 310h-81l313 1612h260z" />
    <glyph glyph-name="Iogonek" unicode="&#x12f;" horiz-adv-x="571" 
d="M299 0c-143 -92 -237 -165 -243 -252c-3 -29 6 -96 96 -96c20 0 61 4 106 14l31 -174c-58 -13 -111 -19 -156 -19c-168 0 -264 82 -259 217c6 139 117 252 246 310h-81l313 1612h260z" />
    <glyph glyph-name="J" unicode="J" horiz-adv-x="1144" 
d="M275 -31c-143 0 -250 48 -326 129l158 206c51 -51 115 -83 217 -83c225 0 377 139 427 401l187 990l260 -1l-189 -991c-83 -437 -331 -651 -734 -651z" />
    <glyph glyph-name="J" unicode="j" horiz-adv-x="1144" 
d="M275 -31c-143 0 -250 48 -326 129l158 206c51 -51 115 -83 217 -83c225 0 377 139 427 401l187 990l260 -1l-189 -991c-83 -437 -331 -651 -734 -651z" />
    <glyph glyph-name="K" unicode="K" horiz-adv-x="1295" 
d="M1428 1612l-688 -792l422 -820h-282l-421 825l-160 -825h-260l313 1612h260l-146 -754l653 754h309z" />
    <glyph glyph-name="K" unicode="k" horiz-adv-x="1295" 
d="M1428 1612l-688 -792l422 -820h-282l-421 825l-160 -825h-260l313 1612h260l-146 -754l653 754h309z" />
    <glyph glyph-name="uni0136" unicode="&#x136;" horiz-adv-x="1295" 
d="M1428 1612l-688 -792l422 -820h-282l-421 825l-160 -825h-260l313 1612h260l-146 -754l653 754h309zM515 -123c65 0 118 -51 97 -161c-29 -148 -148 -265 -261 -265c-39 0 -59 19 -57 29c47 0 148 39 168 142c4 23 4 36 -4 50c-49 0 -99 35 -88 96c11 59 73 109 145 109z
" />
    <glyph glyph-name="uni0136" unicode="&#x137;" horiz-adv-x="1295" 
d="M1428 1612l-688 -792l422 -820h-282l-421 825l-160 -825h-260l313 1612h260l-146 -754l653 754h309zM515 -123c65 0 118 -51 97 -161c-29 -148 -148 -265 -261 -265c-39 0 -59 19 -57 29c47 0 148 39 168 142c4 23 4 36 -4 50c-49 0 -99 35 -88 96c11 59 73 109 145 109z
" />
    <glyph glyph-name="L" unicode="L" horiz-adv-x="1143" 
d="M348 252h681l-50 -252h-940l313 1612h261z" />
    <glyph glyph-name="L" unicode="l" horiz-adv-x="1143" 
d="M348 252h681l-50 -252h-940l313 1612h261z" />
    <glyph glyph-name="Lacute" unicode="&#x139;" horiz-adv-x="1143" 
d="M1084 2072l-301 -327h-183l262 327h222zM613 1612l-265 -1360h681l-50 -252h-940l313 1612h261z" />
    <glyph glyph-name="Lacute" unicode="&#x13a;" horiz-adv-x="1143" 
d="M1084 2072l-301 -327h-183l262 327h222zM613 1612l-265 -1360h681l-50 -252h-940l313 1612h261z" />
    <glyph glyph-name="Lcaron" unicode="&#x13d;" horiz-adv-x="1143" 
d="M1102 1702l-208 -460h-160l170 460h198zM613 1612l-265 -1360h681l-50 -252h-940l313 1612h261z" />
    <glyph glyph-name="Lcaron" unicode="&#x13e;" horiz-adv-x="1143" 
d="M1102 1702l-208 -460h-160l170 460h198zM613 1612l-265 -1360h681l-50 -252h-940l313 1612h261z" />
    <glyph glyph-name="uni013B" unicode="&#x13b;" horiz-adv-x="1143" 
d="M348 252h681l-50 -252h-940l313 1612h261zM468 -123c65 0 118 -51 97 -161c-29 -148 -148 -265 -261 -265c-39 0 -59 19 -57 29c47 0 148 39 168 142c4 23 4 36 -4 50c-49 0 -99 35 -88 96c11 59 73 109 145 109z" />
    <glyph glyph-name="uni013B" unicode="&#x13c;" horiz-adv-x="1143" 
d="M348 252h681l-50 -252h-940l313 1612h261zM468 -123c65 0 118 -51 97 -161c-29 -148 -148 -265 -261 -265c-39 0 -59 19 -57 29c47 0 148 39 168 142c4 23 4 36 -4 50c-49 0 -99 35 -88 96c11 59 73 109 145 109z" />
    <glyph glyph-name="Lslash" unicode="&#x141;" horiz-adv-x="1143" 
d="M348 252h681l-50 -252h-940l115 593l-224 -141l39 202l224 141l159 817h261l-123 -630l260 163l-39 -203l-260 -163z" />
    <glyph glyph-name="Lslash" unicode="&#x142;" horiz-adv-x="1143" 
d="M348 252h681l-50 -252h-940l115 593l-224 -141l39 202l224 141l159 817h261l-123 -630l260 163l-39 -203l-260 -163z" />
    <glyph glyph-name="M" unicode="M" horiz-adv-x="1825" 
d="M1839 1647h34l-320 -1647h-261l169 872l-667 -845h-1l-325 844l-169 -871h-261l320 1647h33l474 -1164z" />
    <glyph glyph-name="M" unicode="m" horiz-adv-x="1825" 
d="M1839 1647h34l-320 -1647h-261l169 872l-667 -845h-1l-325 844l-169 -871h-261l320 1647h33l474 -1164z" />
    <glyph glyph-name="N" unicode="N" horiz-adv-x="1551" 
d="M1334 1616h259l-319 -1644h-23l-750 1076l-204 -1050h-259l320 1642h23l748 -1074z" />
    <glyph glyph-name="N" unicode="n" horiz-adv-x="1551" 
d="M1334 1616h259l-319 -1644h-23l-750 1076l-204 -1050h-259l320 1642h23l748 -1074z" />
    <glyph glyph-name="Nacute" unicode="&#x143;" horiz-adv-x="1551" 
d="M1272 2072l-301 -327h-183l262 327h222zM1334 1616h259l-319 -1644h-23l-750 1076l-204 -1050h-259l320 1642h23l748 -1074z" />
    <glyph glyph-name="Nacute" unicode="&#x144;" horiz-adv-x="1551" 
d="M1272 2072l-301 -327h-183l262 327h222zM1334 1616h259l-319 -1644h-23l-750 1076l-204 -1050h-259l320 1642h23l748 -1074z" />
    <glyph glyph-name="Ncaron" unicode="&#x147;" horiz-adv-x="1551" 
d="M1067 1760h-127l-261 292h190l146 -168l208 168h214zM1334 1616h259l-319 -1644h-23l-750 1076l-204 -1050h-259l320 1642h23l748 -1074z" />
    <glyph glyph-name="Ncaron" unicode="&#x148;" horiz-adv-x="1551" 
d="M1067 1760h-127l-261 292h190l146 -168l208 168h214zM1334 1616h259l-319 -1644h-23l-750 1076l-204 -1050h-259l320 1642h23l748 -1074z" />
    <glyph glyph-name="uni0145" unicode="&#x145;" horiz-adv-x="1551" 
d="M1334 1616h259l-319 -1644h-23l-750 1076l-204 -1050h-259l320 1642h23l748 -1074zM643 -123c65 0 118 -51 97 -161c-29 -148 -148 -265 -261 -265c-39 0 -59 19 -57 29c47 0 148 39 168 142c4 23 4 36 -4 50c-49 0 -99 35 -88 96c11 59 73 109 145 109z" />
    <glyph glyph-name="uni0145" unicode="&#x146;" horiz-adv-x="1551" 
d="M1334 1616h259l-319 -1644h-23l-750 1076l-204 -1050h-259l320 1642h23l748 -1074zM643 -123c65 0 118 -51 97 -161c-29 -148 -148 -265 -261 -265c-39 0 -59 19 -57 29c47 0 148 39 168 142c4 23 4 36 -4 50c-49 0 -99 35 -88 96c11 59 73 109 145 109z" />
    <glyph glyph-name="Eng" unicode="&#x14a;" horiz-adv-x="1551" 
d="M1334 1616h259l-319 -1644l-6 -32c-34 -174 -161 -342 -352 -447l-145 131c134 63 221 159 250 311l55 288l-575 825l-204 -1050h-259l320 1642h23l748 -1074z" />
    <glyph glyph-name="Eng" unicode="&#x14b;" horiz-adv-x="1551" 
d="M1334 1616h259l-319 -1644l-6 -32c-34 -174 -161 -342 -352 -447l-145 131c134 63 221 159 250 311l55 288l-575 825l-204 -1050h-259l320 1642h23l748 -1074z" />
    <glyph glyph-name="Ntilde" unicode="&#xd1;" horiz-adv-x="1551" 
d="M885 1905c-63 0 -115 -52 -149 -130l-116 49c76 185 201 216 276 216c151 0 172 -136 277 -136c62 0 115 52 149 130l116 -48c-76 -185 -201 -216 -276 -216c-151 0 -172 135 -277 135zM1334 1616h259l-319 -1644h-23l-750 1076l-204 -1050h-259l320 1642h23l748 -1074z
" />
    <glyph glyph-name="Ntilde" unicode="&#xf1;" horiz-adv-x="1551" 
d="M885 1905c-63 0 -115 -52 -149 -130l-116 49c76 185 201 216 276 216c151 0 172 -136 277 -136c62 0 115 52 149 130l116 -48c-76 -185 -201 -216 -276 -216c-151 0 -172 135 -277 135zM1334 1616h259l-319 -1644h-23l-750 1076l-204 -1050h-259l320 1642h23l748 -1074z
" />
    <glyph glyph-name="O" unicode="O" horiz-adv-x="1694" 
d="M733 -33c-423 20 -684 368 -615 835c72 493 471 854 919 833c427 -19 686 -376 615 -846c-74 -494 -477 -843 -919 -822zM779 221c286 -7 557 243 614 573c56 329 -125 583 -403 589c-286 6 -557 -252 -612 -582c-55 -322 120 -573 401 -580z" />
    <glyph glyph-name="O" unicode="o" horiz-adv-x="1694" 
d="M733 -33c-423 20 -684 368 -615 835c72 493 471 854 919 833c427 -19 686 -376 615 -846c-74 -494 -477 -843 -919 -822zM779 221c286 -7 557 243 614 573c56 329 -125 583 -403 589c-286 6 -557 -252 -612 -582c-55 -322 120 -573 401 -580z" />
    <glyph glyph-name="Oacute" unicode="&#xd3;" horiz-adv-x="1694" 
d="M1042 1745h-183l262 327h222zM733 -33c-423 20 -684 368 -615 835c72 493 471 854 919 833c427 -19 686 -376 615 -846c-74 -494 -477 -843 -919 -822zM779 221c286 -7 557 243 614 573c56 329 -125 583 -403 589c-286 6 -557 -252 -612 -582c-55 -322 120 -573 401 -580
z" />
    <glyph glyph-name="Oacute" unicode="&#xf3;" horiz-adv-x="1694" 
d="M1042 1745h-183l262 327h222zM733 -33c-423 20 -684 368 -615 835c72 493 471 854 919 833c427 -19 686 -376 615 -846c-74 -494 -477 -843 -919 -822zM779 221c286 -7 557 243 614 573c56 329 -125 583 -403 589c-286 6 -557 -252 -612 -582c-55 -322 120 -573 401 -580
z" />
    <glyph glyph-name="Ocircumflex" unicode="&#xd4;" horiz-adv-x="1694" 
d="M694 1760l370 292h126l261 -292h-190l-145 168l-208 -168h-214zM733 -33c-423 20 -684 368 -615 835c72 493 471 854 919 833c427 -19 686 -376 615 -846c-74 -494 -477 -843 -919 -822zM779 221c286 -7 557 243 614 573c56 329 -125 583 -403 589
c-286 6 -557 -252 -612 -582c-55 -322 120 -573 401 -580z" />
    <glyph glyph-name="Ocircumflex" unicode="&#xf4;" horiz-adv-x="1694" 
d="M694 1760l370 292h126l261 -292h-190l-145 168l-208 -168h-214zM733 -33c-423 20 -684 368 -615 835c72 493 471 854 919 833c427 -19 686 -376 615 -846c-74 -494 -477 -843 -919 -822zM779 221c286 -7 557 243 614 573c56 329 -125 583 -403 589
c-286 6 -557 -252 -612 -582c-55 -322 120 -573 401 -580z" />
    <glyph glyph-name="Odieresis" unicode="&#xd6;" horiz-adv-x="1694" 
d="M856 1794c-57 0 -97 47 -85 104c11 57 68 106 125 106s96 -49 85 -106c-12 -57 -68 -104 -125 -104zM1304 1794c-57 0 -96 47 -84 104c11 57 68 106 124 106c58 0 97 -49 86 -106c-12 -57 -68 -104 -126 -104zM733 -33c-423 20 -684 368 -615 835c72 493 471 854 919 833
c427 -19 686 -376 615 -846c-74 -494 -477 -843 -919 -822zM779 221c286 -7 557 243 614 573c56 329 -125 583 -403 589c-286 6 -557 -252 -612 -582c-55 -322 120 -573 401 -580z" />
    <glyph glyph-name="Odieresis" unicode="&#xf6;" horiz-adv-x="1694" 
d="M856 1794c-57 0 -97 47 -85 104c11 57 68 106 125 106s96 -49 85 -106c-12 -57 -68 -104 -125 -104zM1304 1794c-57 0 -96 47 -84 104c11 57 68 106 124 106c58 0 97 -49 86 -106c-12 -57 -68 -104 -126 -104zM733 -33c-423 20 -684 368 -615 835c72 493 471 854 919 833
c427 -19 686 -376 615 -846c-74 -494 -477 -843 -919 -822zM779 221c286 -7 557 243 614 573c56 329 -125 583 -403 589c-286 6 -557 -252 -612 -582c-55 -322 120 -573 401 -580z" />
    <glyph glyph-name="Ograve" unicode="&#xd2;" horiz-adv-x="1694" 
d="M1044 1745l-174 327h223l134 -327h-183zM733 -33c-423 20 -684 368 -615 835c72 493 471 854 919 833c427 -19 686 -376 615 -846c-74 -494 -477 -843 -919 -822zM779 221c286 -7 557 243 614 573c56 329 -125 583 -403 589c-286 6 -557 -252 -612 -582
c-55 -322 120 -573 401 -580z" />
    <glyph glyph-name="Ograve" unicode="&#xf2;" horiz-adv-x="1694" 
d="M1044 1745l-174 327h223l134 -327h-183zM733 -33c-423 20 -684 368 -615 835c72 493 471 854 919 833c427 -19 686 -376 615 -846c-74 -494 -477 -843 -919 -822zM779 221c286 -7 557 243 614 573c56 329 -125 583 -403 589c-286 6 -557 -252 -612 -582
c-55 -322 120 -573 401 -580z" />
    <glyph glyph-name="Ohungarumlaut" unicode="&#x150;" horiz-adv-x="1694" 
d="M742 1743l219 327h199l-258 -327h-160zM1057 1743l274 327h214l-320 -327h-168zM733 -33c-423 20 -684 368 -615 835c72 493 471 854 919 833c427 -19 686 -376 615 -846c-74 -494 -477 -843 -919 -822zM779 221c286 -7 557 243 614 573c56 329 -125 583 -403 589
c-286 6 -557 -252 -612 -582c-55 -322 120 -573 401 -580z" />
    <glyph glyph-name="Ohungarumlaut" unicode="&#x151;" horiz-adv-x="1694" 
d="M742 1743l219 327h199l-258 -327h-160zM1057 1743l274 327h214l-320 -327h-168zM733 -33c-423 20 -684 368 -615 835c72 493 471 854 919 833c427 -19 686 -376 615 -846c-74 -494 -477 -843 -919 -822zM779 221c286 -7 557 243 614 573c56 329 -125 583 -403 589
c-286 6 -557 -252 -612 -582c-55 -322 120 -573 401 -580z" />
    <glyph glyph-name="Omacron" unicode="&#x14c;" horiz-adv-x="1694" 
d="M797 1813l26 132h572l-26 -132h-572zM733 -33c-423 20 -684 368 -615 835c72 493 471 854 919 833c427 -19 686 -376 615 -846c-74 -494 -477 -843 -919 -822zM779 221c286 -7 557 243 614 573c56 329 -125 583 -403 589c-286 6 -557 -252 -612 -582
c-55 -322 120 -573 401 -580z" />
    <glyph glyph-name="Omacron" unicode="&#x14d;" horiz-adv-x="1694" 
d="M797 1813l26 132h572l-26 -132h-572zM733 -33c-423 20 -684 368 -615 835c72 493 471 854 919 833c427 -19 686 -376 615 -846c-74 -494 -477 -843 -919 -822zM779 221c286 -7 557 243 614 573c56 329 -125 583 -403 589c-286 6 -557 -252 -612 -582
c-55 -322 120 -573 401 -580z" />
    <glyph glyph-name="Oslash" unicode="&#xd8;" horiz-adv-x="1694" 
d="M1762 1672l-243 -274c118 -152 170 -365 133 -609c-74 -494 -477 -843 -919 -822c-144 7 -269 52 -369 126l-136 -153h-215l236 266c-115 149 -166 357 -131 596c72 493 471 854 919 833c143 -6 268 -51 367 -125l144 162h214zM378 801c-25 -148 -2 -282 58 -383l788 888
c-65 47 -145 75 -234 77c-286 6 -557 -252 -612 -582zM1393 794c26 153 1 289 -61 392l-787 -888c64 -47 144 -75 234 -77c286 -7 557 243 614 573z" />
    <glyph glyph-name="Oslash" unicode="&#xf8;" horiz-adv-x="1694" 
d="M1762 1672l-243 -274c118 -152 170 -365 133 -609c-74 -494 -477 -843 -919 -822c-144 7 -269 52 -369 126l-136 -153h-215l236 266c-115 149 -166 357 -131 596c72 493 471 854 919 833c143 -6 268 -51 367 -125l144 162h214zM378 801c-25 -148 -2 -282 58 -383l788 888
c-65 47 -145 75 -234 77c-286 6 -557 -252 -612 -582zM1393 794c26 153 1 289 -61 392l-787 -888c64 -47 144 -75 234 -77c286 -7 557 243 614 573z" />
    <glyph glyph-name="Otilde" unicode="&#xd5;" horiz-adv-x="1694" 
d="M808 1775l-116 49c76 185 201 216 276 216c151 0 172 -136 277 -136c62 0 115 52 149 130l116 -48c-76 -185 -201 -216 -276 -216c-151 0 -172 135 -277 135c-63 0 -115 -52 -149 -130zM733 -33c-423 20 -684 368 -615 835c72 493 471 854 919 833
c427 -19 686 -376 615 -846c-74 -494 -477 -843 -919 -822zM779 221c286 -7 557 243 614 573c56 329 -125 583 -403 589c-286 6 -557 -252 -612 -582c-55 -322 120 -573 401 -580z" />
    <glyph glyph-name="Otilde" unicode="&#xf5;" horiz-adv-x="1694" 
d="M808 1775l-116 49c76 185 201 216 276 216c151 0 172 -136 277 -136c62 0 115 52 149 130l116 -48c-76 -185 -201 -216 -276 -216c-151 0 -172 135 -277 135c-63 0 -115 -52 -149 -130zM733 -33c-423 20 -684 368 -615 835c72 493 471 854 919 833
c427 -19 686 -376 615 -846c-74 -494 -477 -843 -919 -822zM779 221c286 -7 557 243 614 573c56 329 -125 583 -403 589c-286 6 -557 -252 -612 -582c-55 -322 120 -573 401 -580z" />
    <glyph glyph-name="OE" unicode="&#x152;" horiz-adv-x="2432" 
d="M2472 1363h-658l-81 -413h565l-50 -252h-564l-87 -446h659l-49 -252h-918l43 219c-158 -165 -367 -263 -599 -252c-423 20 -684 368 -615 835c72 493 467 851 919 833c235 -9 415 -117 512 -298l53 275h918zM779 221c286 -7 557 242 614 573c56 329 -125 583 -403 589
c-286 6 -556 -252 -612 -582c-55 -322 120 -573 401 -580z" />
    <glyph glyph-name="OE" unicode="&#x153;" horiz-adv-x="2432" 
d="M2472 1363h-658l-81 -413h565l-50 -252h-564l-87 -446h659l-49 -252h-918l43 219c-158 -165 -367 -263 -599 -252c-423 20 -684 368 -615 835c72 493 467 851 919 833c235 -9 415 -117 512 -298l53 275h918zM779 221c286 -7 557 242 614 573c56 329 -125 583 -403 589
c-286 6 -556 -252 -612 -582c-55 -322 120 -573 401 -580z" />
    <glyph glyph-name="P" unicode="P" horiz-adv-x="1258" 
d="M39 0l313 1612h482c290 0 518 -205 468 -542c-45 -306 -289 -511 -672 -511h-222l-109 -559h-260zM678 809c217 -1 350 104 375 263c26 179 -105 289 -267 289h-222l-107 -551z" />
    <glyph glyph-name="P" unicode="p" horiz-adv-x="1258" 
d="M39 0l313 1612h482c290 0 518 -205 468 -542c-45 -306 -289 -511 -672 -511h-222l-109 -559h-260zM678 809c217 -1 350 104 375 263c26 179 -105 289 -267 289h-222l-107 -551z" />
    <glyph glyph-name="Thorn" unicode="&#xde;" horiz-adv-x="1275" 
d="M39 0l313 1612h260l-55 -286h243c227 0 489 -161 438 -510c-40 -276 -275 -509 -636 -509h-243l-60 -307h-260zM405 548h224c195 0 329 107 352 268c23 171 -99 269 -245 269h-224z" />
    <glyph glyph-name="Thorn" unicode="&#xfe;" horiz-adv-x="1275" 
d="M39 0l313 1612h260l-55 -286h243c227 0 489 -161 438 -510c-40 -276 -275 -509 -636 -509h-243l-60 -307h-260zM405 548h224c195 0 329 107 352 268c23 171 -99 269 -245 269h-224z" />
    <glyph glyph-name="Q" unicode="Q" horiz-adv-x="1717" 
d="M1037 1635c427 -19 686 -376 615 -846c-33 -223 -134 -417 -275 -560c60 -34 135 -56 233 -60l-71 -245c-170 8 -283 68 -369 147c-132 -73 -282 -111 -437 -104c-423 20 -684 368 -615 835c72 493 471 854 919 833zM1393 794c56 329 -125 583 -403 589
c-286 6 -557 -252 -612 -582c-55 -322 120 -573 401 -580c81 -2 160 16 234 51c-92 143 -168 277 -335 285l59 216c275 -16 345 -207 458 -370c99 102 172 238 198 391z" />
    <glyph glyph-name="Q" unicode="q" horiz-adv-x="1717" 
d="M1037 1635c427 -19 686 -376 615 -846c-33 -223 -134 -417 -275 -560c60 -34 135 -56 233 -60l-71 -245c-170 8 -283 68 -369 147c-132 -73 -282 -111 -437 -104c-423 20 -684 368 -615 835c72 493 471 854 919 833zM1393 794c56 329 -125 583 -403 589
c-286 6 -557 -252 -612 -582c-55 -322 120 -573 401 -580c81 -2 160 16 234 51c-92 143 -168 277 -335 285l59 216c275 -16 345 -207 458 -370c99 102 172 238 198 391z" />
    <glyph glyph-name="Q.ss04" horiz-adv-x="1782" 
d="M1037 1635c427 -19 686 -376 615 -846c-31 -206 -119 -387 -244 -527l176 -262h-284l-71 107c-147 -97 -318 -148 -496 -140c-423 20 -684 368 -615 835c72 493 471 854 919 833zM1099 724l162 -242c65 89 112 195 132 312c56 329 -125 583 -403 589
c-286 6 -557 -252 -612 -582c-55 -322 120 -573 401 -580c109 -3 216 32 310 94l-274 409h284z" />
    <glyph glyph-name="R" unicode="R" horiz-adv-x="1352" 
d="M1286 1091c-36 -217 -185 -389 -404 -447l337 -644h-286l-306 624h-206l-121 -624h-260l312 1612h465c272 0 522 -190 469 -521zM1026 1097c24 160 -96 264 -251 264h-211l-103 -527h211c201 0 331 119 354 263z" />
    <glyph glyph-name="R" unicode="r" horiz-adv-x="1352" 
d="M1286 1091c-36 -217 -185 -389 -404 -447l337 -644h-286l-306 624h-206l-121 -624h-260l312 1612h465c272 0 522 -190 469 -521zM1026 1097c24 160 -96 264 -251 264h-211l-103 -527h211c201 0 331 119 354 263z" />
    <glyph glyph-name="R.ss04" horiz-adv-x="1304" 
d="M1311 1057c-35 -223 -171 -397 -365 -486l225 -571h-266l-178 510c-31 -4 -63 -6 -96 -6h-234l-98 -504h-260l313 1612h494c259 0 523 -189 465 -555zM1053 1060c26 175 -87 301 -255 301h-234l-118 -606l234 -1c214 0 349 141 373 306z" />
    <glyph glyph-name="Racute" unicode="&#x154;" horiz-adv-x="1352" 
d="M1105 2072l-301 -327h-183l262 327h222zM1286 1091c-36 -217 -185 -389 -404 -447l337 -644h-286l-306 624h-206l-121 -624h-260l312 1612h465c272 0 522 -190 469 -521zM1026 1097c24 160 -96 264 -251 264h-211l-103 -527h211c201 0 331 119 354 263z" />
    <glyph glyph-name="Racute" unicode="&#x155;" horiz-adv-x="1352" 
d="M1105 2072l-301 -327h-183l262 327h222zM1286 1091c-36 -217 -185 -389 -404 -447l337 -644h-286l-306 624h-206l-121 -624h-260l312 1612h465c272 0 522 -190 469 -521zM1026 1097c24 160 -96 264 -251 264h-211l-103 -527h211c201 0 331 119 354 263z" />
    <glyph glyph-name="Rcaron" unicode="&#x158;" horiz-adv-x="1352" 
d="M900 1760h-127l-261 292h190l146 -168l208 168h214zM1286 1091c-36 -217 -185 -389 -404 -447l337 -644h-286l-306 624h-206l-121 -624h-260l312 1612h465c272 0 522 -190 469 -521zM1026 1097c24 160 -96 264 -251 264h-211l-103 -527h211c201 0 331 119 354 263z" />
    <glyph glyph-name="Rcaron" unicode="&#x159;" horiz-adv-x="1352" 
d="M900 1760h-127l-261 292h190l146 -168l208 168h214zM1286 1091c-36 -217 -185 -389 -404 -447l337 -644h-286l-306 624h-206l-121 -624h-260l312 1612h465c272 0 522 -190 469 -521zM1026 1097c24 160 -96 264 -251 264h-211l-103 -527h211c201 0 331 119 354 263z" />
    <glyph glyph-name="uni0156" unicode="&#x156;" horiz-adv-x="1352" 
d="M1286 1091c-36 -217 -185 -389 -404 -447l337 -644h-286l-306 624h-206l-121 -624h-260l312 1612h465c272 0 522 -190 469 -521zM1026 1097c24 160 -96 264 -251 264h-211l-103 -527h211c201 0 331 119 354 263zM536 -123c65 0 118 -51 97 -161
c-29 -148 -148 -265 -261 -265c-39 0 -59 19 -57 29c47 0 148 39 168 142c4 23 4 36 -4 50c-49 0 -99 35 -88 96c11 59 73 109 145 109z" />
    <glyph glyph-name="uni0156" unicode="&#x157;" horiz-adv-x="1352" 
d="M1286 1091c-36 -217 -185 -389 -404 -447l337 -644h-286l-306 624h-206l-121 -624h-260l312 1612h465c272 0 522 -190 469 -521zM1026 1097c24 160 -96 264 -251 264h-211l-103 -527h211c201 0 331 119 354 263zM536 -123c65 0 118 -51 97 -161
c-29 -148 -148 -265 -261 -265c-39 0 -59 19 -57 29c47 0 148 39 168 142c4 23 4 36 -4 50c-49 0 -99 35 -88 96c11 59 73 109 145 109z" />
    <glyph glyph-name="S" unicode="S" horiz-adv-x="1215" 
d="M529 -27c-273 0 -449 146 -522 342l204 141c80 -151 204 -228 353 -228c133 0 268 65 293 188c33 167 -174 277 -297 349c-157 92 -339 221 -284 489c47 227 270 387 534 387c218 0 385 -128 426 -295l-206 -139c-29 114 -134 186 -257 186c-130 0 -229 -90 -247 -190
c-26 -141 126 -208 266 -288c227 -133 369 -288 322 -515c-49 -246 -269 -427 -585 -427z" />
    <glyph glyph-name="S" unicode="s" horiz-adv-x="1215" 
d="M529 -27c-273 0 -449 146 -522 342l204 141c80 -151 204 -228 353 -228c133 0 268 65 293 188c33 167 -174 277 -297 349c-157 92 -339 221 -284 489c47 227 270 387 534 387c218 0 385 -128 426 -295l-206 -139c-29 114 -134 186 -257 186c-130 0 -229 -90 -247 -190
c-26 -141 126 -208 266 -288c227 -133 369 -288 322 -515c-49 -246 -269 -427 -585 -427z" />
    <glyph glyph-name="Sacute" unicode="&#x15a;" horiz-adv-x="1215" 
d="M813 1745h-183l262 327h222zM529 -27c-273 0 -449 146 -522 342l204 141c80 -151 204 -228 353 -228c133 0 268 65 293 188c33 167 -174 277 -297 349c-157 92 -339 221 -284 489c47 227 270 387 534 387c218 0 385 -128 426 -295l-206 -139c-29 114 -134 186 -257 186
c-130 0 -229 -90 -247 -190c-26 -141 126 -208 266 -288c227 -133 369 -288 322 -515c-49 -246 -269 -427 -585 -427z" />
    <glyph glyph-name="Sacute" unicode="&#x15b;" horiz-adv-x="1215" 
d="M813 1745h-183l262 327h222zM529 -27c-273 0 -449 146 -522 342l204 141c80 -151 204 -228 353 -228c133 0 268 65 293 188c33 167 -174 277 -297 349c-157 92 -339 221 -284 489c47 227 270 387 534 387c218 0 385 -128 426 -295l-206 -139c-29 114 -134 186 -257 186
c-130 0 -229 -90 -247 -190c-26 -141 126 -208 266 -288c227 -133 369 -288 322 -515c-49 -246 -269 -427 -585 -427z" />
    <glyph glyph-name="Scaron" unicode="&#x160;" horiz-adv-x="1215" 
d="M1280 2052l-370 -292h-127l-261 292h190l146 -168l208 168h214zM529 -27c-273 0 -449 146 -522 342l204 141c80 -151 204 -228 353 -228c133 0 268 65 293 188c33 167 -174 277 -297 349c-157 92 -339 221 -284 489c47 227 270 387 534 387c218 0 385 -128 426 -295
l-206 -139c-29 114 -134 186 -257 186c-130 0 -229 -90 -247 -190c-26 -141 126 -208 266 -288c227 -133 369 -288 322 -515c-49 -246 -269 -427 -585 -427z" />
    <glyph glyph-name="Scaron" unicode="&#x161;" horiz-adv-x="1215" 
d="M1280 2052l-370 -292h-127l-261 292h190l146 -168l208 168h214zM529 -27c-273 0 -449 146 -522 342l204 141c80 -151 204 -228 353 -228c133 0 268 65 293 188c33 167 -174 277 -297 349c-157 92 -339 221 -284 489c47 227 270 387 534 387c218 0 385 -128 426 -295
l-206 -139c-29 114 -134 186 -257 186c-130 0 -229 -90 -247 -190c-26 -141 126 -208 266 -288c227 -133 369 -288 322 -515c-49 -246 -269 -427 -585 -427z" />
    <glyph glyph-name="Scedilla" unicode="&#x15e;" horiz-adv-x="1215" 
d="M792 915c227 -133 369 -288 322 -515c-47 -237 -254 -414 -552 -426l-80 -85c17 2 29 3 45 3c82 0 128 -61 112 -145c-28 -141 -212 -263 -441 -268l-33 156c195 5 286 45 297 105c6 32 -11 57 -73 57c-17 0 -39 -2 -62 -6l-26 44l137 144c-221 29 -366 163 -431 336
l204 141c80 -151 204 -228 353 -228c133 0 268 65 293 188c33 167 -174 277 -297 349c-157 92 -339 221 -284 489c47 227 270 387 534 387c218 0 385 -128 426 -295l-206 -139c-29 114 -134 186 -257 186c-130 0 -229 -90 -247 -190c-26 -141 126 -208 266 -288z" />
    <glyph glyph-name="Scedilla" unicode="&#x15f;" horiz-adv-x="1215" 
d="M792 915c227 -133 369 -288 322 -515c-47 -237 -254 -414 -552 -426l-80 -85c17 2 29 3 45 3c82 0 128 -61 112 -145c-28 -141 -212 -263 -441 -268l-33 156c195 5 286 45 297 105c6 32 -11 57 -73 57c-17 0 -39 -2 -62 -6l-26 44l137 144c-221 29 -366 163 -431 336
l204 141c80 -151 204 -228 353 -228c133 0 268 65 293 188c33 167 -174 277 -297 349c-157 92 -339 221 -284 489c47 227 270 387 534 387c218 0 385 -128 426 -295l-206 -139c-29 114 -134 186 -257 186c-130 0 -229 -90 -247 -190c-26 -141 126 -208 266 -288z" />
    <glyph glyph-name="uni0218" unicode="&#x218;" horiz-adv-x="1215" 
d="M529 -27c-273 0 -449 146 -522 342l204 141c80 -151 204 -228 353 -228c133 0 268 65 293 188c33 167 -174 277 -297 349c-157 92 -339 221 -284 489c47 227 270 387 534 387c218 0 385 -128 426 -295l-206 -139c-29 114 -134 186 -257 186c-130 0 -229 -90 -247 -190
c-26 -141 126 -208 266 -288c227 -133 369 -288 322 -515c-49 -246 -269 -427 -585 -427zM321 -549c-39 0 -59 19 -57 29c47 0 148 39 168 142c4 23 4 36 -4 50c-49 0 -99 35 -88 96c11 59 73 109 145 109c65 0 118 -51 97 -161c-29 -148 -148 -265 -261 -265z" />
    <glyph glyph-name="uni0218" unicode="&#x219;" horiz-adv-x="1215" 
d="M529 -27c-273 0 -449 146 -522 342l204 141c80 -151 204 -228 353 -228c133 0 268 65 293 188c33 167 -174 277 -297 349c-157 92 -339 221 -284 489c47 227 270 387 534 387c218 0 385 -128 426 -295l-206 -139c-29 114 -134 186 -257 186c-130 0 -229 -90 -247 -190
c-26 -141 126 -208 266 -288c227 -133 369 -288 322 -515c-49 -246 -269 -427 -585 -427zM321 -549c-39 0 -59 19 -57 29c47 0 148 39 168 142c4 23 4 36 -4 50c-49 0 -99 35 -88 96c11 59 73 109 145 109c65 0 118 -51 97 -161c-29 -148 -148 -265 -261 -265z" />
    <glyph glyph-name="uni1E9E" unicode="&#xdf;" horiz-adv-x="1718" 
d="M1357 990c193 -110 318 -283 287 -523c-39 -306 -297 -499 -599 -499c-240 0 -411 121 -495 310l183 156c65 -126 198 -211 352 -211c165 0 281 88 305 232c21 126 -35 249 -212 360c-91 56 -238 124 -328 147l351 377c-76 49 -173 72 -278 72
c-272 0 -381 -163 -418 -350l-206 -1061h-260l206 1061c67 345 302 584 743 584c252 0 423 -73 583 -199l-371 -391c47 -11 99 -32 157 -65z" />
    <glyph glyph-name="uni1E9E" unicode="&#x1e9e;" horiz-adv-x="1718" 
d="M1357 990c193 -110 318 -283 287 -523c-39 -306 -297 -499 -599 -499c-240 0 -411 121 -495 310l183 156c65 -126 198 -211 352 -211c165 0 281 88 305 232c21 126 -35 249 -212 360c-91 56 -238 124 -328 147l351 377c-76 49 -173 72 -278 72
c-272 0 -381 -163 -418 -350l-206 -1061h-260l206 1061c67 345 302 584 743 584c252 0 423 -73 583 -199l-371 -391c47 -11 99 -32 157 -65z" />
    <glyph glyph-name="uni018F" unicode="&#x18f;" horiz-adv-x="1711" 
d="M769 -12c-533 0 -719 430 -651 818c9 50 24 95 36 126h1270c-3 249 -181 437 -437 437c-95 0 -234 -26 -330 -85l-98 213c145 86 351 127 486 127c385 1 700 -318 627 -820c-66 -456 -414 -816 -903 -816zM807 243c243 0 467 161 568 434h-1012c7 -235 176 -434 444 -434
z" />
    <glyph glyph-name="uni018F" unicode="&#x259;" horiz-adv-x="1711" 
d="M769 -12c-533 0 -719 430 -651 818c9 50 24 95 36 126h1270c-3 249 -181 437 -437 437c-95 0 -234 -26 -330 -85l-98 213c145 86 351 127 486 127c385 1 700 -318 627 -820c-66 -456 -414 -816 -903 -816zM807 243c243 0 467 161 568 434h-1012c7 -235 176 -434 444 -434
z" />
    <glyph glyph-name="T" unicode="T" horiz-adv-x="1164" 
d="M1314 1612l-49 -251h-404l-265 -1361h-260l265 1361h-406l49 251h1070z" />
    <glyph glyph-name="T" unicode="t" horiz-adv-x="1164" 
d="M1314 1612l-49 -251h-404l-265 -1361h-260l265 1361h-406l49 251h1070z" />
    <glyph glyph-name="Tbar" unicode="&#x166;" horiz-adv-x="1164" 
d="M1265 1361h-404l-90 -464h256l-35 -182h-257l-139 -715h-260l139 715h-257l35 182h258l90 464h-406l49 251h1070z" />
    <glyph glyph-name="Tbar" unicode="&#x167;" horiz-adv-x="1164" 
d="M1265 1361h-404l-90 -464h256l-35 -182h-257l-139 -715h-260l139 715h-257l35 182h258l90 464h-406l49 251h1070z" />
    <glyph glyph-name="Tcaron" unicode="&#x164;" horiz-adv-x="1164" 
d="M873 1760h-127l-261 292h190l146 -168l208 168h214zM1314 1612l-49 -251h-404l-265 -1361h-260l265 1361h-406l49 251h1070z" />
    <glyph glyph-name="Tcaron" unicode="&#x165;" horiz-adv-x="1164" 
d="M873 1760h-127l-261 292h190l146 -168l208 168h214zM1314 1612l-49 -251h-404l-265 -1361h-260l265 1361h-406l49 251h1070z" />
    <glyph glyph-name="uni0162" unicode="&#x162;" horiz-adv-x="1164" 
d="M596 0h-45l-105 -111c17 2 29 3 45 3c82 0 128 -61 112 -145c-28 -141 -212 -263 -441 -268l-33 156c195 5 286 45 297 105c6 32 -11 57 -73 57c-17 0 -39 -2 -62 -6l-26 44l157 165h-86l265 1361h-406l49 251h1070l-49 -251h-404z" />
    <glyph glyph-name="uni0162" unicode="&#x163;" horiz-adv-x="1164" 
d="M596 0h-45l-105 -111c17 2 29 3 45 3c82 0 128 -61 112 -145c-28 -141 -212 -263 -441 -268l-33 156c195 5 286 45 297 105c6 32 -11 57 -73 57c-17 0 -39 -2 -62 -6l-26 44l157 165h-86l265 1361h-406l49 251h1070l-49 -251h-404z" />
    <glyph glyph-name="uni021A" unicode="&#x21a;" horiz-adv-x="1164" 
d="M1314 1612l-49 -251h-404l-265 -1361h-260l265 1361h-406l49 251h1070zM450 -123c65 0 118 -51 97 -161c-29 -148 -148 -265 -261 -265c-39 0 -59 19 -57 29c47 0 148 39 168 142c4 23 4 36 -4 50c-49 0 -99 35 -88 96c11 59 73 109 145 109z" />
    <glyph glyph-name="uni021A" unicode="&#x21b;" horiz-adv-x="1164" 
d="M1314 1612l-49 -251h-404l-265 -1361h-260l265 1361h-406l49 251h1070zM450 -123c65 0 118 -51 97 -161c-29 -148 -148 -265 -261 -265c-39 0 -59 19 -57 29c47 0 148 39 168 142c4 23 4 36 -4 50c-49 0 -99 35 -88 96c11 59 73 109 145 109z" />
    <glyph glyph-name="U" unicode="U" horiz-adv-x="1455" 
d="M632 -30c-360 0 -557 293 -486 661l191 981h260l-190 -980c-45 -233 68 -406 266 -406c183 0 337 138 389 406l190 980h260l-190 -981c-84 -432 -362 -661 -690 -661z" />
    <glyph glyph-name="U" unicode="u" horiz-adv-x="1455" 
d="M632 -30c-360 0 -557 293 -486 661l191 981h260l-190 -980c-45 -233 68 -406 266 -406c183 0 337 138 389 406l190 980h260l-190 -981c-84 -432 -362 -661 -690 -661z" />
    <glyph glyph-name="Uacute" unicode="&#xda;" horiz-adv-x="1455" 
d="M923 1745h-183l262 327h222zM632 -30c-360 0 -557 293 -486 661l191 981h260l-190 -980c-45 -233 68 -406 266 -406c183 0 337 138 389 406l190 980h260l-190 -981c-84 -432 -362 -661 -690 -661z" />
    <glyph glyph-name="Uacute" unicode="&#xfa;" horiz-adv-x="1455" 
d="M923 1745h-183l262 327h222zM632 -30c-360 0 -557 293 -486 661l191 981h260l-190 -980c-45 -233 68 -406 266 -406c183 0 337 138 389 406l190 980h260l-190 -981c-84 -432 -362 -661 -690 -661z" />
    <glyph glyph-name="Ucircumflex" unicode="&#xdb;" horiz-adv-x="1455" 
d="M575 1760l370 292h126l261 -292h-190l-145 168l-208 -168h-214zM632 -30c-360 0 -557 293 -486 661l191 981h260l-190 -980c-45 -233 68 -406 266 -406c183 0 337 138 389 406l190 980h260l-190 -981c-84 -432 -362 -661 -690 -661z" />
    <glyph glyph-name="Ucircumflex" unicode="&#xfb;" horiz-adv-x="1455" 
d="M575 1760l370 292h126l261 -292h-190l-145 168l-208 -168h-214zM632 -30c-360 0 -557 293 -486 661l191 981h260l-190 -980c-45 -233 68 -406 266 -406c183 0 337 138 389 406l190 980h260l-190 -981c-84 -432 -362 -661 -690 -661z" />
    <glyph glyph-name="Udieresis" unicode="&#xdc;" horiz-adv-x="1455" 
d="M736 1794c-57 0 -97 47 -85 104c11 57 68 106 125 106s96 -49 85 -106c-12 -57 -68 -104 -125 -104zM1184 1794c-57 0 -96 47 -84 104c11 57 68 106 124 106c58 0 97 -49 86 -106c-12 -57 -68 -104 -126 -104zM632 -30c-360 0 -557 293 -486 661l191 981h260l-190 -980
c-45 -233 68 -406 266 -406c183 0 337 138 389 406l190 980h260l-190 -981c-84 -432 -362 -661 -690 -661z" />
    <glyph glyph-name="Udieresis" unicode="&#xfc;" horiz-adv-x="1455" 
d="M736 1794c-57 0 -97 47 -85 104c11 57 68 106 125 106s96 -49 85 -106c-12 -57 -68 -104 -125 -104zM1184 1794c-57 0 -96 47 -84 104c11 57 68 106 124 106c58 0 97 -49 86 -106c-12 -57 -68 -104 -126 -104zM632 -30c-360 0 -557 293 -486 661l191 981h260l-190 -980
c-45 -233 68 -406 266 -406c183 0 337 138 389 406l190 980h260l-190 -981c-84 -432 -362 -661 -690 -661z" />
    <glyph glyph-name="Ugrave" unicode="&#xd9;" horiz-adv-x="1455" 
d="M925 1745l-174 327h223l134 -327h-183zM632 -30c-360 0 -557 293 -486 661l191 981h260l-190 -980c-45 -233 68 -406 266 -406c183 0 337 138 389 406l190 980h260l-190 -981c-84 -432 -362 -661 -690 -661z" />
    <glyph glyph-name="Ugrave" unicode="&#xf9;" horiz-adv-x="1455" 
d="M925 1745l-174 327h223l134 -327h-183zM632 -30c-360 0 -557 293 -486 661l191 981h260l-190 -980c-45 -233 68 -406 266 -406c183 0 337 138 389 406l190 980h260l-190 -981c-84 -432 -362 -661 -690 -661z" />
    <glyph glyph-name="Uhungarumlaut" unicode="&#x170;" horiz-adv-x="1455" 
d="M623 1743l219 327h199l-258 -327h-160zM938 1743l274 327h214l-320 -327h-168zM632 -30c-360 0 -557 293 -486 661l191 981h260l-190 -980c-45 -233 68 -406 266 -406c183 0 337 138 389 406l190 980h260l-190 -981c-84 -432 -362 -661 -690 -661z" />
    <glyph glyph-name="Uhungarumlaut" unicode="&#x171;" horiz-adv-x="1455" 
d="M623 1743l219 327h199l-258 -327h-160zM938 1743l274 327h214l-320 -327h-168zM632 -30c-360 0 -557 293 -486 661l191 981h260l-190 -980c-45 -233 68 -406 266 -406c183 0 337 138 389 406l190 980h260l-190 -981c-84 -432 -362 -661 -690 -661z" />
    <glyph glyph-name="Umacron" unicode="&#x16a;" horiz-adv-x="1455" 
d="M678 1813l26 132h572l-26 -132h-572zM632 -30c-360 0 -557 293 -486 661l191 981h260l-190 -980c-45 -233 68 -406 266 -406c183 0 337 138 389 406l190 980h260l-190 -981c-84 -432 -362 -661 -690 -661z" />
    <glyph glyph-name="Umacron" unicode="&#x16b;" horiz-adv-x="1455" 
d="M678 1813l26 132h572l-26 -132h-572zM632 -30c-360 0 -557 293 -486 661l191 981h260l-190 -980c-45 -233 68 -406 266 -406c183 0 337 138 389 406l190 980h260l-190 -981c-84 -432 -362 -661 -690 -661z" />
    <glyph glyph-name="Uogonek" unicode="&#x172;" horiz-adv-x="1455" 
d="M1252 1612h260l-190 -981c-76 -391 -311 -615 -597 -655c-116 -77 -190 -143 -195 -220c-3 -29 6 -96 96 -96c20 0 61 4 106 14l31 -174c-58 -13 -111 -19 -156 -19c-168 0 -264 82 -259 217c5 118 86 217 188 279c-298 48 -454 320 -390 654l191 981h260l-190 -980
c-45 -233 68 -406 266 -406c183 0 337 138 389 406z" />
    <glyph glyph-name="Uogonek" unicode="&#x173;" horiz-adv-x="1455" 
d="M1252 1612h260l-190 -981c-76 -391 -311 -615 -597 -655c-116 -77 -190 -143 -195 -220c-3 -29 6 -96 96 -96c20 0 61 4 106 14l31 -174c-58 -13 -111 -19 -156 -19c-168 0 -264 82 -259 217c5 118 86 217 188 279c-298 48 -454 320 -390 654l191 981h260l-190 -980
c-45 -233 68 -406 266 -406c183 0 337 138 389 406z" />
    <glyph glyph-name="Uring" unicode="&#x16e;" horiz-adv-x="1455" 
d="M950 1714c-123 0 -199 95 -179 215c21 121 130 215 254 215c116 0 197 -89 175 -215c-20 -118 -127 -215 -250 -215zM967 1822c59 0 114 45 125 106c12 60 -26 107 -87 107c-59 0 -114 -44 -126 -107c-11 -60 27 -106 88 -106zM632 -30c-360 0 -557 293 -486 661l191 981
h260l-190 -980c-45 -233 68 -406 266 -406c183 0 337 138 389 406l190 980h260l-190 -981c-84 -432 -362 -661 -690 -661z" />
    <glyph glyph-name="Uring" unicode="&#x16f;" horiz-adv-x="1455" 
d="M950 1714c-123 0 -199 95 -179 215c21 121 130 215 254 215c116 0 197 -89 175 -215c-20 -118 -127 -215 -250 -215zM967 1822c59 0 114 45 125 106c12 60 -26 107 -87 107c-59 0 -114 -44 -126 -107c-11 -60 27 -106 88 -106zM632 -30c-360 0 -557 293 -486 661l191 981
h260l-190 -980c-45 -233 68 -406 266 -406c183 0 337 138 389 406l190 980h260l-190 -981c-84 -432 -362 -661 -690 -661z" />
    <glyph glyph-name="V" unicode="V" horiz-adv-x="1489" 
d="M1360 1612h302l-1025 -1645h-33l-384 1645h266l232 -1075z" />
    <glyph glyph-name="V" unicode="v" horiz-adv-x="1489" 
d="M1360 1612h302l-1025 -1645h-33l-384 1645h266l232 -1075z" />
    <glyph glyph-name="W" unicode="W" horiz-adv-x="1859" 
d="M392 -15l-172 1627h255l88 -995l529 927h12l169 -926l470 994h290l-804 -1627h-32l-201 972l-572 -972h-32z" />
    <glyph glyph-name="W" unicode="w" horiz-adv-x="1859" 
d="M392 -15l-172 1627h255l88 -995l529 927h12l169 -926l470 994h290l-804 -1627h-32l-201 972l-572 -972h-32z" />
    <glyph glyph-name="Wacute" unicode="&#x1e82;" horiz-adv-x="1859" 
d="M1125 1745h-183l262 327h222zM392 -15l-172 1627h255l88 -995l529 927h12l169 -926l470 994h290l-804 -1627h-32l-201 972l-572 -972h-32z" />
    <glyph glyph-name="Wacute" unicode="&#x1e83;" horiz-adv-x="1859" 
d="M1125 1745h-183l262 327h222zM392 -15l-172 1627h255l88 -995l529 927h12l169 -926l470 994h290l-804 -1627h-32l-201 972l-572 -972h-32z" />
    <glyph glyph-name="Wcircumflex" unicode="&#x174;" horiz-adv-x="1859" 
d="M777 1760l370 292h126l261 -292h-190l-145 168l-208 -168h-214zM392 -15l-172 1627h255l88 -995l529 927h12l169 -926l470 994h290l-804 -1627h-32l-201 972l-572 -972h-32z" />
    <glyph glyph-name="Wcircumflex" unicode="&#x175;" horiz-adv-x="1859" 
d="M777 1760l370 292h126l261 -292h-190l-145 168l-208 -168h-214zM392 -15l-172 1627h255l88 -995l529 927h12l169 -926l470 994h290l-804 -1627h-32l-201 972l-572 -972h-32z" />
    <glyph glyph-name="Wdieresis" unicode="&#x1e84;" horiz-adv-x="1859" 
d="M938 1794c-57 0 -97 47 -85 104c11 57 68 106 125 106s96 -49 85 -106c-12 -57 -68 -104 -125 -104zM1386 1794c-57 0 -96 47 -84 104c11 57 68 106 124 106c58 0 97 -49 86 -106c-12 -57 -68 -104 -126 -104zM392 -15l-172 1627h255l88 -995l529 927h12l169 -926
l470 994h290l-804 -1627h-32l-201 972l-572 -972h-32z" />
    <glyph glyph-name="Wdieresis" unicode="&#x1e85;" horiz-adv-x="1859" 
d="M938 1794c-57 0 -97 47 -85 104c11 57 68 106 125 106s96 -49 85 -106c-12 -57 -68 -104 -125 -104zM1386 1794c-57 0 -96 47 -84 104c11 57 68 106 124 106c58 0 97 -49 86 -106c-12 -57 -68 -104 -126 -104zM392 -15l-172 1627h255l88 -995l529 927h12l169 -926
l470 994h290l-804 -1627h-32l-201 972l-572 -972h-32z" />
    <glyph glyph-name="Wgrave" unicode="&#x1e80;" horiz-adv-x="1859" 
d="M1127 1745l-174 327h223l134 -327h-183zM392 -15l-172 1627h255l88 -995l529 927h12l169 -926l470 994h290l-804 -1627h-32l-201 972l-572 -972h-32z" />
    <glyph glyph-name="Wgrave" unicode="&#x1e81;" horiz-adv-x="1859" 
d="M1127 1745l-174 327h223l134 -327h-183zM392 -15l-172 1627h255l88 -995l529 927h12l169 -926l470 994h290l-804 -1627h-32l-201 972l-572 -972h-32z" />
    <glyph glyph-name="X" unicode="X" horiz-adv-x="1348" 
d="M-94 0l671 858l-302 754h273l213 -559l428 559h321l-626 -794l323 -818h-271l-236 614l-476 -614h-318z" />
    <glyph glyph-name="X" unicode="x" horiz-adv-x="1348" 
d="M-94 0l671 858l-302 754h273l213 -559l428 559h321l-626 -794l323 -818h-271l-236 614l-476 -614h-318z" />
    <glyph glyph-name="Y" unicode="Y" horiz-adv-x="1311" 
d="M410 0l133 689l-323 923h271l220 -643l466 643h307l-682 -923l-134 -689h-258z" />
    <glyph glyph-name="Y" unicode="y" horiz-adv-x="1311" 
d="M410 0l133 689l-323 923h271l220 -643l466 643h307l-682 -923l-134 -689h-258z" />
    <glyph glyph-name="Yacute" unicode="&#xdd;" horiz-adv-x="1311" 
d="M851 1745h-183l262 327h222zM410 0l133 689l-323 923h271l220 -643l466 643h307l-682 -923l-134 -689h-258z" />
    <glyph glyph-name="Yacute" unicode="&#xfd;" horiz-adv-x="1311" 
d="M851 1745h-183l262 327h222zM410 0l133 689l-323 923h271l220 -643l466 643h307l-682 -923l-134 -689h-258z" />
    <glyph glyph-name="Ycircumflex" unicode="&#x176;" horiz-adv-x="1311" 
d="M503 1760l370 292h126l261 -292h-190l-145 168l-208 -168h-214zM410 0l133 689l-323 923h271l220 -643l466 643h307l-682 -923l-134 -689h-258z" />
    <glyph glyph-name="Ycircumflex" unicode="&#x177;" horiz-adv-x="1311" 
d="M503 1760l370 292h126l261 -292h-190l-145 168l-208 -168h-214zM410 0l133 689l-323 923h271l220 -643l466 643h307l-682 -923l-134 -689h-258z" />
    <glyph glyph-name="Ydieresis" unicode="&#xff;" horiz-adv-x="1311" 
d="M664 1794c-57 0 -97 47 -85 104c11 57 68 106 125 106s96 -49 85 -106c-12 -57 -68 -104 -125 -104zM1112 1794c-57 0 -96 47 -84 104c11 57 68 106 124 106c58 0 97 -49 86 -106c-12 -57 -68 -104 -126 -104zM410 0l133 689l-323 923h271l220 -643l466 643h307
l-682 -923l-134 -689h-258z" />
    <glyph glyph-name="Ydieresis" unicode="&#x178;" horiz-adv-x="1311" 
d="M664 1794c-57 0 -97 47 -85 104c11 57 68 106 125 106s96 -49 85 -106c-12 -57 -68 -104 -125 -104zM1112 1794c-57 0 -96 47 -84 104c11 57 68 106 124 106c58 0 97 -49 86 -106c-12 -57 -68 -104 -126 -104zM410 0l133 689l-323 923h271l220 -643l466 643h307
l-682 -923l-134 -689h-258z" />
    <glyph glyph-name="Ygrave" unicode="&#x1ef2;" horiz-adv-x="1311" 
d="M853 1745l-174 327h223l134 -327h-183zM410 0l133 689l-323 923h271l220 -643l466 643h307l-682 -923l-134 -689h-258z" />
    <glyph glyph-name="Ygrave" unicode="&#x1ef3;" horiz-adv-x="1311" 
d="M853 1745l-174 327h223l134 -327h-183zM410 0l133 689l-323 923h271l220 -643l466 643h307l-682 -923l-134 -689h-258z" />
    <glyph glyph-name="Z" unicode="Z" horiz-adv-x="1272" 
d="M-23 0l939 1361h-674l48 251h1085l-937 -1360h674l-50 -252h-1085z" />
    <glyph glyph-name="Z" unicode="z" horiz-adv-x="1272" 
d="M-23 0l939 1361h-674l48 251h1085l-937 -1360h674l-50 -252h-1085z" />
    <glyph glyph-name="Zacute" unicode="&#x179;" horiz-adv-x="1272" 
d="M831 1745h-183l262 327h222zM-23 0l939 1361h-674l48 251h1085l-937 -1360h674l-50 -252h-1085z" />
    <glyph glyph-name="Zacute" unicode="&#x17a;" horiz-adv-x="1272" 
d="M831 1745h-183l262 327h222zM-23 0l939 1361h-674l48 251h1085l-937 -1360h674l-50 -252h-1085z" />
    <glyph glyph-name="Zcaron" unicode="&#x17d;" horiz-adv-x="1272" 
d="M1297 2052l-370 -292h-127l-261 292h190l146 -168l208 168h214zM-23 0l939 1361h-674l48 251h1085l-937 -1360h674l-50 -252h-1085z" />
    <glyph glyph-name="Zcaron" unicode="&#x17e;" horiz-adv-x="1272" 
d="M1297 2052l-370 -292h-127l-261 292h190l146 -168l208 168h214zM-23 0l939 1361h-674l48 251h1085l-937 -1360h674l-50 -252h-1085z" />
    <glyph glyph-name="Zdotaccent" unicode="&#x17b;" horiz-adv-x="1272" 
d="M868 1794c-67 0 -110 54 -97 119c12 65 77 121 143 121c65 0 109 -56 97 -121c-13 -66 -78 -119 -143 -119zM-23 0l939 1361h-674l48 251h1085l-937 -1360h674l-50 -252h-1085z" />
    <glyph glyph-name="Zdotaccent" unicode="&#x17c;" horiz-adv-x="1272" 
d="M868 1794c-67 0 -110 54 -97 119c12 65 77 121 143 121c65 0 109 -56 97 -121c-13 -66 -78 -119 -143 -119zM-23 0l939 1361h-674l48 251h1085l-937 -1360h674l-50 -252h-1085z" />
    <glyph glyph-name="i" unicode="i" horiz-adv-x="571" 
d="M39 0l313 1612h260l-313 -1612h-260z" />
    <glyph glyph-name="dotlessi" unicode="&#x131;" horiz-adv-x="571" 
d="M39 0l313 1612h260l-313 -1612h-260z" />
    <glyph glyph-name="i.loclTRK" horiz-adv-x="571" 
d="M518 1794c-67 0 -110 54 -97 119c12 65 77 121 143 121c65 0 109 -56 97 -121c-13 -66 -78 -119 -143 -119zM39 0l313 1612h260l-313 -1612h-260z" />
    <glyph glyph-name="zero" unicode="0" horiz-adv-x="1395" 
d="M597 -30c-367 20 -552 370 -478 835c74 474 383 844 758 828c331 -13 556 -320 477 -835c-73 -478 -366 -848 -757 -828zM633 231c220 -4 404 240 461 568c59 333 -42 571 -256 575c-220 4 -401 -239 -460 -570s41 -569 255 -573z" />
    <glyph glyph-name="zero.lf" horiz-adv-x="1395" 
d="M597 -30c-367 20 -552 370 -478 835c74 474 383 844 758 828c331 -13 556 -320 477 -835c-73 -478 -366 -848 -757 -828zM633 231c220 -4 404 240 461 568c59 333 -42 571 -256 575c-220 4 -401 -239 -460 -570s41 -569 255 -573z" />
    <glyph glyph-name="zero.tf" horiz-adv-x="1416" 
d="M608 -30c-367 20 -552 370 -479 835c75 474 384 844 759 828c331 -13 556 -320 477 -835c-74 -478 -366 -848 -757 -828zM644 231c220 -4 403 240 461 568c58 333 -42 571 -257 575c-219 4 -401 -239 -459 -570c-59 -331 40 -569 255 -573z" />
    <glyph glyph-name="one" unicode="1" horiz-adv-x="693" 
d="M666 1627h71l-316 -1627h-260l252 1300l-212 -63l52 264z" />
    <glyph glyph-name="one.lf" horiz-adv-x="693" 
d="M666 1627h71l-316 -1627h-260l252 1300l-212 -63l52 264z" />
    <glyph glyph-name="one.tf" horiz-adv-x="1416" 
d="M771 235h295l-46 -235h-857l46 235h302l207 1065l-213 -63l52 264l413 126h71z" />
    <glyph glyph-name="two" unicode="2" horiz-adv-x="1332" 
d="M1321 1079c-46 -269 -313 -603 -759 -827h624l-49 -252h-1175l10 55c737 514 1039 754 1081 1011c29 173 -69 317 -254 317c-167 0 -332 -120 -371 -337l-209 57c60 343 299 533 607 533c376 0 541 -283 495 -557z" />
    <glyph glyph-name="two.lf" horiz-adv-x="1332" 
d="M1321 1079c-46 -269 -313 -603 -759 -827h624l-49 -252h-1175l10 55c737 514 1039 754 1081 1011c29 173 -69 317 -254 317c-167 0 -332 -120 -371 -337l-209 57c60 343 299 533 607 533c376 0 541 -283 495 -557z" />
    <glyph glyph-name="two.tf" horiz-adv-x="1416" 
d="M1363 1079c-45 -269 -312 -603 -759 -827h625l-49 -252h-1176l10 55c737 514 1040 754 1082 1011c28 173 -70 317 -254 317c-167 0 -333 -120 -372 -337l-209 57c60 343 299 533 607 533c376 0 541 -283 495 -557z" />
    <glyph glyph-name="three" unicode="3" horiz-adv-x="1213" 
d="M1178 1224c-28 -153 -144 -280 -271 -328c143 -63 243 -209 203 -428c-51 -278 -291 -483 -582 -483c-295 0 -480 208 -492 399l248 63c7 -119 116 -212 264 -212c154 0 279 104 304 251c34 199 -138 332 -390 331l67 147c205 1 358 100 385 240c22 119 -60 206 -183 206
c-95 0 -190 -53 -227 -168l-222 54c69 230 275 362 492 362c262 0 448 -194 404 -434z" />
    <glyph glyph-name="three.lf" horiz-adv-x="1213" 
d="M1178 1224c-28 -153 -144 -280 -271 -328c143 -63 243 -209 203 -428c-51 -278 -291 -483 -582 -483c-295 0 -480 208 -492 399l248 63c7 -119 116 -212 264 -212c154 0 279 104 304 251c34 199 -138 332 -390 331l67 147c205 1 358 100 385 240c22 119 -60 206 -183 206
c-95 0 -190 -53 -227 -168l-222 54c69 230 275 362 492 362c262 0 448 -194 404 -434z" />
    <glyph glyph-name="three.tf" horiz-adv-x="1416" 
d="M1280 1224c-28 -153 -144 -280 -271 -328c143 -63 243 -209 203 -428c-51 -278 -291 -483 -582 -483c-295 0 -480 208 -492 399l248 63c7 -119 116 -212 264 -212c154 0 279 104 304 251c34 199 -138 332 -390 331l67 147c205 1 358 100 385 240c22 119 -60 206 -183 206
c-95 0 -190 -53 -227 -168l-222 54c69 230 275 362 492 362c262 0 448 -194 404 -434z" />
    <glyph glyph-name="four" unicode="4" horiz-adv-x="1319" 
d="M1272 598l-49 -252h-169l-67 -346h-260l67 346h-820l815 1271l287 -1l-658 -1018h425l101 518h260l-101 -518h169z" />
    <glyph glyph-name="four.lf" horiz-adv-x="1319" 
d="M1272 598l-49 -252h-169l-67 -346h-260l67 346h-820l815 1271l287 -1l-658 -1018h425l101 518h260l-101 -518h169z" />
    <glyph glyph-name="four.tf" horiz-adv-x="1416" 
d="M1298 598l-49 -252h-168l-67 -346h-260l67 346h-820l814 1271l288 -1l-659 -1018h426l101 518h260l-101 -518h168z" />
    <glyph glyph-name="five" unicode="5" horiz-adv-x="1248" 
d="M1183 1361h-609l-112 -329c76 62 164 92 267 92c296 0 477 -239 432 -565c-45 -333 -297 -573 -630 -573c-247 0 -452 131 -507 340l254 79c36 -100 147 -167 279 -167c184 0 316 133 344 321c29 198 -78 320 -270 320c-120 0 -225 -58 -308 -189l-160 85l277 838h792z
" />
    <glyph glyph-name="five.lf" horiz-adv-x="1248" 
d="M1183 1361h-609l-112 -329c76 62 164 92 267 92c296 0 477 -239 432 -565c-45 -333 -297 -573 -630 -573c-247 0 -452 131 -507 340l254 79c36 -100 147 -167 279 -167c184 0 316 133 344 321c29 198 -78 320 -270 320c-120 0 -225 -58 -308 -189l-160 85l277 838h792z
" />
    <glyph glyph-name="five.tf" horiz-adv-x="1416" 
d="M1267 1361h-609l-111 -328c76 62 165 91 266 91c296 0 477 -239 432 -565c-45 -333 -296 -573 -629 -573c-247 0 -452 131 -507 340l254 79c36 -100 147 -167 278 -167c184 0 316 133 344 321c30 198 -78 320 -270 320c-120 0 -225 -58 -308 -189l-159 85l277 838h791z
" />
    <glyph glyph-name="six" unicode="6" horiz-adv-x="1236" 
d="M744 1033c243 0 436 -198 397 -514c-39 -319 -297 -540 -595 -540c-331 0 -539 279 -473 597c66 254 169 353 726 1036h294l-479 -603c44 18 86 24 130 24zM888 529c27 181 -78 310 -240 310c-178 0 -302 -153 -323 -304c-24 -162 73 -304 253 -304
c179 0 288 145 310 298z" />
    <glyph glyph-name="six.lf" horiz-adv-x="1236" 
d="M744 1033c243 0 436 -198 397 -514c-39 -319 -297 -540 -595 -540c-331 0 -539 279 -473 597c66 254 169 353 726 1036h294l-479 -603c44 18 86 24 130 24zM888 529c27 181 -78 310 -240 310c-178 0 -302 -153 -323 -304c-24 -162 73 -304 253 -304
c179 0 288 145 310 298z" />
    <glyph glyph-name="six.tf" horiz-adv-x="1416" 
d="M834 1033c243 0 436 -198 397 -514c-39 -319 -297 -540 -595 -540c-331 0 -539 279 -473 597c66 254 169 353 726 1036h294l-479 -603c44 18 86 24 130 24zM978 529c27 181 -78 310 -240 310c-178 0 -302 -153 -323 -304c-24 -162 73 -304 253 -304
c179 0 288 145 310 298z" />
    <glyph glyph-name="seven" unicode="7" horiz-adv-x="1121" 
d="M244 1612h1049l-8 -47l-919 -1565h-292l792 1365h-671z" />
    <glyph glyph-name="seven.lf" horiz-adv-x="1121" 
d="M244 1612h1049l-8 -47l-919 -1565h-292l792 1365h-671z" />
    <glyph glyph-name="seven.tf" horiz-adv-x="1416" 
d="M380 1612h1049l-8 -47l-918 -1565h-293l792 1365h-670z" />
    <glyph glyph-name="eight" unicode="8" horiz-adv-x="1234" 
d="M525 -26c-329 0 -516 233 -470 508c37 228 220 406 400 428c-124 31 -199 164 -173 324c36 220 244 405 514 405s438 -184 402 -410c-24 -153 -138 -284 -304 -319c147 -35 266 -210 238 -431c-35 -270 -275 -505 -607 -505zM711 1023c118 0 217 75 235 187
c20 119 -64 194 -183 194c-117 0 -216 -73 -235 -186c-20 -123 67 -195 183 -195zM562 226c167 0 293 117 315 269c22 157 -79 275 -238 275c-166 0 -300 -131 -324 -274c-25 -146 75 -270 247 -270z" />
    <glyph glyph-name="eight.lf" horiz-adv-x="1234" 
d="M525 -26c-329 0 -516 233 -470 508c37 228 220 406 400 428c-124 31 -199 164 -173 324c36 220 244 405 514 405s438 -184 402 -410c-24 -153 -138 -284 -304 -319c147 -35 266 -210 238 -431c-35 -270 -275 -505 -607 -505zM711 1023c118 0 217 75 235 187
c20 119 -64 194 -183 194c-117 0 -216 -73 -235 -186c-20 -123 67 -195 183 -195zM562 226c167 0 293 117 315 269c22 157 -79 275 -238 275c-166 0 -300 -131 -324 -274c-25 -146 75 -270 247 -270z" />
    <glyph glyph-name="eight.tf" horiz-adv-x="1416" 
d="M616 -26c-329 0 -516 233 -470 508c37 228 220 406 400 428c-124 31 -199 164 -173 324c36 220 244 405 514 405s438 -184 402 -410c-24 -153 -138 -284 -304 -319c147 -35 266 -210 238 -431c-35 -270 -275 -505 -607 -505zM802 1023c118 0 217 75 235 187
c20 119 -64 194 -183 194c-117 0 -216 -73 -235 -186c-20 -123 67 -195 183 -195zM653 226c167 0 293 117 315 269c22 157 -79 275 -238 275c-166 0 -300 -131 -324 -274c-25 -146 75 -270 247 -270z" />
    <glyph glyph-name="nine" unicode="9" horiz-adv-x="1238" 
d="M771 1632c330 0 554 -283 472 -597c-65 -254 -169 -352 -726 -1035h-292l478 602c-44 -17 -86 -24 -131 -24c-243 0 -436 198 -397 513c39 320 297 541 596 541zM991 1076c24 162 -73 304 -252 304c-180 0 -289 -146 -311 -298c-26 -181 78 -310 241 -310
c178 0 301 153 322 304z" />
    <glyph glyph-name="nine.lf" horiz-adv-x="1238" 
d="M771 1632c330 0 554 -283 472 -597c-65 -254 -169 -352 -726 -1035h-292l478 602c-44 -17 -86 -24 -131 -24c-243 0 -436 198 -397 513c39 320 297 541 596 541zM991 1076c24 162 -73 304 -252 304c-180 0 -289 -146 -311 -298c-26 -181 78 -310 241 -310
c178 0 301 153 322 304z" />
    <glyph glyph-name="nine.tf" horiz-adv-x="1416" 
d="M858 1632c330 0 554 -283 472 -597c-65 -254 -169 -352 -726 -1035h-292l478 602c-44 -17 -86 -24 -131 -24c-243 0 -436 198 -397 513c39 320 297 541 596 541zM1078 1076c24 162 -73 304 -252 304c-180 0 -289 -146 -311 -298c-26 -181 78 -310 241 -310
c178 0 301 153 322 304z" />
    <glyph glyph-name="period" unicode="." horiz-adv-x="556" 
d="M155 -46c-92 0 -148 73 -131 169c17 95 100 170 191 170s149 -74 132 -170c-17 -94 -98 -169 -192 -169z" />
    <glyph glyph-name="comma" unicode="," horiz-adv-x="601" 
d="M30 -369c-59 0 -91 30 -89 47c67 0 185 59 216 204c8 34 6 60 -1 77c-60 0 -133 47 -115 157c18 108 108 177 196 177c97 0 167 -85 138 -255c-36 -210 -195 -407 -345 -407z" />
    <glyph glyph-name="colon" unicode=":" horiz-adv-x="557" 
d="M315 774c-92 0 -148 73 -131 169c17 95 100 170 191 170s149 -74 132 -170c-17 -94 -98 -169 -192 -169zM163 -1c-92 0 -148 73 -131 169c18 96 100 170 192 170c90 0 149 -74 131 -170c-16 -93 -97 -169 -192 -169z" />
    <glyph glyph-name="semicolon" unicode=";" horiz-adv-x="601" 
d="M343 774c-92 0 -148 73 -131 169c18 95 100 170 192 170c90 0 149 -74 131 -170c-16 -94 -97 -169 -192 -169zM30 -369c-59 0 -91 30 -89 47c67 0 185 59 216 204c8 34 6 60 -1 77c-60 0 -133 47 -115 157c18 108 108 177 196 177c97 0 167 -85 138 -255
c-36 -210 -195 -407 -345 -407z" />
    <glyph glyph-name="ellipsis" unicode="&#x2026;" horiz-adv-x="2055" 
d="M239 -46c-93 0 -148 73 -131 169c17 95 100 170 191 170s149 -74 132 -170c-17 -94 -98 -169 -192 -169zM896 -46c-92 0 -148 73 -131 169c17 95 100 170 191 170s149 -74 132 -170c-16 -94 -98 -169 -192 -169zM1554 -46c-93 0 -148 73 -131 169c17 95 100 170 191 170
s149 -74 132 -170c-17 -94 -98 -169 -192 -169z" />
    <glyph glyph-name="exclam" unicode="!" horiz-adv-x="633" 
d="M192 512l176 1100h285l-251 -1100h-210zM193 -49c-92 0 -148 73 -131 169c17 95 100 169 191 169s149 -74 132 -169c-17 -94 -98 -169 -192 -169z" />
    <glyph glyph-name="exclamdown" unicode="&#xa1;" horiz-adv-x="633" 
d="M433 1211c92 0 148 -72 131 -168s-100 -170 -191 -170s-149 74 -132 170c17 93 98 168 192 168zM434 650l-176 -1100h-285l251 1100h210z" />
    <glyph glyph-name="question" unicode="?" horiz-adv-x="1029" 
d="M321 510c2 8 3 15 6 29c71 354 473 463 509 658c25 135 -70 223 -216 223c-131 0 -263 -73 -328 -163l-48 201c96 118 264 207 438 207c264 0 429 -232 388 -452c-68 -372 -424 -306 -505 -661c-4 -17 -6 -28 -7 -41zM335 -49c-91 0 -148 73 -131 169
c18 95 101 169 191 169c92 0 150 -74 132 -169c-16 -94 -98 -169 -192 -169z" />
    <glyph glyph-name="questiondown" unicode="&#xbf;" horiz-adv-x="1029" 
d="M692 1239c92 0 148 -73 131 -169c-17 -95 -100 -169 -191 -169s-149 74 -132 169c17 94 98 169 192 169zM706 680c-1 -8 -3 -15 -6 -29c-71 -354 -472 -463 -508 -658c-26 -135 70 -223 216 -223c130 0 262 72 327 163l48 -201c-95 -118 -264 -207 -437 -207
c-265 0 -430 232 -389 452c68 372 425 306 506 661c4 17 6 28 7 41z" />
    <glyph glyph-name="periodcentered" unicode="&#xb7;" horiz-adv-x="556" 
d="M283 617c-92 0 -148 72 -131 168c18 96 100 170 192 170c90 0 149 -74 131 -170c-16 -93 -97 -168 -192 -168z" />
    <glyph glyph-name="bullet" unicode="&#x2022;" horiz-adv-x="1023" 
d="M461 509c-153 0 -240 123 -213 273c27 152 159 276 313 276c155 0 242 -125 214 -276c-30 -160 -167 -273 -314 -273z" />
    <glyph glyph-name="asterisk" unicode="*" horiz-adv-x="816" 
d="M394 945l82 280l-222 -166l-61 133l271 127l-222 126l113 134l158 -165l27 279h162l-82 -279l222 165l61 -134l-271 -130l222 -123l-113 -133l-158 164l-27 -278h-162z" />
    <glyph glyph-name="numbersign" unicode="#" horiz-adv-x="1518" 
d="M1435 965h-227l-120 -375h232l-63 -191h-230l-127 -399h-211l127 399h-362l-127 -399h-211l127 399h-232l61 191h232l120 375h-237l63 191h235l146 456h211l-146 -456h362l146 456h211l-146 -456h227zM877 590l120 375h-362l-120 -375h362z" />
    <glyph glyph-name="slash" unicode="/" horiz-adv-x="917" 
d="M-117 -120l979 1852h252l-979 -1852h-252z" />
    <glyph glyph-name="backslash" unicode="\" horiz-adv-x="917" 
d="M1034 -120h-252l-979 1852h252z" />
    <glyph glyph-name="twodotenleader" unicode="&#x2025;" horiz-adv-x="1325" 
d="M239 -46c-93 0 -148 73 -131 169c17 95 100 170 191 170s149 -74 132 -170c-17 -94 -98 -169 -192 -169zM824 -46c-93 0 -148 73 -131 169c17 95 100 170 191 170s149 -74 132 -170c-17 -94 -98 -169 -192 -169z" />
    <glyph glyph-name="parenleft" unicode="(" horiz-adv-x="650" 
d="M212 -120c-99 201 -150 628 -85 972c70 372 184 593 427 880h220c-243 -314 -352 -534 -418 -881c-62 -333 -13 -758 77 -971h-221z" />
    <glyph glyph-name="parenright" unicode=")" horiz-adv-x="650" 
d="M159 -120h-221c173 213 386 638 454 971c69 347 45 567 -76 881h220c132 -287 159 -508 86 -880c-69 -344 -287 -771 -463 -972z" />
    <glyph glyph-name="braceleft" unicode="{" horiz-adv-x="844" 
d="M427 -120c-157 0 -246 141 -212 314l38 216c36 195 -23 355 -143 355l30 155c120 0 241 159 282 355l31 144c38 195 159 313 334 313h199l-37 -191l-137 -3c-85 -1 -143 -80 -170 -208l-17 -87c-46 -220 -174 -400 -285 -400c111 0 168 -180 129 -401l-26 -144
c-24 -124 7 -226 84 -226h136l-37 -192h-199z" />
    <glyph glyph-name="braceright" unicode="}" horiz-adv-x="844" 
d="M136 -120h-198l37 192h136c77 0 147 102 172 226l30 144c47 221 174 401 285 401c-111 0 -169 180 -130 400l17 87c23 128 -5 207 -88 208l-137 3l38 191h198c176 0 251 -118 213 -313l-25 -144c-35 -196 24 -355 144 -355l-30 -155c-121 0 -242 -160 -282 -355l-45 -216
c-34 -173 -177 -314 -335 -314z" />
    <glyph glyph-name="bracketleft" unicode="[" horiz-adv-x="677" 
d="M781 1541h-212l-286 -1469h214l-38 -192h-444l360 1852h444z" />
    <glyph glyph-name="bracketright" unicode="]" horiz-adv-x="677" 
d="M742 1732l-360 -1852h-443l36 192h213l286 1469h-213l38 191h443z" />
    <glyph glyph-name="hyphen" unicode="-" horiz-adv-x="908" 
d="M92 675l44 222h752l-43 -222h-753z" />
    <glyph glyph-name="endash" unicode="&#x2013;" horiz-adv-x="1416" 
d="M127 675l43 222h1192l-43 -222h-1192z" />
    <glyph glyph-name="emdash" unicode="&#x2014;" horiz-adv-x="2048" 
d="M117 675l43 222h1844l-43 -222h-1844z" />
    <glyph glyph-name="figuredash" unicode="&#x2012;" horiz-adv-x="1012" 
d="M93 675l43 222h857l-43 -222h-857z" />
    <glyph glyph-name="underscore" unicode="_" horiz-adv-x="1152" 
d="M-134 -88l34 177h1152l-34 -177h-1152z" />
    <glyph glyph-name="quotesinglbase" unicode="&#x201a;" horiz-adv-x="495" 
d="M-6 -312c-54 0 -84 28 -82 43c62 0 172 56 201 191c8 32 6 56 -1 72c-56 0 -123 44 -107 146c17 100 101 165 183 165c90 0 155 -80 128 -238c-33 -195 -181 -379 -322 -379z" />
    <glyph glyph-name="quotedblbase" unicode="&#x201e;" horiz-adv-x="948" 
d="M-6 -314c-54 0 -84 28 -82 43c62 0 172 56 201 191c7 32 6 56 -1 72c-56 0 -124 44 -107 146c17 100 100 165 183 165c90 0 155 -80 128 -238c-33 -195 -181 -379 -322 -379zM447 -314c-54 0 -84 28 -82 43c62 0 172 56 201 191c7 32 6 56 -1 72c-56 0 -124 44 -107 146
c17 100 100 165 183 165c90 0 155 -80 128 -238c-33 -195 -181 -379 -322 -379z" />
    <glyph glyph-name="quotedblleft" unicode="&#x201c;" horiz-adv-x="948" 
d="M525 1637c54 0 84 -29 82 -44c-62 0 -172 -55 -201 -191c-8 -31 -6 -56 1 -71c56 0 123 -44 107 -146c-17 -101 -101 -165 -183 -165c-90 0 -155 79 -128 238c33 195 181 379 322 379zM978 1637c54 0 84 -29 82 -44c-62 0 -172 -55 -201 -191c-8 -31 -6 -56 1 -71
c56 0 123 -44 107 -146c-17 -101 -101 -165 -183 -165c-90 0 -155 79 -128 238c33 195 181 379 322 379z" />
    <glyph glyph-name="quotedblright" unicode="&#x201d;" horiz-adv-x="948" 
d="M256 1034c-54 0 -85 28 -83 43c63 0 172 56 202 191c7 32 5 56 -1 71c-57 0 -124 44 -107 147c16 100 100 165 182 165c91 0 155 -80 128 -239c-33 -195 -181 -378 -321 -378zM709 1034c-54 0 -85 28 -83 43c63 0 172 56 202 191c7 32 5 56 -1 71c-57 0 -124 44 -107 147
c16 100 100 165 182 165c91 0 155 -80 128 -239c-33 -195 -181 -378 -321 -378z" />
    <glyph glyph-name="quoteleft" unicode="&#x2018;" horiz-adv-x="495" 
d="M525 1639c54 0 84 -29 82 -44c-62 0 -172 -55 -201 -191c-7 -31 -6 -56 1 -71c56 0 124 -44 107 -146c-17 -101 -100 -165 -183 -165c-90 0 -155 79 -128 238c33 195 181 379 322 379z" />
    <glyph glyph-name="quoteright" unicode="&#x2019;" horiz-adv-x="495" 
d="M257 1037c-54 0 -85 28 -83 43c63 0 172 56 202 191c7 32 5 56 -1 71c-57 0 -124 44 -107 147c16 100 100 165 182 165c91 0 155 -80 128 -239c-33 -195 -181 -378 -321 -378z" />
    <glyph glyph-name="quotereversed" unicode="&#x201b;" horiz-adv-x="495" 
d="M409 1041c-141 0 -218 184 -175 379c35 159 130 238 221 238c82 0 141 -64 118 -165c-23 -102 -107 -146 -163 -146c-13 -15 -24 -40 -29 -71c-24 -136 65 -191 127 -191c-4 -15 -45 -44 -99 -44z" />
    <glyph glyph-name="guillemotleft" unicode="&#xab;" horiz-adv-x="1186" 
d="M754 1284l-397 -482l185 -495l-161 -34l-259 553l462 494zM1242 1284l-397 -483l184 -494l-161 -34l-259 553l463 494z" />
    <glyph glyph-name="guillemotright" unicode="&#xbb;" horiz-adv-x="1186" 
d="M361 1148l259 -554l-462 -493l-171 36l398 482l-185 495zM849 1148l258 -554l-462 -493l-170 36l397 482l-184 495z" />
    <glyph glyph-name="guilsinglleft" unicode="&#x2039;" horiz-adv-x="699" 
d="M754 1284l-397 -482l185 -495l-161 -34l-259 553l462 494z" />
    <glyph glyph-name="guilsinglright" unicode="&#x203a;" horiz-adv-x="699" 
d="M361 1149l259 -554l-462 -493l-171 36l398 482l-185 495z" />
    <glyph glyph-name="quotedbl" unicode="&#x22;" horiz-adv-x="768" 
d="M232 1128l51 525h258l-154 -525h-155zM586 1128l52 525h257l-154 -525h-155z" />
    <glyph glyph-name="quotesingle" unicode="'" horiz-adv-x="412" 
d="M231 1128l52 525h257l-153 -525h-156z" />
    <glyph glyph-name="uni3000" unicode="&#x3000;" horiz-adv-x="2048" 
 />
    <glyph glyph-name="uni205F" unicode="&#x205f;" horiz-adv-x="9216" 
 />
    <glyph glyph-name="uni2001" unicode="&#x2001;" horiz-adv-x="2048" 
 />
    <glyph glyph-name="uni2003" unicode="&#x2003;" horiz-adv-x="2048" 
 />
    <glyph glyph-name="uni2000" unicode="&#x2000;" horiz-adv-x="1024" 
 />
    <glyph glyph-name="uni2002" unicode="&#x2002;" horiz-adv-x="1024" 
 />
    <glyph glyph-name="uni2007" unicode="&#x2007;" horiz-adv-x="1395" 
 />
    <glyph glyph-name="uni2005" unicode="&#x2005;" horiz-adv-x="512" 
 />
    <glyph glyph-name="uni200A" unicode="&#x200a;" horiz-adv-x="293" 
 />
    <glyph glyph-name="uni202F" unicode="&#x202f;" horiz-adv-x="480" 
 />
    <glyph glyph-name="uni2008" unicode="&#x2008;" horiz-adv-x="556" 
 />
    <glyph glyph-name="uni2006" unicode="&#x2006;" horiz-adv-x="341" 
 />
    <glyph glyph-name="uni2009" unicode="&#x2009;" horiz-adv-x="410" 
 />
    <glyph glyph-name="uni2004" unicode="&#x2004;" horiz-adv-x="683" 
 />
    <glyph glyph-name="uni200B" unicode="&#x200b;" 
 />
    <glyph glyph-name="uni200D" unicode="&#x200d;" 
 />
    <glyph glyph-name="uni200C" unicode="&#x200c;" 
 />
    <glyph glyph-name="DEL" horiz-adv-x="1992" 
 />
    <glyph glyph-name="uni0E3F" unicode="&#xe3f;" horiz-adv-x="1272" 
d="M917 908c177 0 329 -166 283 -437c-48 -278 -272 -471 -607 -471h-19l-46 -235h-207l46 235h-328l313 1612h313l39 196h207l-41 -208c201 -46 314 -217 276 -411c-31 -162 -144 -262 -229 -281zM565 1366l-78 -402h169c133 0 227 67 254 194c24 114 -51 208 -186 208
h-159zM958 487c27 151 -73 255 -244 255l-271 -1l-96 -494h269c193 0 316 96 342 240z" />
    <glyph glyph-name="uni20BF" unicode="&#x20bf;" horiz-adv-x="1272" 
d="M917 908c177 0 329 -166 283 -437c-43 -249 -227 -429 -505 -465l-47 -241h-154l46 235h-126l-46 -235h-154l46 235h-221l313 1612h191l39 196h154l-38 -196h62c22 0 42 -1 62 -4l40 200h154l-47 -244c138 -71 208 -215 177 -375c-31 -162 -144 -262 -229 -281zM910 1158
c24 114 -51 208 -186 208h-159l-78 -402h169c133 0 227 67 254 194zM958 487c27 151 -73 255 -244 255l-271 -1l-96 -494h269c193 0 316 96 342 240z" />
    <glyph glyph-name="cent" unicode="&#xa2;" horiz-adv-x="1162" 
d="M414 -99l330 1699l199 1l-329 -1696z" />
    <glyph glyph-name="currency" unicode="&#xa4;" horiz-adv-x="1162" 
d="M998 806c-16 -83 -56 -163 -113 -229l151 -201l-113 -97l-150 201c-65 -41 -139 -66 -216 -66c-84 0 -157 28 -211 76l-237 -203l-73 98l237 203c-29 62 -39 136 -24 216c15 81 54 163 111 230l-149 202l112 98l148 -201c64 41 138 66 217 66c82 0 154 -27 208 -73
l236 203l75 -99l-235 -202c31 -63 41 -140 26 -222zM593 611c107 0 190 94 207 196c21 118 -58 195 -152 195c-105 0 -187 -95 -203 -196c-19 -113 48 -195 148 -195z" />
    <glyph glyph-name="dollar" unicode="$" horiz-adv-x="1215" 
d="M792 915c227 -133 369 -288 322 -515c-47 -234 -247 -409 -538 -426l-41 -209h-192l43 223c-192 41 -320 168 -379 327l204 141c56 -106 134 -175 226 -207l103 528c-152 91 -317 220 -264 477c41 197 214 343 431 379l34 175h192l-34 -174c174 -30 302 -145 337 -288
l-206 -139c-23 89 -92 153 -180 176l-88 -451zM526 1203c-13 -68 16 -119 66 -162l63 325c-69 -34 -117 -96 -129 -163zM857 416c21 106 -55 190 -146 255l-85 -438c111 17 210 79 231 183z" />
    <glyph glyph-name="Euro" unicode="&#x20ac;" horiz-adv-x="1713" 
d="M1197 1383c-224 0 -440 -149 -550 -374h683l-42 -132h-691c-4 -17 -9 -35 -12 -53c-5 -26 -8 -51 -10 -76h678l-43 -132h-633c30 -229 193 -388 426 -388c163 0 302 79 433 194l111 -219c-165 -143 -358 -229 -580 -229c-388 0 -642 262 -657 642h-229l42 132h191
c2 25 6 51 10 77c3 18 6 35 10 52h-202l42 132h198c158 434 569 648 889 629c214 -15 409 -132 509 -326l-193 -169c-106 169 -228 240 -380 240z" />
    <glyph glyph-name="florin" unicode="&#x192;" horiz-adv-x="1278" 
d="M1241 1628h191l-50 -255h-139c-138 0 -222 -25 -332 -312l-56 -147h353l-34 -183h-389l-86 -225c-124 -322 -247 -506 -579 -506h-191l50 253h140c131 0 220 25 343 348l49 130h-353l35 183h388l92 242c124 326 254 472 568 472z" />
    <glyph glyph-name="franc" unicode="&#x20a3;" horiz-adv-x="1121" 
d="M1222 1364h-658l-84 -431h564l-49 -252h-564l-40 -205h372l-35 -183h-373l-57 -295h-260l57 295h-141l35 183h142l222 1140h918z" />
    <glyph glyph-name="uni20AD" unicode="&#x20ad;" horiz-adv-x="1307" 
d="M1428 1612l-584 -672h392l-43 -216h-404l373 -724h-282l-369 724h-71l-141 -724h-260l141 724h-142l43 216h141l130 672h260l-130 -672h55l582 672h309z" />
    <glyph glyph-name="lira" unicode="&#x20a4;" horiz-adv-x="1157" 
d="M886 1404c-176 0 -289 -114 -334 -330c-9 -42 -13 -79 -15 -114h347l-28 -145h-313c3 -31 7 -62 10 -93h285l-29 -145h-260l-3 -21c-20 -109 -74 -234 -155 -328h616l-44 -228h-997l45 228h118c84 103 141 220 160 329l3 20h-213l29 145h189c-2 30 -4 61 -7 93h-165
l28 145h131c1 53 5 109 17 169c64 331 303 504 603 504c130 0 246 -37 318 -111l-146 -190c-41 37 -94 72 -190 72z" />
    <glyph glyph-name="uni20A6" unicode="&#x20a6;" horiz-adv-x="1596" 
d="M1652 940l-43 -216h-167l-146 -752h-23l-524 752h-288l-141 -726h-259l141 726h-168l43 216h167l136 700h24l488 -700h333l131 676h260l-132 -676h168zM503 940h95l-74 107zM1152 566l31 158h-141z" />
    <glyph glyph-name="uni20B1" unicode="&#x20b1;" horiz-adv-x="1548" 
d="M1412 1128c-1 -19 -3 -38 -6 -58c-1 -10 -3 -19 -5 -29h186l-32 -167h-212c-104 -194 -316 -315 -610 -315h-221l-109 -559h-260l170 874h-213l33 167h212l17 87h-212l33 168h212l61 316h482c218 0 401 -116 457 -316h242l-33 -168h-192zM668 1361l-13 -65h425
c-49 42 -117 65 -191 65h-221zM605 1041h545l6 31c3 20 4 38 3 56h-537zM782 809c103 0 188 23 250 65h-459l-13 -64z" />
    <glyph glyph-name="uni20BD" unicode="&#x20bd;" horiz-adv-x="1503" 
d="M1045 1612c301 0 531 -206 476 -522c-52 -292 -312 -486 -694 -486h-271l-32 -163h468l-35 -183h-469l-50 -258h-253l50 258h-224l35 183h225l32 163h-224l45 236h225l150 772h546zM1268 1092c27 162 -90 269 -272 269h-293l-98 -506l293 -1c217 -1 344 86 370 238z" />
    <glyph glyph-name="uni20A8" unicode="&#x20a8;" horiz-adv-x="1272" 
d="M1148 1391c25 -51 39 -109 39 -174h179l-62 -163h-140c-68 -238 -279 -444 -517 -427l429 -625h-296l-515 806l3 12l263 -1c184 -1 318 98 367 235h-641l62 163h594c-23 106 -118 174 -271 174h-330l84 221h1047l-83 -221h-212z" />
    <glyph glyph-name="sterling" unicode="&#xa3;" horiz-adv-x="1157" 
d="M553 1074c-19 -92 -18 -163 -13 -229h324l-35 -183h-274c0 -33 -2 -68 -9 -106c-20 -109 -74 -234 -155 -328h616l-44 -228h-996l44 228h118c84 103 141 220 161 329c6 35 9 70 9 105h-200l35 183h155c-6 87 -8 180 13 284c64 331 302 504 602 504
c131 0 247 -37 318 -111l-146 -190c-41 37 -94 72 -190 72c-176 0 -289 -114 -333 -330z" />
    <glyph glyph-name="uni20B8" unicode="&#x20b8;" horiz-adv-x="1159" 
d="M244 1612h1065l-47 -243h-1065zM121 978l47 243h1065l-47 -243h-411l-182 -978h-258l183 978h-397z" />
    <glyph glyph-name="uni20AE" unicode="&#x20ae;" horiz-adv-x="1211" 
d="M1265 1361h-404l-65 -335l303 142l-33 -171l-304 -142l-29 -150l304 142l-33 -171l-304 -142l-104 -534h-260l78 400l-298 -139l33 171l298 139l29 150l-298 -139l34 171l298 139l91 469h-406l49 251h1070z" />
    <glyph glyph-name="uni20A9" unicode="&#x20a9;" horiz-adv-x="1859" 
d="M2033 1612l-341 -690h190l-43 -220h-256l-354 -717h-32l-148 717h-203l-422 -717h-32l-76 717h-260l43 220h194l-73 690h255l61 -690h201l355 622h12l114 -622h199l326 690h290zM975 922h28l-7 35zM563 617l49 85h-57zM1273 618l40 84h-55z" />
    <glyph glyph-name="yen" unicode="&#xa5;" horiz-adv-x="1419" 
d="M1539 1612l-556 -752h367l-39 -196h-460l-26 -134h461l-38 -197h-461l-64 -333h-259l64 333h-471l38 197h471l26 134h-471l38 196h378l-262 752h270l220 -643l466 643h308z" />
    <glyph glyph-name="plus" unicode="+" horiz-adv-x="1237" 
d="M1134 869l-45 -235h-348l-83 -430h-232l83 430h-347l45 235h348l83 428h232l-83 -428h347z" />
    <glyph glyph-name="minus" unicode="&#x2212;" horiz-adv-x="1219" 
d="M162 634l46 235h908l-46 -235h-908z" />
    <glyph glyph-name="multiply" unicode="&#xd7;" horiz-adv-x="1326" 
d="M1279 1155l-427 -389l266 -374l-179 -148l-259 364l-420 -383l-142 180l428 391l-267 376l179 149l261 -367l418 382z" />
    <glyph glyph-name="divide" unicode="&#xf7;" horiz-adv-x="1506" 
d="M833 1093c-88 -1 -146 76 -128 169s107 168 193 168c87 0 147 -79 129 -169c-17 -90 -106 -167 -194 -168zM168 664l41 212h1195l-41 -212h-1195zM639 96c-87 0 -146 76 -127 170c18 94 107 168 193 168s146 -78 128 -169c-16 -89 -105 -169 -194 -169z" />
    <glyph glyph-name="equal" unicode="=" horiz-adv-x="1301" 
d="M222 939l43 223h990l-43 -223h-990zM115 394l44 222h990l-43 -222h-991z" />
    <glyph glyph-name="notequal" unicode="&#x2260;" horiz-adv-x="1301" 
d="M1212 939h-352l-174 -323h463l-43 -222h-539l-195 -363h-169l195 363h-283l44 222h358l174 323h-469l43 223h546l209 389h169l-209 -389h275z" />
    <glyph glyph-name="greater" unicode="&#x3e;" horiz-adv-x="1228" 
d="M327 1451l791 -617l-4 -20l-1037 -618l66 305l617 341l-484 353z" />
    <glyph glyph-name="less" unicode="&#x3c;" horiz-adv-x="1228" 
d="M1238 1451l-66 -304l-618 -342l484 -353l-51 -256l-791 618l4 20z" />
    <glyph glyph-name="greaterequal" unicode="&#x2265;" horiz-adv-x="1255" 
d="M393 1527l791 -494l-4 -16l-1038 -494l66 243l618 274l-484 282zM64 124l36 182h881l-36 -182h-881z" />
    <glyph glyph-name="lessequal" unicode="&#x2264;" horiz-adv-x="1265" 
d="M1289 1521l-66 -244l-617 -272l484 -283l-51 -205l-791 494l4 16zM75 124l35 182h881l-36 -182h-880z" />
    <glyph glyph-name="plusminus" unicode="&#xb1;" horiz-adv-x="1160" 
d="M795 1105h307l-40 -209h-307l-66 -337h-232l65 337h-309l40 209h310l60 312h233zM83 224l39 200h848l-39 -200h-848z" />
    <glyph glyph-name="approxequal" unicode="&#x2248;" horiz-adv-x="1268" 
d="M360 862l-142 63c96 237 258 277 349 277c184 0 208 -172 334 -172c76 0 131 66 174 165l141 -63c-95 -237 -258 -276 -349 -276c-183 0 -207 172 -334 172c-76 0 -131 -67 -173 -166zM267 385l-141 62c95 238 257 277 349 277c182 0 207 -172 334 -172
c75 0 130 66 172 165l143 -62c-96 -238 -259 -277 -349 -277c-184 0 -208 172 -334 172c-77 0 -132 -67 -174 -165z" />
    <glyph glyph-name="asciitilde" unicode="~" horiz-adv-x="1501" 
d="M343 599l-173 73c114 277 301 324 414 324c226 0 258 -203 415 -203c93 0 173 78 224 194l174 -72c-115 -278 -302 -324 -415 -324c-226 0 -257 203 -415 203c-94 0 -172 -78 -224 -195z" />
    <glyph glyph-name="logicalnot" unicode="&#xac;" horiz-adv-x="1407" 
d="M1330 1005l-46 -235l-65 -333h-239l64 333h-856l46 235h1096z" />
    <glyph glyph-name="asciicircum" unicode="^" horiz-adv-x="912" 
d="M984 1094h-205l-159 296l-272 -296h-229l535 584h19z" />
    <glyph glyph-name="emptyset" unicode="&#x2205;" horiz-adv-x="1424" 
d="M1237 1287c122 -119 180 -303 142 -519c-62 -360 -366 -668 -743 -668c-109 0 -206 26 -286 72l-149 -187h-198l226 284c-106 120 -154 295 -119 497c64 364 368 667 742 667c97 0 184 -20 259 -57l177 222h197zM314 766c-21 -123 4 -231 64 -311l584 733
c-45 18 -95 27 -149 27c-257 0 -458 -210 -499 -449zM1172 764c24 136 -9 255 -83 337l-592 -744c51 -26 111 -40 178 -40c257 0 456 210 497 447z" />
    <glyph glyph-name="infinity" unicode="&#x221e;" horiz-adv-x="2222" 
d="M1777 1354c276 0 464 -231 408 -543c-50 -286 -288 -545 -593 -545c-215 0 -391 129 -482 322c-162 -196 -378 -322 -582 -322c-274 0 -466 227 -409 543c50 287 287 545 592 545c215 0 391 -129 482 -322c163 197 381 322 584 322zM573 491c149 0 326 123 476 319
c-77 191 -218 319 -374 319c-163 0 -310 -139 -340 -319c-31 -186 83 -319 238 -319zM1969 810c31 185 -81 319 -238 319c-159 0 -335 -138 -476 -319c78 -199 221 -319 374 -319c168 0 311 146 340 319z" />
    <glyph glyph-name="integral" unicode="&#x222b;" horiz-adv-x="1138" 
d="M-129 -303l45 228h101c115 0 216 102 267 256l443 1337c82 247 253 380 472 380h145l-45 -228h-101c-117 0 -217 -102 -268 -256l-443 -1336c-82 -248 -253 -381 -470 -381h-146z" />
    <glyph glyph-name="product" unicode="&#x220f;" horiz-adv-x="1426" 
d="M1637 1925l-45 -235h-247l-382 -1965h-246l381 1965h-335l-382 -1965h-247l382 1965h-258l46 235h1333z" />
    <glyph glyph-name="summation" unicode="&#x2211;" horiz-adv-x="1407" 
d="M1551 1900l-46 -235h-873l336 -863v-3l-673 -864l873 -1l-45 -234l-1274 1l12 66l832 1073l-418 1052l2 8h1274z" />
    <glyph glyph-name="radical" unicode="&#x221a;" horiz-adv-x="1082" 
d="M1708 2092l-46 -235h-339l-995 -1939h-21l-174 1243h227l60 -603l766 1534h522z" />
    <glyph glyph-name="uni00B5" unicode="&#xb5;" horiz-adv-x="1338" 
 />
    <glyph glyph-name="partialdiff" unicode="&#x2202;" horiz-adv-x="1255" 
d="M543 -40c-357 0 -523 270 -479 568c42 283 264 552 592 552c183 0 334 -109 343 -270c24 290 -97 535 -386 671l215 145c306 -138 447 -537 353 -1012c-63 -308 -231 -654 -638 -654zM560 201c179 0 318 135 353 308c40 192 -68 330 -248 330c-183 0 -324 -141 -357 -311
c-33 -174 60 -327 252 -327z" />
    <glyph glyph-name="percent" unicode="%" horiz-adv-x="1673" 
d="M503 884c-199 0 -334 160 -298 373c34 196 204 374 415 374c201 0 334 -162 297 -373c-34 -198 -204 -374 -414 -374zM80 0l1362 1613h220l-1361 -1613h-221zM530 1051c113 0 209 97 227 206c20 118 -58 207 -165 207c-113 0 -210 -97 -229 -207
c-20 -118 59 -206 167 -206zM1134 -20c-202 0 -335 162 -298 373c34 198 205 374 414 374c201 0 335 -162 298 -373c-34 -196 -204 -374 -414 -374zM1160 147c113 0 209 97 228 207c20 117 -58 205 -166 205c-113 0 -210 -96 -228 -206c-20 -118 59 -206 166 -206z" />
    <glyph glyph-name="perthousand" unicode="&#x2030;" horiz-adv-x="2471" 
d="M503 884c-199 0 -334 160 -298 373c34 196 204 374 415 374c201 0 334 -162 297 -373c-34 -198 -204 -374 -414 -374zM80 0l1362 1613h220l-1361 -1613h-221zM530 1051c113 0 209 97 227 206c20 118 -58 207 -165 207c-113 0 -210 -97 -229 -207
c-20 -118 59 -206 167 -206zM1134 -20c-202 0 -335 162 -298 373c34 198 205 374 414 374c201 0 335 -162 298 -373c-34 -196 -204 -374 -414 -374zM1931 -20c-201 0 -335 162 -298 373c35 198 205 374 414 374c202 0 335 -162 298 -373c-34 -196 -204 -374 -414 -374z
M1160 147c113 0 209 97 228 207c20 117 -58 205 -166 205c-113 0 -210 -96 -228 -206c-20 -118 59 -206 166 -206zM1958 147c113 0 208 97 227 207c20 117 -58 205 -165 205c-113 0 -210 -96 -229 -206c-20 -118 59 -206 167 -206z" />
    <glyph glyph-name="arrowup" unicode="&#x2191;" horiz-adv-x="2148" 
d="M1766 989l-133 -133l-373 379v-1358h-220v1358l-373 -379l-133 133l616 636z" />
    <glyph glyph-name="uni2197" unicode="&#x2197;" horiz-adv-x="2148" 
d="M808 1377l885 14l-14 -885h-188l4 532l-960 -961l-156 156l960 960l-531 -4v188z" />
    <glyph glyph-name="arrowright" unicode="&#x2192;" horiz-adv-x="2148" 
d="M1357 1389l636 -616l-636 -616l-133 133l379 373h-1358v220h1358l-379 373z" />
    <glyph glyph-name="uni2198" unicode="&#x2198;" horiz-adv-x="2148" 
d="M871 168v188l531 -4l-960 960l156 155l960 -960l-4 532h188l14 -885z" />
    <glyph glyph-name="arrowdown" unicode="&#x2193;" horiz-adv-x="2148" 
d="M1549 690l133 -133l-616 -636l-616 636l133 133l373 -379v1358h220v-1358z" />
    <glyph glyph-name="uni2199" unicode="&#x2199;" horiz-adv-x="2148" 
d="M1839 1330l-961 -961l532 5v-189l-885 -14l14 886h188l-4 -532l960 960z" />
    <glyph glyph-name="arrowleft" unicode="&#x2190;" horiz-adv-x="2148" 
d="M1971 883v-220h-1358l379 -373l-133 -133l-636 616l636 616l133 -133l-379 -373h1358z" />
    <glyph glyph-name="uni2196" unicode="&#x2196;" horiz-adv-x="2148" 
d="M1769 217l-155 -156l-961 961l5 -532h-189l-14 885l886 -14v-188l-532 4z" />
    <glyph glyph-name="arrowboth" unicode="&#x2194;" horiz-adv-x="2148" 
d="M1426 1389l636 -616l-636 -616l-133 133l379 373h-1128l379 -373l-133 -133l-636 616l636 616l133 -133l-379 -373h1128l-379 373z" />
    <glyph glyph-name="arrowupdn" unicode="&#x2195;" horiz-adv-x="2148" 
d="M1717 421l-616 -636l-616 636l133 133l373 -379v1128l-373 -379l-133 133l616 636l616 -636l-133 -133l-373 379v-1128l373 379z" />
    <glyph glyph-name="lozenge" unicode="&#x25ca;" horiz-adv-x="1247" 
d="M513 44l-253 735l539 735l258 -735zM558 337l338 466l-141 418l-335 -465z" />
    <glyph glyph-name="at" unicode="@" horiz-adv-x="2271" 
d="M876 -460c-526 0 -898 361 -815 966c93 674 683 1168 1330 1168c621 0 903 -453 830 -930c-58 -380 -339 -764 -722 -764c-233 0 -284 146 -232 361c-40 -120 -172 -192 -302 -192c-208 0 -331 182 -289 425c44 255 247 469 505 465c160 -3 234 -88 229 -189l87 180h185
l-193 -619c-3 -9 -11 -36 -16 -61c-20 -97 -24 -178 75 -178c187 0 351 286 397 531c68 366 -113 725 -597 725c-509 0 -939 -401 -1015 -897c-73 -470 215 -757 599 -757c78 0 161 12 245 46l-3 -226c-88 -36 -183 -54 -298 -54zM1053 350c143 0 264 141 288 284
c18 110 -23 203 -151 203c-143 0 -268 -115 -293 -270c-21 -133 46 -217 156 -217z" />
    <glyph glyph-name="ampersand" unicode="&#x26;" horiz-adv-x="1516" 
d="M1396 221l-47 -235c-96 0 -217 58 -342 151c-119 -109 -269 -168 -457 -168c-367 0 -550 227 -492 530c37 191 155 337 351 434c-38 111 -54 218 -40 313c33 223 234 406 476 406c215 0 355 -148 354 -362l-241 -46c5 93 -55 174 -151 174c-91 0 -168 -73 -186 -181
c-34 -203 152 -524 364 -751c45 87 83 193 120 320l242 3c-47 -189 -108 -352 -187 -482c87 -66 170 -106 236 -106zM308 493c-30 -144 39 -276 269 -276c103 0 185 25 253 75c-131 131 -253 292 -339 455c-99 -67 -162 -153 -183 -254z" />
    <glyph glyph-name="paragraph" unicode="&#xb6;" horiz-adv-x="1506" 
d="M901 1650h266l-337 -1737h-179l153 789h-87c-254 0 -427 221 -372 512c50 266 259 436 556 436zM1309 1650h176l-339 -1745h-176z" />
    <glyph glyph-name="section" unicode="&#xa7;" horiz-adv-x="1312" 
d="M851 1126c182 -91 296 -184 266 -368c-17 -105 -66 -176 -151 -233c48 -64 75 -146 53 -251c-44 -201 -235 -334 -459 -334c-203 0 -377 112 -416 244l161 157c44 -93 157 -165 287 -165c92 0 184 39 201 121c24 110 -111 176 -230 233c-130 63 -279 166 -244 353
c17 90 71 171 156 231c-51 65 -81 150 -60 255c37 183 208 306 423 306c198 0 349 -107 376 -220l-185 -138c-35 78 -110 123 -211 123c-87 0 -162 -35 -177 -110c-19 -92 77 -135 210 -204zM540 875c-18 -94 91 -130 218 -193l44 -23c44 19 84 51 93 99
c20 109 -137 166 -239 217l-3 2c-60 -18 -104 -53 -113 -102z" />
    <glyph glyph-name="copyright" unicode="&#xa9;" horiz-adv-x="1670" 
d="M739 -89c-464 0 -702 373 -638 804c67 450 432 781 871 781c460 0 702 -364 638 -799c-67 -452 -433 -786 -871 -786zM757 39c364 0 675 296 732 657c55 358 -156 674 -534 674c-364 0 -676 -295 -732 -656c-55 -357 156 -675 534 -675zM790 219
c-261 0 -435 233 -380 531c52 275 269 452 519 452c127 0 216 -45 292 -126l-116 -141c-42 49 -111 81 -200 81c-156 0 -284 -100 -317 -265c-39 -191 74 -347 236 -347c71 0 146 30 203 80l70 -138c-76 -89 -200 -127 -307 -127z" />
    <glyph glyph-name="registered" unicode="&#xae;" horiz-adv-x="1106" 
d="M624 1612c280 0 419 -221 371 -487c-48 -262 -256 -448 -513 -448c-278 0 -420 219 -370 488c49 273 264 447 512 447zM915 1124c41 227 -75 414 -304 414c-205 0 -380 -150 -420 -374c-41 -225 75 -413 304 -413c202 0 378 147 420 373zM594 1400c85 0 162 -59 146 -162
c-11 -67 -58 -121 -125 -139l104 -200h-89l-95 194h-64l-38 -194h-81l97 501h145zM659 1240c8 49 -30 82 -78 82h-66l-32 -164h66c62 0 103 37 110 82z" />
    <glyph glyph-name="trademark" unicode="&#x2122;" horiz-adv-x="1303" 
d="M1321 1626h14l-136 -698h-110l71 369l-282 -358h-1l-138 358l-71 -369h-111l136 698h14l201 -494zM570 1505h-172l-112 -577h-111l112 577h-171l20 107h454z" />
    <glyph glyph-name="trademark.ss04" horiz-adv-x="1391" 
 />
    <glyph glyph-name="trademark.ss05" horiz-adv-x="1464" 
d="M1574 1286l-16 -82h-153l-54 -276h-111l54 276h-56l-209 -265l-102 265h-54l-54 -276h-110l53 276h-271l-54 -276h-110l54 276h-240l16 82h240l42 219h-172l21 107h454l-21 -107h-172l-42 -219h271l66 340h14l139 -340h191l284 340h15l-66 -340h153zM1303 1286h7l2 12z
M889 1286h6l-4 11zM1059 1133l60 71h-89z" />
    <glyph glyph-name="degree" unicode="&#xb0;" horiz-adv-x="688" 
d="M457 1103c-155 0 -258 112 -235 272c22 153 149 274 310 274c156 0 259 -114 235 -274c-22 -153 -151 -272 -310 -272zM476 1220c96 0 162 75 174 156c13 88 -47 156 -136 156c-91 0 -162 -69 -175 -157c-12 -90 47 -155 137 -155z" />
    <glyph glyph-name="bar" unicode="|" horiz-adv-x="630" 
d="M19 -450l448 2300h170l-448 -2300h-170z" />
    <glyph glyph-name="brokenbar" unicode="&#xa6;" horiz-adv-x="630" 
d="M272 850l195 1000h170l-195 -1000h-170zM19 -450l195 1000h170l-195 -1000h-170z" />
    <glyph glyph-name="dagger" unicode="&#x2020;" horiz-adv-x="688" 
d="M821 1403l-26 -133h-240l-246 -1270h-161l246 1270h-240l26 133h240l48 247h161l-48 -247h240z" />
    <glyph glyph-name="daggerdbl" unicode="&#x2021;" horiz-adv-x="689" 
d="M796 1270h-240l-172 -890h239l-26 -132h-239l-48 -248h-161l48 248h-242l26 132h242l172 890h-240l26 133h240l48 247h161l-48 -247h240z" />
    <glyph glyph-name="estimated" unicode="&#x212e;" horiz-adv-x="1962" 
d="M1055 -32c-481 0 -924 360 -924 834c0 466 429 834 930 834c489 0 859 -350 859 -765c0 -43 -4 -98 -8 -127h-1492v-423c175 -173 419 -264 636 -264c305 0 596 175 685 357h98c-92 -210 -390 -446 -784 -446zM420 856h1231v454c-143 139 -348 237 -590 237
c-243 0 -476 -99 -641 -258v-433z" />
    <glyph glyph-name="uni02BC" unicode="&#x2bc;" horiz-adv-x="372" 
d="M128 1140l182 510h243l-219 -510h-206z" />
    <glyph glyph-name="uni0308" unicode="&#x308;" 
d="M-549 1382c-58 0 -97 47 -86 104c12 57 69 106 126 106s96 -49 85 -106c-12 -57 -68 -104 -125 -104zM-101 1382c-57 0 -96 47 -84 104c11 57 68 106 124 106c58 0 97 -49 86 -106c-12 -57 -68 -104 -126 -104z" />
    <glyph glyph-name="uni0307" unicode="&#x307;" 
d="M-322 1382c-67 0 -110 54 -97 119c12 65 77 121 143 121c65 0 109 -56 97 -121c-13 -66 -78 -119 -143 -119z" />
    <glyph glyph-name="gravecomb" unicode="&#x300;" 
d="M-215 1333l-174 327h223l134 -327h-183z" />
    <glyph glyph-name="acutecomb" unicode="&#x301;" 
d="M-270 1333h-183l262 327h222z" />
    <glyph glyph-name="uni030B" unicode="&#x30b;" 
d="M-721 1331l219 327h199l-258 -327h-160zM-406 1331l274 327h214l-320 -327h-168z" />
    <glyph glyph-name="uni030C.alt" 
d="M-325 1280l170 460h198l-208 -460h-160z" />
    <glyph glyph-name="uni0302" unicode="&#x302;" 
d="M-749 1348l371 292h126l261 -292h-190l-145 168l-208 -168h-215z" />
    <glyph glyph-name="uni030C" unicode="&#x30c;" 
d="M15 1640l-370 -292h-127l-261 292h190l146 -168l208 168h214z" />
    <glyph glyph-name="uni0306" unicode="&#x306;" 
d="M-316 1350c-180 0 -271 133 -243 287h122c-17 -91 38 -171 135 -171c95 0 174 70 194 171h122c-32 -169 -160 -287 -330 -287z" />
    <glyph glyph-name="uni030A" unicode="&#x30a;" 
d="M-260 1302c-123 0 -200 95 -179 215c21 121 130 215 254 215c116 0 198 -89 175 -215c-20 -118 -127 -215 -250 -215zM-243 1410c59 0 114 45 125 106c12 60 -26 107 -87 107c-59 0 -114 -44 -126 -107c-11 -60 27 -106 88 -106z" />
    <glyph glyph-name="tildecomb" unicode="&#x303;" 
d="M-686 1363l-116 49c76 185 201 216 276 216c151 0 172 -136 277 -136c62 0 115 52 149 130l116 -48c-76 -185 -201 -216 -276 -216c-151 0 -172 135 -277 135c-63 0 -115 -52 -149 -130z" />
    <glyph glyph-name="uni0304" unicode="&#x304;" 
d="M-599 1401l26 132h572l-26 -132h-572z" />
    <glyph glyph-name="uni0312" unicode="&#x312;" 
d="M-174 1755c38 0 58 -19 56 -28c-47 0 -147 -39 -167 -142c-5 -24 -5 -36 4 -51c48 0 99 -35 87 -95c-11 -59 -73 -110 -144 -110c-66 0 -119 51 -97 161c28 148 147 265 261 265z" />
    <glyph glyph-name="uni0326" unicode="&#x326;" 
d="M-424 -549c-39 0 -59 19 -57 29c47 0 148 39 168 142c4 23 4 36 -4 50c-49 0 -99 35 -88 96c11 59 73 109 145 109c65 0 118 -51 97 -161c-29 -148 -148 -265 -261 -265z" />
    <glyph glyph-name="uni0327" unicode="&#x327;" 
d="M-527 -521l-33 156c195 5 286 45 297 105c6 32 -11 57 -73 57c-17 0 -39 -2 -62 -6l-26 44l182 191h129l-130 -137c17 2 29 3 45 3c82 0 128 -61 112 -145c-28 -141 -212 -263 -441 -268z" />
    <glyph glyph-name="uni0328" unicode="&#x328;" 
d="M-120 -508c-58 -13 -111 -19 -156 -19c-168 0 -264 82 -259 217c7 161 155 287 307 333l118 -23c-143 -92 -237 -165 -243 -252c-3 -29 6 -96 96 -96c20 0 61 4 106 14z" />
    <glyph glyph-name="uni0335" unicode="&#x335;" 
d="M-779 652l35 182h774l-35 -182h-774z" />
    <glyph glyph-name="uni0336" unicode="&#x336;" 
d="M-1059 717l35 183h1467l-35 -183h-1467z" />
    <glyph glyph-name="uni0337" unicode="&#x337;" 
d="M-718 961l39 202l782 491l-39 -203z" />
    <glyph glyph-name="uni0338" unicode="&#x338;" 
d="M-1256 -104l1220 1388h215l-1219 -1388h-216z" />
    <glyph glyph-name="uni0338.case" 
d="M-1175 -82l1535 1732h214l-1534 -1732h-215z" />
    <glyph glyph-name="dieresis" unicode="&#xa8;" horiz-adv-x="600" 
d="M51 1382c-58 0 -97 47 -86 104c12 57 69 106 126 106s96 -49 85 -106c-12 -57 -68 -104 -125 -104zM499 1382c-57 0 -96 47 -84 104c11 57 68 106 124 106c58 0 97 -49 86 -106c-12 -57 -68 -104 -126 -104z" />
    <glyph glyph-name="dotaccent" unicode="&#x2d9;" horiz-adv-x="600" 
d="M278 1382c-67 0 -110 54 -97 119c12 65 77 121 143 121c65 0 109 -56 97 -121c-13 -66 -78 -119 -143 -119z" />
    <glyph glyph-name="grave" unicode="`" horiz-adv-x="600" 
d="M206 1333l-174 327h223l134 -327h-183z" />
    <glyph glyph-name="acute" unicode="&#xb4;" horiz-adv-x="600" 
d="M151 1333h-183l262 327h222z" />
    <glyph glyph-name="hungarumlaut" unicode="&#x2dd;" horiz-adv-x="600" 
d="M-47 1331l219 327h199l-258 -327h-160zM268 1331l274 327h214l-320 -327h-168z" />
    <glyph glyph-name="circumflex" unicode="&#x2c6;" horiz-adv-x="600" 
d="M-66 1348l371 292h126l261 -292h-190l-145 168l-208 -168h-215z" />
    <glyph glyph-name="caron" unicode="&#x2c7;" horiz-adv-x="600" 
d="M698 1640l-370 -292h-127l-261 292h190l146 -168l208 168h214z" />
    <glyph glyph-name="breve" unicode="&#x2d8;" horiz-adv-x="600" 
d="M284 1350c-180 0 -271 133 -243 287h122c-17 -91 38 -171 135 -171c95 0 174 70 194 171h122c-32 -169 -160 -287 -330 -287z" />
    <glyph glyph-name="ring" unicode="&#x2da;" horiz-adv-x="600" 
d="M188 1302c-123 0 -200 95 -179 215c21 121 130 215 254 215c116 0 197 -89 175 -215c-20 -118 -127 -215 -250 -215zM205 1410c59 0 114 45 125 106c12 60 -26 107 -87 107c-59 0 -114 -44 -126 -107c-11 -60 27 -106 88 -106z" />
    <glyph glyph-name="tilde" unicode="&#x2dc;" horiz-adv-x="706" 
d="M100 1363l-116 49c76 185 201 216 276 216c151 0 172 -136 277 -136c62 0 115 52 149 130l116 -48c-76 -185 -201 -216 -276 -216c-151 0 -172 135 -277 135c-63 0 -115 -52 -149 -130z" />
    <glyph glyph-name="macron" unicode="&#xaf;" horiz-adv-x="600" 
d="M1 1401l26 132h572l-26 -132h-572z" />
    <glyph glyph-name="cedilla" unicode="&#xb8;" horiz-adv-x="600" 
d="M73 -521l-33 156c195 5 286 45 297 105c6 32 -11 57 -73 57c-17 0 -39 -2 -62 -6l-26 44l182 191h129l-130 -137c17 2 29 3 45 3c82 0 128 -61 112 -145c-28 -141 -212 -263 -441 -268z" />
    <glyph glyph-name="ogonek" unicode="&#x2db;" horiz-adv-x="600" 
d="M480 -508c-58 -13 -111 -19 -156 -19c-168 0 -264 82 -259 217c7 161 155 287 307 333l118 -23c-143 -92 -237 -165 -243 -252c-3 -29 6 -96 96 -96c20 0 61 4 106 14z" />
    </font>
</defs>
</svg>
