<?xml version="1.0" standalone="no"?>
<!DOCTYPE svg PUBLIC "-//W3C//DTD SVG 1.1//EN" "http://www.w3.org/Graphics/SVG/1.1/DTD/svg11.dtd" >
<svg xmlns="http://www.w3.org/2000/svg" xmlns:xlink="http://www.w3.org/1999/xlink" version="1.1">
<metadata>
Created by FontForge 20190801 at Wed Jan 15 03:05:45 2020
 By Jimmy Wärting
Copyright \(c\) 2020 by MARSNEV. All rights reserved.
</metadata>
<defs>
<font id="LEMONMILK-BoldItalic" horiz-adv-x="0" >
  <font-face 
    font-family="LEMON MILK Bold"
    font-weight="700"
    font-style="italic"
    font-stretch="normal"
    units-per-em="2048"
    panose-1="0 0 8 0 0 0 0 0 0 0"
    ascent="1638"
    descent="-410"
    cap-height="1612"
    bbox="-1359 -618 2641 2203"
    underline-thickness="50"
    underline-position="-100"
    slope="-11"
    stemh="408"
    stemv="428"
    unicode-range="U+0020-3000"
  />
<missing-glyph horiz-adv-x="1332" 
d="M83 0l314 1612h932l-314 -1612h-932zM281 145h594l257 1321h-594z" />
    <glyph glyph-name=".notdef" horiz-adv-x="1332" 
d="M83 0l314 1612h932l-314 -1612h-932zM281 145h594l257 1321h-594z" />
    <glyph glyph-name="space" unicode=" " horiz-adv-x="625" 
 />
    <glyph glyph-name="A" unicode="A" horiz-adv-x="1682" 
d="M1098 0l-37 188h-547l-108 -188h-502l1021 1632h231l388 -1632h-446zM694 501h305l-78 394z" />
    <glyph glyph-name="A" unicode="a" horiz-adv-x="1682" 
d="M1098 0l-37 188h-547l-108 -188h-502l1021 1632h231l388 -1632h-446zM694 501h305l-78 394z" />
    <glyph glyph-name="Aacute" unicode="&#xc1;" horiz-adv-x="1682" 
d="M1382 2082l-303 -337h-269l237 337h335zM1098 0l-37 188h-547l-108 -188h-502l1021 1632h231l388 -1632h-446zM694 501h305l-78 394z" />
    <glyph glyph-name="Aacute" unicode="&#xe1;" horiz-adv-x="1682" 
d="M1382 2082l-303 -337h-269l237 337h335zM1098 0l-37 188h-547l-108 -188h-502l1021 1632h231l388 -1632h-446zM694 501h305l-78 394z" />
    <glyph glyph-name="Abreve" unicode="&#x102;" horiz-adv-x="1682" 
d="M1076 1753c-191 0 -306 138 -275 301h192c-15 -76 33 -134 107 -134c76 0 139 55 154 134h192c-34 -182 -176 -301 -370 -301zM1098 0l-37 188h-547l-108 -188h-502l1021 1632h231l388 -1632h-446zM694 501h305l-78 394z" />
    <glyph glyph-name="Abreve" unicode="&#x103;" horiz-adv-x="1682" 
d="M1076 1753c-191 0 -306 138 -275 301h192c-15 -76 33 -134 107 -134c76 0 139 55 154 134h192c-34 -182 -176 -301 -370 -301zM1098 0l-37 188h-547l-108 -188h-502l1021 1632h231l388 -1632h-446zM694 501h305l-78 394z" />
    <glyph glyph-name="Acircumflex" unicode="&#xc2;" horiz-adv-x="1682" 
d="M1106 1881l-143 -122h-319l367 293h219l259 -293h-287zM1098 0l-37 188h-547l-108 -188h-502l1021 1632h231l388 -1632h-446zM694 501h305l-78 394z" />
    <glyph glyph-name="Acircumflex" unicode="&#xe2;" horiz-adv-x="1682" 
d="M1106 1881l-143 -122h-319l367 293h219l259 -293h-287zM1098 0l-37 188h-547l-108 -188h-502l1021 1632h231l388 -1632h-446zM694 501h305l-78 394z" />
    <glyph glyph-name="Adieresis" unicode="&#xc4;" horiz-adv-x="1682" 
d="M826 1761c-80 0 -136 62 -121 137c15 74 94 139 174 139s135 -65 120 -139c-15 -75 -93 -137 -173 -137zM1308 1761c-80 0 -135 62 -120 137c14 74 93 139 173 139s135 -65 121 -139c-15 -75 -94 -137 -174 -137zM1098 0l-37 188h-547l-108 -188h-502l1021 1632h231
l388 -1632h-446zM694 501h305l-78 394z" />
    <glyph glyph-name="Adieresis" unicode="&#xe4;" horiz-adv-x="1682" 
d="M826 1761c-80 0 -136 62 -121 137c15 74 94 139 174 139s135 -65 120 -139c-15 -75 -93 -137 -173 -137zM1308 1761c-80 0 -135 62 -120 137c14 74 93 139 173 139s135 -65 121 -139c-15 -75 -94 -137 -174 -137zM1098 0l-37 188h-547l-108 -188h-502l1021 1632h231
l388 -1632h-446zM694 501h305l-78 394z" />
    <glyph glyph-name="Agrave" unicode="&#xc0;" horiz-adv-x="1682" 
d="M1292 1745h-269l-172 337h335zM1098 0l-37 188h-547l-108 -188h-502l1021 1632h231l388 -1632h-446zM694 501h305l-78 394z" />
    <glyph glyph-name="Agrave" unicode="&#xe0;" horiz-adv-x="1682" 
d="M1292 1745h-269l-172 337h335zM1098 0l-37 188h-547l-108 -188h-502l1021 1632h231l388 -1632h-446zM694 501h305l-78 394z" />
    <glyph glyph-name="Amacron" unicode="&#x100;" horiz-adv-x="1682" 
d="M1442 2002l-39 -201h-656l39 201h656zM1098 0l-37 188h-547l-108 -188h-502l1021 1632h231l388 -1632h-446zM694 501h305l-78 394z" />
    <glyph glyph-name="Amacron" unicode="&#x101;" horiz-adv-x="1682" 
d="M1442 2002l-39 -201h-656l39 201h656zM1098 0l-37 188h-547l-108 -188h-502l1021 1632h231l388 -1632h-446zM694 501h305l-78 394z" />
    <glyph glyph-name="Aogonek" unicode="&#x104;" horiz-adv-x="1682" 
d="M1524 -278l39 -270c-71 -15 -135 -22 -193 -22c-209 0 -321 93 -321 249c0 140 91 258 214 321h-165l-37 188h-547l-108 -188h-502l1021 1632h231l388 -1632c-138 -102 -197 -163 -197 -232c0 -34 17 -65 58 -65c22 0 67 6 119 19zM694 501h305l-78 394z" />
    <glyph glyph-name="Aogonek" unicode="&#x105;" horiz-adv-x="1682" 
d="M1524 -278l39 -270c-71 -15 -135 -22 -193 -22c-209 0 -321 93 -321 249c0 140 91 258 214 321h-165l-37 188h-547l-108 -188h-502l1021 1632h231l388 -1632c-138 -102 -197 -163 -197 -232c0 -34 17 -65 58 -65c22 0 67 6 119 19zM694 501h305l-78 394z" />
    <glyph glyph-name="Aring" unicode="&#xc5;" horiz-adv-x="1682" 
d="M1064 1707c-140 0 -226 105 -204 234c23 133 146 234 283 234c132 0 224 -99 201 -234c-22 -128 -140 -234 -280 -234zM1013 1939c-9 -47 22 -85 73 -85c49 0 96 37 106 85c9 48 -23 87 -73 87s-97 -37 -106 -87zM1098 0l-37 188h-547l-108 -188h-502l1021 1632h231
l388 -1632h-446zM694 501h305l-78 394z" />
    <glyph glyph-name="Aring" unicode="&#xe5;" horiz-adv-x="1682" 
d="M1064 1707c-140 0 -226 105 -204 234c23 133 146 234 283 234c132 0 224 -99 201 -234c-22 -128 -140 -234 -280 -234zM1013 1939c-9 -47 22 -85 73 -85c49 0 96 37 106 85c9 48 -23 87 -73 87s-97 -37 -106 -87zM1098 0l-37 188h-547l-108 -188h-502l1021 1632h231
l388 -1632h-446zM694 501h305l-78 394z" />
    <glyph glyph-name="Atilde" unicode="&#xc3;" horiz-adv-x="1682" 
d="M942 1894c-57 0 -98 -56 -127 -125l-184 60c82 209 220 268 334 268c167 0 205 -129 293 -129c56 0 98 55 128 124l183 -60c-85 -214 -226 -268 -334 -268c-168 0 -204 130 -293 130zM925 1632h231l388 -1632h-446l-37 188h-547l-108 -188h-502zM694 501h305l-78 394z
" />
    <glyph glyph-name="Atilde" unicode="&#xe3;" horiz-adv-x="1682" 
d="M942 1894c-57 0 -98 -56 -127 -125l-184 60c82 209 220 268 334 268c167 0 205 -129 293 -129c56 0 98 55 128 124l183 -60c-85 -214 -226 -268 -334 -268c-168 0 -204 130 -293 130zM925 1632h231l388 -1632h-446l-37 188h-547l-108 -188h-502zM694 501h305l-78 394z
" />
    <glyph glyph-name="AE" unicode="&#xc6;" horiz-adv-x="2154" 
d="M2174 1214h-566l-44 -225h459l-69 -357h-459l-45 -231h567l-78 -401h-1004l45 232h-427l-150 -232h-499l1053 1612h1295zM783 589h266l115 591z" />
    <glyph glyph-name="AE" unicode="&#xe6;" horiz-adv-x="2154" 
d="M2174 1214h-566l-44 -225h459l-69 -357h-459l-45 -231h567l-78 -401h-1004l45 232h-427l-150 -232h-499l1053 1612h1295zM783 589h266l115 591z" />
    <glyph glyph-name="B" unicode="B" horiz-adv-x="1387" 
d="M1057 908c156 -3 307 -157 265 -421c-44 -276 -276 -487 -624 -487h-674l313 1612h530c286 0 455 -179 415 -420c-26 -152 -117 -260 -225 -284zM899 1111c15 75 -36 129 -136 129h-71l-49 -253h74c78 0 163 28 182 124zM909 532c20 96 -47 162 -154 162l-169 1l-59 -306
h164c125 0 201 58 218 143z" />
    <glyph glyph-name="B" unicode="b" horiz-adv-x="1387" 
d="M1057 908c156 -3 307 -157 265 -421c-44 -276 -276 -487 -624 -487h-674l313 1612h530c286 0 455 -179 415 -420c-26 -152 -117 -260 -225 -284zM899 1111c15 75 -36 129 -136 129h-71l-49 -253h74c78 0 163 28 182 124zM909 532c20 96 -47 162 -154 162l-169 1l-59 -306
h164c125 0 201 58 218 143z" />
    <glyph glyph-name="C" unicode="C" horiz-adv-x="1553" 
d="M803 -35c-496 0 -763 390 -688 861c87 552 582 854 995 819c225 -19 432 -139 536 -323l-312 -283c-90 136 -194 196 -319 196c-212 0 -411 -168 -460 -410c-49 -240 68 -454 317 -454c122 0 238 54 358 148l191 -338c-172 -143 -408 -216 -618 -216z" />
    <glyph glyph-name="C" unicode="c" horiz-adv-x="1553" 
d="M803 -35c-496 0 -763 390 -688 861c87 552 582 854 995 819c225 -19 432 -139 536 -323l-312 -283c-90 136 -194 196 -319 196c-212 0 -411 -168 -460 -410c-49 -240 68 -454 317 -454c122 0 238 54 358 148l191 -338c-172 -143 -408 -216 -618 -216z" />
    <glyph glyph-name="Cacute" unicode="&#x106;" horiz-adv-x="1553" 
d="M1043 1745h-269l237 337h335zM803 -35c-496 0 -763 390 -688 861c87 552 582 854 995 819c225 -19 432 -139 536 -323l-312 -283c-90 136 -194 196 -319 196c-212 0 -411 -168 -460 -410c-49 -240 68 -454 317 -454c122 0 238 54 358 148l191 -338
c-172 -143 -408 -216 -618 -216z" />
    <glyph glyph-name="Cacute" unicode="&#x107;" horiz-adv-x="1553" 
d="M1043 1745h-269l237 337h335zM803 -35c-496 0 -763 390 -688 861c87 552 582 854 995 819c225 -19 432 -139 536 -323l-312 -283c-90 136 -194 196 -319 196c-212 0 -411 -168 -460 -410c-49 -240 68 -454 317 -454c122 0 238 54 358 148l191 -338
c-172 -143 -408 -216 -618 -216z" />
    <glyph glyph-name="Ccaron" unicode="&#x10c;" horiz-adv-x="1553" 
d="M1511 2052l-368 -293h-219l-258 293h287l96 -122l143 122h319zM803 -35c-496 0 -763 390 -688 861c87 552 582 854 995 819c225 -19 432 -139 536 -323l-312 -283c-90 136 -194 196 -319 196c-212 0 -411 -168 -460 -410c-49 -240 68 -454 317 -454c122 0 238 54 358 148
l191 -338c-172 -143 -408 -216 -618 -216z" />
    <glyph glyph-name="Ccaron" unicode="&#x10d;" horiz-adv-x="1553" 
d="M1511 2052l-368 -293h-219l-258 293h287l96 -122l143 122h319zM803 -35c-496 0 -763 390 -688 861c87 552 582 854 995 819c225 -19 432 -139 536 -323l-312 -283c-90 136 -194 196 -319 196c-212 0 -411 -168 -460 -410c-49 -240 68 -454 317 -454c122 0 238 54 358 148
l191 -338c-172 -143 -408 -216 -618 -216z" />
    <glyph glyph-name="Ccedilla" unicode="&#xc7;" horiz-adv-x="1553" 
d="M1421 181c-155 -129 -362 -201 -555 -214l-51 -54c9 0 15 1 24 1c90 0 153 -74 144 -170c-15 -166 -230 -320 -470 -318l-80 231c194 -1 270 34 275 77c2 17 -6 46 -59 46c-13 0 -29 -2 -49 -7l-42 60l125 140c-418 58 -637 421 -568 853c87 552 582 854 995 819
c225 -19 432 -139 536 -323l-312 -283c-90 136 -194 196 -319 196c-212 0 -411 -168 -460 -410c-49 -240 68 -454 317 -454c122 0 238 54 358 148z" />
    <glyph glyph-name="Ccedilla" unicode="&#xe7;" horiz-adv-x="1553" 
d="M1421 181c-155 -129 -362 -201 -555 -214l-51 -54c9 0 15 1 24 1c90 0 153 -74 144 -170c-15 -166 -230 -320 -470 -318l-80 231c194 -1 270 34 275 77c2 17 -6 46 -59 46c-13 0 -29 -2 -49 -7l-42 60l125 140c-418 58 -637 421 -568 853c87 552 582 854 995 819
c225 -19 432 -139 536 -323l-312 -283c-90 136 -194 196 -319 196c-212 0 -411 -168 -460 -410c-49 -240 68 -454 317 -454c122 0 238 54 358 148z" />
    <glyph glyph-name="Cdotaccent" unicode="&#x10a;" horiz-adv-x="1553" 
d="M1030 1759c-94 0 -155 71 -138 157c16 86 107 161 200 161s155 -75 139 -160c-17 -88 -109 -158 -201 -158zM803 -35c-496 0 -763 390 -688 861c87 552 582 854 995 819c225 -19 432 -139 536 -323l-312 -283c-90 136 -194 196 -319 196c-212 0 -411 -168 -460 -410
c-49 -240 68 -454 317 -454c122 0 238 54 358 148l191 -338c-172 -143 -408 -216 -618 -216z" />
    <glyph glyph-name="Cdotaccent" unicode="&#x10b;" horiz-adv-x="1553" 
d="M1030 1759c-94 0 -155 71 -138 157c16 86 107 161 200 161s155 -75 139 -160c-17 -88 -109 -158 -201 -158zM803 -35c-496 0 -763 390 -688 861c87 552 582 854 995 819c225 -19 432 -139 536 -323l-312 -283c-90 136 -194 196 -319 196c-212 0 -411 -168 -460 -410
c-49 -240 68 -454 317 -454c122 0 238 54 358 148l191 -338c-172 -143 -408 -216 -618 -216z" />
    <glyph glyph-name="D" unicode="D" horiz-adv-x="1587" 
d="M863 1612c337 1 765 -196 690 -808c-97 -804 -874 -804 -1003 -804h-526l313 1611zM1114 806c37 262 -118 406 -341 406h-78l-157 -809h81c188 0 453 95 495 403z" />
    <glyph glyph-name="D" unicode="d" horiz-adv-x="1587" 
d="M863 1612c337 1 765 -196 690 -808c-97 -804 -874 -804 -1003 -804h-526l313 1611zM1114 806c37 262 -118 406 -341 406h-78l-157 -809h81c188 0 453 95 495 403z" />
    <glyph glyph-name="Eth" unicode="&#xd0;" horiz-adv-x="1652" 
d="M928 1612c338 1 765 -196 691 -808c-98 -804 -875 -804 -1004 -804h-526l130 669h-163l50 260h163l133 682zM1180 806c36 262 -118 406 -342 406h-77l-55 -284h176l-50 -259h-177l-51 -266h81c188 0 453 95 495 403z" />
    <glyph glyph-name="Eth" unicode="&#xf0;" horiz-adv-x="1652" 
d="M928 1612c338 1 765 -196 691 -808c-98 -804 -875 -804 -1004 -804h-526l130 669h-163l50 260h163l133 682zM1180 806c36 262 -118 406 -342 406h-77l-55 -284h176l-50 -259h-177l-51 -266h81c188 0 453 95 495 403z" />
    <glyph glyph-name="Dcaron" unicode="&#x10e;" horiz-adv-x="1587" 
d="M1131 1759h-219l-258 293h287l96 -122l143 122h319zM863 1612c337 1 765 -196 690 -808c-97 -804 -874 -804 -1003 -804h-526l313 1611zM1114 806c37 262 -118 406 -341 406h-78l-157 -809h81c188 0 453 95 495 403z" />
    <glyph glyph-name="Dcaron" unicode="&#x10f;" horiz-adv-x="1587" 
d="M1131 1759h-219l-258 293h287l96 -122l143 122h319zM863 1612c337 1 765 -196 690 -808c-97 -804 -874 -804 -1003 -804h-526l313 1611zM1114 806c37 262 -118 406 -341 406h-78l-157 -809h81c188 0 453 95 495 403z" />
    <glyph glyph-name="Dcroat" unicode="&#x110;" horiz-adv-x="1652" 
d="M928 1612c338 1 765 -196 691 -808c-98 -804 -875 -804 -1004 -804h-526l130 669h-163l50 260h163l133 682zM1180 806c36 262 -118 406 -342 406h-77l-55 -284h176l-50 -259h-177l-51 -266h81c188 0 453 95 495 403z" />
    <glyph glyph-name="Dcroat" unicode="&#x111;" horiz-adv-x="1652" 
d="M928 1612c338 1 765 -196 691 -808c-98 -804 -875 -804 -1004 -804h-526l130 669h-163l50 260h163l133 682zM1180 806c36 262 -118 406 -342 406h-77l-55 -284h176l-50 -259h-177l-51 -266h81c188 0 453 95 495 403z" />
    <glyph glyph-name="E" unicode="E" horiz-adv-x="1243" 
d="M1263 1214h-566l-44 -225h459l-69 -357h-459l-45 -231h567l-78 -401h-1004l313 1612h1004z" />
    <glyph glyph-name="E" unicode="e" horiz-adv-x="1243" 
d="M1263 1214h-566l-44 -225h459l-69 -357h-459l-45 -231h567l-78 -401h-1004l313 1612h1004z" />
    <glyph glyph-name="Eacute" unicode="&#xc9;" horiz-adv-x="1243" 
d="M1163 2082l-303 -337h-269l237 337h335zM1263 1214h-566l-44 -225h459l-69 -357h-459l-45 -231h567l-78 -401h-1004l313 1612h1004z" />
    <glyph glyph-name="Eacute" unicode="&#xe9;" horiz-adv-x="1243" 
d="M1163 2082l-303 -337h-269l237 337h335zM1263 1214h-566l-44 -225h459l-69 -357h-459l-45 -231h567l-78 -401h-1004l313 1612h1004z" />
    <glyph glyph-name="Ebreve" unicode="&#x114;" horiz-adv-x="1243" 
d="M857 1753c-191 0 -306 138 -275 301h192c-15 -76 33 -134 107 -134c76 0 139 55 154 134h192c-34 -182 -176 -301 -370 -301zM1263 1214h-566l-44 -225h459l-69 -357h-459l-45 -231h567l-78 -401h-1004l313 1612h1004z" />
    <glyph glyph-name="Ebreve" unicode="&#x115;" horiz-adv-x="1243" 
d="M857 1753c-191 0 -306 138 -275 301h192c-15 -76 33 -134 107 -134c76 0 139 55 154 134h192c-34 -182 -176 -301 -370 -301zM1263 1214h-566l-44 -225h459l-69 -357h-459l-45 -231h567l-78 -401h-1004l313 1612h1004z" />
    <glyph glyph-name="Ecaron" unicode="&#x11a;" horiz-adv-x="1243" 
d="M959 1759h-219l-258 293h287l96 -122l143 122h319zM1263 1214h-566l-44 -225h459l-69 -357h-459l-45 -231h567l-78 -401h-1004l313 1612h1004z" />
    <glyph glyph-name="Ecaron" unicode="&#x11b;" horiz-adv-x="1243" 
d="M959 1759h-219l-258 293h287l96 -122l143 122h319zM1263 1214h-566l-44 -225h459l-69 -357h-459l-45 -231h567l-78 -401h-1004l313 1612h1004z" />
    <glyph glyph-name="Ecircumflex" unicode="&#xca;" horiz-adv-x="1243" 
d="M887 1881l-143 -122h-319l367 293h219l259 -293h-287zM1263 1214h-566l-44 -225h459l-69 -357h-459l-45 -231h567l-78 -401h-1004l313 1612h1004z" />
    <glyph glyph-name="Ecircumflex" unicode="&#xea;" horiz-adv-x="1243" 
d="M887 1881l-143 -122h-319l367 293h219l259 -293h-287zM1263 1214h-566l-44 -225h459l-69 -357h-459l-45 -231h567l-78 -401h-1004l313 1612h1004z" />
    <glyph glyph-name="Edieresis" unicode="&#xcb;" horiz-adv-x="1243" 
d="M607 1761c-80 0 -136 62 -121 137c15 74 94 139 174 139s135 -65 120 -139c-15 -75 -93 -137 -173 -137zM1089 1761c-80 0 -135 62 -120 137c14 74 93 139 173 139s135 -65 121 -139c-15 -75 -94 -137 -174 -137zM1263 1214h-566l-44 -225h459l-69 -357h-459l-45 -231
h567l-78 -401h-1004l313 1612h1004z" />
    <glyph glyph-name="Edieresis" unicode="&#xeb;" horiz-adv-x="1243" 
d="M607 1761c-80 0 -136 62 -121 137c15 74 94 139 174 139s135 -65 120 -139c-15 -75 -93 -137 -173 -137zM1089 1761c-80 0 -135 62 -120 137c14 74 93 139 173 139s135 -65 121 -139c-15 -75 -94 -137 -174 -137zM1263 1214h-566l-44 -225h459l-69 -357h-459l-45 -231
h567l-78 -401h-1004l313 1612h1004z" />
    <glyph glyph-name="Edotaccent" unicode="&#x116;" horiz-adv-x="1243" 
d="M846 1759c-94 0 -155 71 -138 157c16 86 107 161 200 161s155 -75 139 -160c-17 -88 -109 -158 -201 -158zM1263 1214h-566l-44 -225h459l-69 -357h-459l-45 -231h567l-78 -401h-1004l313 1612h1004z" />
    <glyph glyph-name="Edotaccent" unicode="&#x117;" horiz-adv-x="1243" 
d="M846 1759c-94 0 -155 71 -138 157c16 86 107 161 200 161s155 -75 139 -160c-17 -88 -109 -158 -201 -158zM1263 1214h-566l-44 -225h459l-69 -357h-459l-45 -231h567l-78 -401h-1004l313 1612h1004z" />
    <glyph glyph-name="Egrave" unicode="&#xc8;" horiz-adv-x="1243" 
d="M1072 1745h-269l-172 337h335zM1263 1214h-566l-44 -225h459l-69 -357h-459l-45 -231h567l-78 -401h-1004l313 1612h1004z" />
    <glyph glyph-name="Egrave" unicode="&#xe8;" horiz-adv-x="1243" 
d="M1072 1745h-269l-172 337h335zM1263 1214h-566l-44 -225h459l-69 -357h-459l-45 -231h567l-78 -401h-1004l313 1612h1004z" />
    <glyph glyph-name="Emacron" unicode="&#x112;" horiz-adv-x="1243" 
d="M1222 2002l-39 -201h-656l39 201h656zM1263 1214h-566l-44 -225h459l-69 -357h-459l-45 -231h567l-78 -401h-1004l313 1612h1004z" />
    <glyph glyph-name="Emacron" unicode="&#x113;" horiz-adv-x="1243" 
d="M1222 2002l-39 -201h-656l39 201h656zM1263 1214h-566l-44 -225h459l-69 -357h-459l-45 -231h567l-78 -401h-1004l313 1612h1004z" />
    <glyph glyph-name="Eogonek" unicode="&#x118;" horiz-adv-x="1243" 
d="M1263 1214h-566l-44 -225h459l-69 -357h-459l-45 -231h567l-78 -401h-37c-129 -96 -184 -155 -184 -222c0 -34 17 -65 58 -65c22 0 67 6 119 19l39 -270c-71 -15 -135 -22 -193 -22c-209 0 -321 93 -321 249c0 133 82 246 195 311h-680l313 1612h1004z" />
    <glyph glyph-name="Eogonek" unicode="&#x119;" horiz-adv-x="1243" 
d="M1263 1214h-566l-44 -225h459l-69 -357h-459l-45 -231h567l-78 -401h-37c-129 -96 -184 -155 -184 -222c0 -34 17 -65 58 -65c22 0 67 6 119 19l39 -270c-71 -15 -135 -22 -193 -22c-209 0 -321 93 -321 249c0 133 82 246 195 311h-680l313 1612h1004z" />
    <glyph glyph-name="F" unicode="F" horiz-adv-x="1187" 
d="M1263 1214h-567l-50 -261h459l-70 -358h-459l-116 -597h-437l315 1618h1004z" />
    <glyph glyph-name="F" unicode="f" horiz-adv-x="1187" 
d="M1263 1214h-567l-50 -261h459l-70 -358h-459l-116 -597h-437l315 1618h1004z" />
    <glyph glyph-name="G" unicode="G" horiz-adv-x="1780" 
d="M967 926h790c-1 -59 -6 -110 -14 -157c-81 -461 -427 -807 -922 -807c-502 0 -784 356 -709 848c81 533 520 847 998 834c232 -9 411 -128 509 -256l-299 -325c-68 98 -157 183 -302 183c-205 0 -420 -171 -469 -436c-51 -274 115 -446 331 -446c201 0 328 160 353 243
h-328z" />
    <glyph glyph-name="G" unicode="g" horiz-adv-x="1780" 
d="M967 926h790c-1 -59 -6 -110 -14 -157c-81 -461 -427 -807 -922 -807c-502 0 -784 356 -709 848c81 533 520 847 998 834c232 -9 411 -128 509 -256l-299 -325c-68 98 -157 183 -302 183c-205 0 -420 -171 -469 -436c-51 -274 115 -446 331 -446c201 0 328 160 353 243
h-328z" />
    <glyph glyph-name="Gbreve" unicode="&#x11e;" horiz-adv-x="1780" 
d="M1126 1753c-191 0 -306 138 -275 301h192c-15 -76 33 -134 107 -134c76 0 139 55 154 134h192c-34 -182 -176 -301 -370 -301zM967 926h790c-1 -59 -6 -110 -14 -157c-81 -461 -427 -807 -922 -807c-502 0 -784 356 -709 848c81 533 520 847 998 834
c232 -9 411 -128 509 -256l-299 -325c-68 98 -157 183 -302 183c-205 0 -420 -171 -469 -436c-51 -274 115 -446 331 -446c201 0 328 160 353 243h-328z" />
    <glyph glyph-name="Gbreve" unicode="&#x11f;" horiz-adv-x="1780" 
d="M1126 1753c-191 0 -306 138 -275 301h192c-15 -76 33 -134 107 -134c76 0 139 55 154 134h192c-34 -182 -176 -301 -370 -301zM967 926h790c-1 -59 -6 -110 -14 -157c-81 -461 -427 -807 -922 -807c-502 0 -784 356 -709 848c81 533 520 847 998 834
c232 -9 411 -128 509 -256l-299 -325c-68 98 -157 183 -302 183c-205 0 -420 -171 -469 -436c-51 -274 115 -446 331 -446c201 0 328 160 353 243h-328z" />
    <glyph glyph-name="uni0122" unicode="&#x122;" horiz-adv-x="1780" 
d="M967 926h790c-1 -59 -6 -110 -14 -157c-81 -461 -427 -807 -922 -807c-502 0 -784 356 -709 848c81 533 520 847 998 834c232 -9 411 -128 509 -256l-299 -325c-68 98 -157 183 -302 183c-205 0 -420 -171 -469 -436c-51 -274 115 -446 331 -446c201 0 328 160 353 243
h-328zM745 -119c105 0 173 -80 152 -207c-25 -151 -158 -292 -311 -292c-65 0 -102 29 -100 46c47 0 146 30 163 114c5 25 2 37 -4 46c-65 0 -123 56 -109 134c16 87 106 159 209 159z" />
    <glyph glyph-name="uni0122" unicode="&#x123;" horiz-adv-x="1780" 
d="M967 926h790c-1 -59 -6 -110 -14 -157c-81 -461 -427 -807 -922 -807c-502 0 -784 356 -709 848c81 533 520 847 998 834c232 -9 411 -128 509 -256l-299 -325c-68 98 -157 183 -302 183c-205 0 -420 -171 -469 -436c-51 -274 115 -446 331 -446c201 0 328 160 353 243
h-328zM745 -119c105 0 173 -80 152 -207c-25 -151 -158 -292 -311 -292c-65 0 -102 29 -100 46c47 0 146 30 163 114c5 25 2 37 -4 46c-65 0 -123 56 -109 134c16 87 106 159 209 159z" />
    <glyph glyph-name="Gdotaccent" unicode="&#x120;" horiz-adv-x="1780" 
d="M1115 1759c-94 0 -155 71 -138 157c16 86 107 161 200 161s155 -75 139 -160c-17 -88 -109 -158 -201 -158zM967 926h790c-1 -59 -6 -110 -14 -157c-81 -461 -427 -807 -922 -807c-502 0 -784 356 -709 848c81 533 520 847 998 834c232 -9 411 -128 509 -256l-299 -325
c-68 98 -157 183 -302 183c-205 0 -420 -171 -469 -436c-51 -274 115 -446 331 -446c201 0 328 160 353 243h-328z" />
    <glyph glyph-name="Gdotaccent" unicode="&#x121;" horiz-adv-x="1780" 
d="M1115 1759c-94 0 -155 71 -138 157c16 86 107 161 200 161s155 -75 139 -160c-17 -88 -109 -158 -201 -158zM967 926h790c-1 -59 -6 -110 -14 -157c-81 -461 -427 -807 -922 -807c-502 0 -784 356 -709 848c81 533 520 847 998 834c232 -9 411 -128 509 -256l-299 -325
c-68 98 -157 183 -302 183c-205 0 -420 -171 -469 -436c-51 -274 115 -446 331 -446c201 0 328 160 353 243h-328z" />
    <glyph glyph-name="H" unicode="H" horiz-adv-x="1566" 
d="M1185 1612h437l-313 -1612h-437l118 607h-411l-118 -607h-437l313 1612h437l-117 -605h411z" />
    <glyph glyph-name="H" unicode="h" horiz-adv-x="1566" 
d="M1185 1612h437l-313 -1612h-437l118 607h-411l-118 -607h-437l313 1612h437l-117 -605h411z" />
    <glyph glyph-name="Hbar" unicode="&#x126;" horiz-adv-x="1566" 
d="M1715 1388l-44 -230h-137l-225 -1158h-437l118 607h-411l-118 -607h-437l225 1158h-155l44 230h156l43 224h437l-43 -224h411l43 224h437l-43 -224h136zM1068 1007l29 151h-411l-29 -151h411z" />
    <glyph glyph-name="Hbar" unicode="&#x127;" horiz-adv-x="1566" 
d="M1715 1388l-44 -230h-137l-225 -1158h-437l118 607h-411l-118 -607h-437l225 1158h-155l44 230h156l43 224h437l-43 -224h411l43 224h437l-43 -224h136zM1068 1007l29 151h-411l-29 -151h411z" />
    <glyph glyph-name="I" unicode="I" horiz-adv-x="718" 
d="M24 0l313 1612h437l-313 -1612h-437z" />
    <glyph glyph-name="Iacute" unicode="&#xcd;" horiz-adv-x="718" 
d="M597 1745h-269l237 337h335zM24 0l313 1612h437l-313 -1612h-437z" />
    <glyph glyph-name="Iacute" unicode="&#xed;" horiz-adv-x="718" 
d="M597 1745h-269l237 337h335zM24 0l313 1612h437l-313 -1612h-437z" />
    <glyph glyph-name="Icircumflex" unicode="&#xce;" horiz-adv-x="718" 
d="M162 1759l367 293h219l259 -293h-287l-96 122l-143 -122h-319zM24 0l313 1612h437l-313 -1612h-437z" />
    <glyph glyph-name="Icircumflex" unicode="&#xee;" horiz-adv-x="718" 
d="M162 1759l367 293h219l259 -293h-287l-96 122l-143 -122h-319zM24 0l313 1612h437l-313 -1612h-437z" />
    <glyph glyph-name="Idieresis" unicode="&#xcf;" horiz-adv-x="718" 
d="M344 1761c-80 0 -136 62 -121 137c15 74 94 139 174 139s135 -65 120 -139c-15 -75 -93 -137 -173 -137zM826 1761c-80 0 -135 62 -120 137c14 74 93 139 173 139s135 -65 121 -139c-15 -75 -94 -137 -174 -137zM24 0l313 1612h437l-313 -1612h-437z" />
    <glyph glyph-name="Idieresis" unicode="&#xef;" horiz-adv-x="718" 
d="M344 1761c-80 0 -136 62 -121 137c15 74 94 139 174 139s135 -65 120 -139c-15 -75 -93 -137 -173 -137zM826 1761c-80 0 -135 62 -120 137c14 74 93 139 173 139s135 -65 121 -139c-15 -75 -94 -137 -174 -137zM24 0l313 1612h437l-313 -1612h-437z" />
    <glyph glyph-name="Idotaccent" unicode="&#x130;" horiz-adv-x="718" 
d="M584 1759c-94 0 -155 71 -138 157c16 86 107 161 200 161s155 -75 139 -160c-17 -88 -109 -158 -201 -158zM24 0l313 1612h437l-313 -1612h-437z" />
    <glyph glyph-name="Igrave" unicode="&#xcc;" horiz-adv-x="718" 
d="M541 1745l-172 337h335l106 -337h-269zM24 0l313 1612h437l-313 -1612h-437z" />
    <glyph glyph-name="Igrave" unicode="&#xec;" horiz-adv-x="718" 
d="M541 1745l-172 337h335l106 -337h-269zM24 0l313 1612h437l-313 -1612h-437z" />
    <glyph glyph-name="Imacron" unicode="&#x12a;" horiz-adv-x="718" 
d="M265 1801l39 201h656l-39 -201h-656zM24 0l313 1612h437l-313 -1612h-437z" />
    <glyph glyph-name="Imacron" unicode="&#x12b;" horiz-adv-x="718" 
d="M265 1801l39 201h656l-39 -201h-656zM24 0l313 1612h437l-313 -1612h-437z" />
    <glyph glyph-name="Iogonek" unicode="&#x12e;" horiz-adv-x="718" 
d="M322 -297c22 0 67 6 119 19l39 -270c-71 -15 -135 -22 -193 -22c-209 0 -321 93 -321 249c0 140 91 258 214 321h-156l313 1612h437l-313 -1612c-138 -102 -197 -163 -197 -232c0 -34 17 -65 58 -65z" />
    <glyph glyph-name="Iogonek" unicode="&#x12f;" horiz-adv-x="718" 
d="M322 -297c22 0 67 6 119 19l39 -270c-71 -15 -135 -22 -193 -22c-209 0 -321 93 -321 249c0 140 91 258 214 321h-156l313 1612h437l-313 -1612c-138 -102 -197 -163 -197 -232c0 -34 17 -65 58 -65z" />
    <glyph glyph-name="J" unicode="J" horiz-adv-x="1189" 
d="M316 -26c-192 0 -286 68 -365 160l248 309c38 -42 91 -66 163 -66c144 0 240 90 269 245l185 990l437 -1l-186 -991c-80 -423 -336 -646 -751 -646z" />
    <glyph glyph-name="J" unicode="j" horiz-adv-x="1189" 
d="M316 -26c-192 0 -286 68 -365 160l248 309c38 -42 91 -66 163 -66c144 0 240 90 269 245l185 990l437 -1l-186 -991c-80 -423 -336 -646 -751 -646z" />
    <glyph glyph-name="K" unicode="K" horiz-adv-x="1482" 
d="M1635 1612l-631 -804l347 -808h-471l-287 680l-132 -680h-437l313 1612h437l-116 -596l457 596h520z" />
    <glyph glyph-name="K" unicode="k" horiz-adv-x="1482" 
d="M1635 1612l-631 -804l347 -808h-471l-287 680l-132 -680h-437l313 1612h437l-116 -596l457 596h520z" />
    <glyph glyph-name="uni0136" unicode="&#x136;" horiz-adv-x="1482" 
d="M1635 1612l-631 -804l347 -808h-471l-287 680l-132 -680h-437l313 1612h437l-116 -596l457 596h520zM596 -119c105 0 173 -80 152 -207c-25 -151 -158 -292 -311 -292c-65 0 -102 29 -100 46c47 0 146 30 163 114c5 25 2 37 -4 46c-65 0 -123 56 -109 134
c16 87 106 159 209 159z" />
    <glyph glyph-name="uni0136" unicode="&#x137;" horiz-adv-x="1482" 
d="M1635 1612l-631 -804l347 -808h-471l-287 680l-132 -680h-437l313 1612h437l-116 -596l457 596h520zM596 -119c105 0 173 -80 152 -207c-25 -151 -158 -292 -311 -292c-65 0 -102 29 -100 46c47 0 146 30 163 114c5 25 2 37 -4 46c-65 0 -123 56 -109 134
c16 87 106 159 209 159z" />
    <glyph glyph-name="L" unicode="L" horiz-adv-x="1193" 
d="M543 402h569l-78 -402h-1010l313 1612h440z" />
    <glyph glyph-name="L" unicode="l" horiz-adv-x="1193" 
d="M543 402h569l-78 -402h-1010l313 1612h440z" />
    <glyph glyph-name="Lacute" unicode="&#x139;" horiz-adv-x="1193" 
d="M1151 2082l-303 -337h-269l237 337h335zM777 1612l-234 -1210h569l-78 -402h-1010l313 1612h440z" />
    <glyph glyph-name="Lacute" unicode="&#x13a;" horiz-adv-x="1193" 
d="M1151 2082l-303 -337h-269l237 337h335zM777 1612l-234 -1210h569l-78 -402h-1010l313 1612h440z" />
    <glyph glyph-name="Lcaron" unicode="&#x13d;" horiz-adv-x="1193" 
d="M1053 1712h280l-212 -470h-230zM777 1612l-234 -1210h569l-78 -402h-1010l313 1612h440z" />
    <glyph glyph-name="Lcaron" unicode="&#x13e;" horiz-adv-x="1193" 
d="M1053 1712h280l-212 -470h-230zM777 1612l-234 -1210h569l-78 -402h-1010l313 1612h440z" />
    <glyph glyph-name="uni013B" unicode="&#x13b;" horiz-adv-x="1193" 
d="M543 402h569l-78 -402h-1010l313 1612h440zM490 -119c105 0 173 -80 152 -207c-25 -151 -158 -292 -311 -292c-65 0 -102 29 -100 46c47 0 146 30 163 114c5 25 2 37 -4 46c-65 0 -123 56 -109 134c16 87 106 159 209 159z" />
    <glyph glyph-name="uni013B" unicode="&#x13c;" horiz-adv-x="1193" 
d="M543 402h569l-78 -402h-1010l313 1612h440zM490 -119c105 0 173 -80 152 -207c-25 -151 -158 -292 -311 -292c-65 0 -102 29 -100 46c47 0 146 30 163 114c5 25 2 37 -4 46c-65 0 -123 56 -109 134c16 87 106 159 209 159z" />
    <glyph glyph-name="Lslash" unicode="&#x141;" horiz-adv-x="1193" 
d="M543 402h569l-78 -402h-1010l100 514l-160 -95l61 310l159 94l153 789h440l-95 -493l203 121l-60 -311l-204 -121z" />
    <glyph glyph-name="Lslash" unicode="&#x142;" horiz-adv-x="1193" 
d="M543 402h569l-78 -402h-1010l100 514l-160 -95l61 310l159 94l153 789h440l-95 -493l203 121l-60 -311l-204 -121z" />
    <glyph glyph-name="M" unicode="M" horiz-adv-x="1954" 
d="M1778 1627h235l-316 -1627h-438l121 623l-523 -596h-2l-273 589l-120 -616h-438l316 1627h196l427 -927z" />
    <glyph glyph-name="M" unicode="m" horiz-adv-x="1954" 
d="M1778 1627h235l-316 -1627h-438l121 623l-523 -596h-2l-273 589l-120 -616h-438l316 1627h196l427 -927z" />
    <glyph glyph-name="N" unicode="N" horiz-adv-x="1618" 
d="M1237 1614h438l-317 -1630h-147l-601 789l-150 -774h-437l317 1629h149l598 -786z" />
    <glyph glyph-name="N" unicode="n" horiz-adv-x="1618" 
d="M1237 1614h438l-317 -1630h-147l-601 789l-150 -774h-437l317 1629h149l598 -786z" />
    <glyph glyph-name="Nacute" unicode="&#x143;" horiz-adv-x="1618" 
d="M1350 2082l-303 -337h-269l237 337h335zM1237 1614h438l-317 -1630h-147l-601 789l-150 -774h-437l317 1629h149l598 -786z" />
    <glyph glyph-name="Nacute" unicode="&#x144;" horiz-adv-x="1618" 
d="M1350 2082l-303 -337h-269l237 337h335zM1237 1614h438l-317 -1630h-147l-601 789l-150 -774h-437l317 1629h149l598 -786z" />
    <glyph glyph-name="Ncaron" unicode="&#x147;" horiz-adv-x="1618" 
d="M1146 1759h-219l-258 293h287l96 -122l143 122h319zM1237 1614h438l-317 -1630h-147l-601 789l-150 -774h-437l317 1629h149l598 -786z" />
    <glyph glyph-name="Ncaron" unicode="&#x148;" horiz-adv-x="1618" 
d="M1146 1759h-219l-258 293h287l96 -122l143 122h319zM1237 1614h438l-317 -1630h-147l-601 789l-150 -774h-437l317 1629h149l598 -786z" />
    <glyph glyph-name="uni0145" unicode="&#x145;" horiz-adv-x="1618" 
d="M1237 1614h438l-317 -1630h-147l-601 789l-150 -774h-437l317 1629h149l598 -786zM698 -119c105 0 173 -80 152 -207c-25 -151 -158 -292 -311 -292c-65 0 -102 29 -100 46c47 0 146 30 163 114c5 25 2 37 -4 46c-65 0 -123 56 -109 134c16 87 106 159 209 159z" />
    <glyph glyph-name="uni0145" unicode="&#x146;" horiz-adv-x="1618" 
d="M1237 1614h438l-317 -1630h-147l-601 789l-150 -774h-437l317 1629h149l598 -786zM698 -119c105 0 173 -80 152 -207c-25 -151 -158 -292 -311 -292c-65 0 -102 29 -100 46c47 0 146 30 163 114c5 25 2 37 -4 46c-65 0 -123 56 -109 134c16 87 106 159 209 159z" />
    <glyph glyph-name="Eng" unicode="&#x14a;" horiz-adv-x="1618" 
d="M1675 1614l-317 -1629l1 -1l-8 -42c-42 -209 -212 -377 -450 -468l-201 175c118 61 211 149 238 287l62 324l-390 513l-150 -774h-437l317 1629h149l598 -786l150 772h438z" />
    <glyph glyph-name="Eng" unicode="&#x14b;" horiz-adv-x="1618" 
d="M1675 1614l-317 -1629l1 -1l-8 -42c-42 -209 -212 -377 -450 -468l-201 175c118 61 211 149 238 287l62 324l-390 513l-150 -774h-437l317 1629h149l598 -786l150 772h438z" />
    <glyph glyph-name="Ntilde" unicode="&#xd1;" horiz-adv-x="1618" 
d="M910 1894c-57 0 -98 -56 -127 -125l-184 60c82 209 220 268 334 268c167 0 205 -129 293 -129c56 0 98 55 128 124l183 -60c-85 -214 -226 -268 -334 -268c-168 0 -204 130 -293 130zM1237 1614h438l-317 -1630h-147l-601 789l-150 -774h-437l317 1629h149l598 -786z" />
    <glyph glyph-name="Ntilde" unicode="&#xf1;" horiz-adv-x="1618" 
d="M910 1894c-57 0 -98 -56 -127 -125l-184 60c82 209 220 268 334 268c167 0 205 -129 293 -129c56 0 98 55 128 124l183 -60c-85 -214 -226 -268 -334 -268c-168 0 -204 130 -293 130zM1237 1614h438l-317 -1630h-147l-601 789l-150 -774h-437l317 1629h149l598 -786z" />
    <glyph glyph-name="O" unicode="O" horiz-adv-x="1780" 
d="M777 -36c-455 25 -728 365 -665 840c67 510 479 859 967 832c460 -25 730 -371 666 -846c-69 -512 -485 -852 -968 -826zM851 367c232 -8 418 186 458 431c41 250 -88 431 -302 437c-225 8 -418 -178 -459 -431c-39 -240 79 -430 303 -437z" />
    <glyph glyph-name="O" unicode="o" horiz-adv-x="1780" 
d="M777 -36c-455 25 -728 365 -665 840c67 510 479 859 967 832c460 -25 730 -371 666 -846c-69 -512 -485 -852 -968 -826zM851 367c232 -8 418 186 458 431c41 250 -88 431 -302 437c-225 8 -418 -178 -459 -431c-39 -240 79 -430 303 -437z" />
    <glyph glyph-name="Oacute" unicode="&#xd3;" horiz-adv-x="1780" 
d="M1129 1745h-269l237 337h335zM777 -36c-455 25 -728 365 -665 840c67 510 479 859 967 832c460 -25 730 -371 666 -846c-69 -512 -485 -852 -968 -826zM851 367c232 -8 418 186 458 431c41 250 -88 431 -302 437c-225 8 -418 -178 -459 -431c-39 -240 79 -430 303 -437z
" />
    <glyph glyph-name="Oacute" unicode="&#xf3;" horiz-adv-x="1780" 
d="M1129 1745h-269l237 337h335zM777 -36c-455 25 -728 365 -665 840c67 510 479 859 967 832c460 -25 730 -371 666 -846c-69 -512 -485 -852 -968 -826zM851 367c232 -8 418 186 458 431c41 250 -88 431 -302 437c-225 8 -418 -178 -459 -431c-39 -240 79 -430 303 -437z
" />
    <glyph glyph-name="Ocircumflex" unicode="&#xd4;" horiz-adv-x="1780" 
d="M694 1759l367 293h219l259 -293h-287l-96 122l-143 -122h-319zM777 -36c-455 25 -728 365 -665 840c67 510 479 859 967 832c460 -25 730 -371 666 -846c-69 -512 -485 -852 -968 -826zM851 367c232 -8 418 186 458 431c41 250 -88 431 -302 437
c-225 8 -418 -178 -459 -431c-39 -240 79 -430 303 -437z" />
    <glyph glyph-name="Ocircumflex" unicode="&#xf4;" horiz-adv-x="1780" 
d="M694 1759l367 293h219l259 -293h-287l-96 122l-143 -122h-319zM777 -36c-455 25 -728 365 -665 840c67 510 479 859 967 832c460 -25 730 -371 666 -846c-69 -512 -485 -852 -968 -826zM851 367c232 -8 418 186 458 431c41 250 -88 431 -302 437
c-225 8 -418 -178 -459 -431c-39 -240 79 -430 303 -437z" />
    <glyph glyph-name="Odieresis" unicode="&#xd6;" horiz-adv-x="1780" 
d="M876 1761c-80 0 -136 62 -121 137c15 74 94 139 174 139s135 -65 120 -139c-15 -75 -93 -137 -173 -137zM1358 1761c-80 0 -135 62 -120 137c14 74 93 139 173 139s135 -65 121 -139c-15 -75 -94 -137 -174 -137zM777 -36c-455 25 -728 365 -665 840
c67 510 479 859 967 832c460 -25 730 -371 666 -846c-69 -512 -485 -852 -968 -826zM851 367c232 -8 418 186 458 431c41 250 -88 431 -302 437c-225 8 -418 -178 -459 -431c-39 -240 79 -430 303 -437z" />
    <glyph glyph-name="Odieresis" unicode="&#xf6;" horiz-adv-x="1780" 
d="M876 1761c-80 0 -136 62 -121 137c15 74 94 139 174 139s135 -65 120 -139c-15 -75 -93 -137 -173 -137zM1358 1761c-80 0 -135 62 -120 137c14 74 93 139 173 139s135 -65 121 -139c-15 -75 -94 -137 -174 -137zM777 -36c-455 25 -728 365 -665 840
c67 510 479 859 967 832c460 -25 730 -371 666 -846c-69 -512 -485 -852 -968 -826zM851 367c232 -8 418 186 458 431c41 250 -88 431 -302 437c-225 8 -418 -178 -459 -431c-39 -240 79 -430 303 -437z" />
    <glyph glyph-name="Ograve" unicode="&#xd2;" horiz-adv-x="1780" 
d="M1072 1745l-172 337h335l106 -337h-269zM777 -36c-455 25 -728 365 -665 840c67 510 479 859 967 832c460 -25 730 -371 666 -846c-69 -512 -485 -852 -968 -826zM851 367c232 -8 418 186 458 431c41 250 -88 431 -302 437c-225 8 -418 -178 -459 -431
c-39 -240 79 -430 303 -437z" />
    <glyph glyph-name="Ograve" unicode="&#xf2;" horiz-adv-x="1780" 
d="M1072 1745l-172 337h335l106 -337h-269zM777 -36c-455 25 -728 365 -665 840c67 510 479 859 967 832c460 -25 730 -371 666 -846c-69 -512 -485 -852 -968 -826zM851 367c232 -8 418 186 458 431c41 250 -88 431 -302 437c-225 8 -418 -178 -459 -431
c-39 -240 79 -430 303 -437z" />
    <glyph glyph-name="Ohungarumlaut" unicode="&#x150;" horiz-adv-x="1780" 
d="M694 1745l203 337h299l-262 -337h-240zM1079 1745l274 337h335l-355 -337h-254zM777 -36c-455 25 -728 365 -665 840c67 510 479 859 967 832c460 -25 730 -371 666 -846c-69 -512 -485 -852 -968 -826zM851 367c232 -8 418 186 458 431c41 250 -88 431 -302 437
c-225 8 -418 -178 -459 -431c-39 -240 79 -430 303 -437z" />
    <glyph glyph-name="Ohungarumlaut" unicode="&#x151;" horiz-adv-x="1780" 
d="M694 1745l203 337h299l-262 -337h-240zM1079 1745l274 337h335l-355 -337h-254zM777 -36c-455 25 -728 365 -665 840c67 510 479 859 967 832c460 -25 730 -371 666 -846c-69 -512 -485 -852 -968 -826zM851 367c232 -8 418 186 458 431c41 250 -88 431 -302 437
c-225 8 -418 -178 -459 -431c-39 -240 79 -430 303 -437z" />
    <glyph glyph-name="Omacron" unicode="&#x14c;" horiz-adv-x="1780" 
d="M796 1801l39 201h656l-39 -201h-656zM777 -36c-455 25 -728 365 -665 840c67 510 479 859 967 832c460 -25 730 -371 666 -846c-69 -512 -485 -852 -968 -826zM851 367c232 -8 418 186 458 431c41 250 -88 431 -302 437c-225 8 -418 -178 -459 -431
c-39 -240 79 -430 303 -437z" />
    <glyph glyph-name="Omacron" unicode="&#x14d;" horiz-adv-x="1780" 
d="M796 1801l39 201h656l-39 -201h-656zM777 -36c-455 25 -728 365 -665 840c67 510 479 859 967 832c460 -25 730 -371 666 -846c-69 -512 -485 -852 -968 -826zM851 367c232 -8 418 186 458 431c41 250 -88 431 -302 437c-225 8 -418 -178 -459 -431
c-39 -240 79 -430 303 -437z" />
    <glyph glyph-name="Oslash" unicode="&#xd8;" horiz-adv-x="1780" 
d="M1868 1672l-258 -292c116 -149 167 -353 135 -590c-69 -512 -485 -852 -968 -826c-128 7 -242 39 -338 92l-103 -116h-343l251 283c-113 147 -163 348 -132 581c67 510 479 859 967 832c127 -7 240 -38 335 -90l112 126h342zM548 804c-13 -82 -8 -158 13 -223l559 632
c-34 13 -72 21 -113 22c-225 8 -418 -178 -459 -431zM1309 798c14 85 8 162 -14 227l-561 -635c35 -14 74 -22 117 -23c232 -8 418 186 458 431z" />
    <glyph glyph-name="Oslash" unicode="&#xf8;" horiz-adv-x="1780" 
d="M1868 1672l-258 -292c116 -149 167 -353 135 -590c-69 -512 -485 -852 -968 -826c-128 7 -242 39 -338 92l-103 -116h-343l251 283c-113 147 -163 348 -132 581c67 510 479 859 967 832c127 -7 240 -38 335 -90l112 126h342zM548 804c-13 -82 -8 -158 13 -223l559 632
c-34 13 -72 21 -113 22c-225 8 -418 -178 -459 -431zM1309 798c14 85 8 162 -14 227l-561 -635c35 -14 74 -22 117 -23c232 -8 418 186 458 431z" />
    <glyph glyph-name="Otilde" unicode="&#xd5;" horiz-adv-x="1780" 
d="M864 1769l-184 60c82 209 220 268 334 268c167 0 205 -129 293 -129c56 0 98 55 128 124l183 -60c-85 -214 -226 -268 -334 -268c-168 0 -204 130 -293 130c-57 0 -98 -56 -127 -125zM777 -36c-455 25 -728 365 -665 840c67 510 479 859 967 832
c460 -25 730 -371 666 -846c-69 -512 -485 -852 -968 -826zM851 367c232 -8 418 186 458 431c41 250 -88 431 -302 437c-225 8 -418 -178 -459 -431c-39 -240 79 -430 303 -437z" />
    <glyph glyph-name="Otilde" unicode="&#xf5;" horiz-adv-x="1780" 
d="M864 1769l-184 60c82 209 220 268 334 268c167 0 205 -129 293 -129c56 0 98 55 128 124l183 -60c-85 -214 -226 -268 -334 -268c-168 0 -204 130 -293 130c-57 0 -98 -56 -127 -125zM777 -36c-455 25 -728 365 -665 840c67 510 479 859 967 832
c460 -25 730 -371 666 -846c-69 -512 -485 -852 -968 -826zM851 367c232 -8 418 186 458 431c41 250 -88 431 -302 437c-225 8 -418 -178 -459 -431c-39 -240 79 -430 303 -437z" />
    <glyph glyph-name="OE" unicode="&#x152;" horiz-adv-x="2543" 
d="M2563 1214h-566l-44 -225h459l-69 -357h-459l-45 -231h567l-78 -401h-1004l32 166c-152 -139 -350 -214 -579 -202c-455 25 -728 365 -665 840c67 510 475 858 967 832c241 -12 413 -109 510 -271l48 247h1004zM1309 799c41 249 -88 429 -302 436
c-225 8 -418 -178 -459 -431c-39 -240 79 -429 303 -437c232 -8 418 185 458 432z" />
    <glyph glyph-name="OE" unicode="&#x153;" horiz-adv-x="2543" 
d="M2563 1214h-566l-44 -225h459l-69 -357h-459l-45 -231h567l-78 -401h-1004l32 166c-152 -139 -350 -214 -579 -202c-455 25 -728 365 -665 840c67 510 475 858 967 832c241 -12 413 -109 510 -271l48 247h1004zM1309 799c41 249 -88 429 -302 436
c-225 8 -418 -178 -459 -431c-39 -240 79 -429 303 -437c232 -8 418 185 458 432z" />
    <glyph glyph-name="P" unicode="P" horiz-adv-x="1353" 
d="M24 0l313 1612h555c319 0 554 -218 502 -580c-49 -341 -315 -557 -723 -557h-117l-93 -475h-437zM748 869c140 -1 221 64 238 166c17 109 -53 182 -171 182h-117l-68 -347z" />
    <glyph glyph-name="P" unicode="p" horiz-adv-x="1353" 
d="M24 0l313 1612h555c319 0 554 -218 502 -580c-49 -341 -315 -557 -723 -557h-117l-93 -475h-437zM748 869c140 -1 221 64 238 166c17 109 -53 182 -171 182h-117l-68 -347z" />
    <glyph glyph-name="Thorn" unicode="&#xde;" horiz-adv-x="1426" 
d="M24 0l313 1612h437l-47 -245h184c272 0 539 -189 485 -556c-46 -312 -307 -546 -699 -546h-184l-52 -265h-437zM585 641h166c120 0 201 66 217 171c16 112 -55 181 -146 181h-167z" />
    <glyph glyph-name="Thorn" unicode="&#xfe;" horiz-adv-x="1426" 
d="M24 0l313 1612h437l-47 -245h184c272 0 539 -189 485 -556c-46 -312 -307 -546 -699 -546h-184l-52 -265h-437zM585 641h166c120 0 201 66 217 171c16 112 -55 181 -146 181h-167z" />
    <glyph glyph-name="Q" unicode="Q" horiz-adv-x="1820" 
d="M1745 790c-39 -291 -191 -527 -403 -671c98 -37 218 -63 350 -67l-202 -354c-283 21 -445 136 -564 270c-49 -5 -98 -7 -149 -4c-455 25 -728 365 -665 840c67 510 479 859 967 832c460 -25 730 -371 666 -846zM851 367c232 -8 418 186 458 431c41 250 -88 431 -302 437
c-225 8 -418 -178 -459 -431c-39 -240 79 -430 303 -437z" />
    <glyph glyph-name="Q" unicode="q" horiz-adv-x="1820" 
d="M1745 790c-39 -291 -191 -527 -403 -671c98 -37 218 -63 350 -67l-202 -354c-283 21 -445 136 -564 270c-49 -5 -98 -7 -149 -4c-455 25 -728 365 -665 840c67 510 479 859 967 832c460 -25 730 -371 666 -846zM851 367c232 -8 418 186 458 431c41 250 -88 431 -302 437
c-225 8 -418 -178 -459 -431c-39 -240 79 -430 303 -437z" />
    <glyph glyph-name="Q.ss04" horiz-adv-x="1899" 
d="M1079 1636c460 -25 730 -371 666 -846c-28 -205 -111 -382 -232 -520l199 -270h-431l-43 58c-138 -69 -296 -103 -461 -94c-455 25 -728 365 -665 840c67 510 479 859 967 832zM1179 724l73 -100c27 53 47 112 57 174c41 250 -88 431 -302 437
c-225 8 -418 -178 -459 -431c-39 -240 79 -430 303 -437c50 -2 98 6 143 22l-247 335h432z" />
    <glyph glyph-name="R" unicode="R" horiz-adv-x="1480" 
d="M1380 1059c-35 -209 -175 -371 -365 -430l334 -629h-471l-296 618l-120 -618h-436l311 1612h541c327 0 559 -216 502 -553zM698 1222l-61 -313l116 -1c107 -2 186 59 200 152s-48 162 -139 162h-116z" />
    <glyph glyph-name="R" unicode="r" horiz-adv-x="1480" 
d="M1380 1059c-35 -209 -175 -371 -365 -430l334 -629h-471l-296 618l-120 -618h-436l311 1612h541c327 0 559 -216 502 -553zM698 1222l-61 -313l116 -1c107 -2 186 59 200 152s-48 162 -139 162h-116z" />
    <glyph glyph-name="R.ss04" horiz-adv-x="1417" 
d="M1404 1042c-33 -195 -151 -347 -315 -429l197 -613h-449l-127 546h-142l-106 -546h-437l312 1612h559c334 0 567 -224 508 -570zM698 1222l-67 -343l131 -2c123 -1 200 73 214 169c15 100 -45 176 -147 176h-131z" />
    <glyph glyph-name="Racute" unicode="&#x154;" horiz-adv-x="1480" 
d="M1282 2082l-303 -337h-269l237 337h335zM1380 1059c-35 -209 -175 -371 -365 -430l334 -629h-471l-296 618l-120 -618h-436l311 1612h541c327 0 559 -216 502 -553zM698 1222l-61 -313l116 -1c107 -2 186 59 200 152s-48 162 -139 162h-116z" />
    <glyph glyph-name="Racute" unicode="&#x155;" horiz-adv-x="1480" 
d="M1282 2082l-303 -337h-269l237 337h335zM1380 1059c-35 -209 -175 -371 -365 -430l334 -629h-471l-296 618l-120 -618h-436l311 1612h541c327 0 559 -216 502 -553zM698 1222l-61 -313l116 -1c107 -2 186 59 200 152s-48 162 -139 162h-116z" />
    <glyph glyph-name="Rcaron" unicode="&#x158;" horiz-adv-x="1480" 
d="M1078 1759h-219l-258 293h287l96 -122l143 122h319zM878 1612c327 0 559 -216 502 -553c-35 -209 -175 -371 -365 -430l334 -629h-471l-296 618l-120 -618h-436l311 1612h541zM698 1222l-61 -313l116 -1c107 -2 186 59 200 152s-48 162 -139 162h-116z" />
    <glyph glyph-name="Rcaron" unicode="&#x159;" horiz-adv-x="1480" 
d="M1078 1759h-219l-258 293h287l96 -122l143 122h319zM878 1612c327 0 559 -216 502 -553c-35 -209 -175 -371 -365 -430l334 -629h-471l-296 618l-120 -618h-436l311 1612h541zM698 1222l-61 -313l116 -1c107 -2 186 59 200 152s-48 162 -139 162h-116z" />
    <glyph glyph-name="uni0156" unicode="&#x156;" horiz-adv-x="1480" 
d="M1380 1059c-35 -209 -175 -371 -365 -430l334 -629h-471l-296 618l-120 -618h-436l311 1612h541c327 0 559 -216 502 -553zM698 1222l-61 -313l116 -1c107 -2 186 59 200 152s-48 162 -139 162h-116zM595 -119c105 0 173 -80 152 -207c-25 -151 -158 -292 -311 -292
c-65 0 -102 29 -100 46c47 0 146 30 163 114c5 25 2 37 -4 46c-65 0 -123 56 -109 134c16 87 106 159 209 159z" />
    <glyph glyph-name="uni0156" unicode="&#x157;" horiz-adv-x="1480" 
d="M1380 1059c-35 -209 -175 -371 -365 -430l334 -629h-471l-296 618l-120 -618h-436l311 1612h541c327 0 559 -216 502 -553zM698 1222l-61 -313l116 -1c107 -2 186 59 200 152s-48 162 -139 162h-116zM595 -119c105 0 173 -80 152 -207c-25 -151 -158 -292 -311 -292
c-65 0 -102 29 -100 46c47 0 146 30 163 114c5 25 2 37 -4 46c-65 0 -123 56 -109 134c16 87 106 159 209 159z" />
    <glyph glyph-name="S" unicode="S" horiz-adv-x="1268" 
d="M559 -22c-289 0 -481 137 -562 321l291 253c65 -111 175 -184 294 -184c58 0 145 26 160 99c20 97 -111 171 -235 247c-191 117 -318 280 -270 510c50 241 300 412 581 412c221 0 408 -118 474 -280l-285 -244c-39 79 -125 133 -217 133c-76 0 -128 -45 -137 -95
c-16 -83 119 -142 230 -208c206 -123 338 -281 294 -519c-49 -266 -277 -445 -618 -445z" />
    <glyph glyph-name="S" unicode="s" horiz-adv-x="1268" 
d="M559 -22c-289 0 -481 137 -562 321l291 253c65 -111 175 -184 294 -184c58 0 145 26 160 99c20 97 -111 171 -235 247c-191 117 -318 280 -270 510c50 241 300 412 581 412c221 0 408 -118 474 -280l-285 -244c-39 79 -125 133 -217 133c-76 0 -128 -45 -137 -95
c-16 -83 119 -142 230 -208c206 -123 338 -281 294 -519c-49 -266 -277 -445 -618 -445z" />
    <glyph glyph-name="Sacute" unicode="&#x15a;" horiz-adv-x="1268" 
d="M879 1745h-269l237 337h335zM559 -22c-289 0 -481 137 -562 321l291 253c65 -111 175 -184 294 -184c58 0 145 26 160 99c20 97 -111 171 -235 247c-191 117 -318 280 -270 510c50 241 300 412 581 412c221 0 408 -118 474 -280l-285 -244c-39 79 -125 133 -217 133
c-76 0 -128 -45 -137 -95c-16 -83 119 -142 230 -208c206 -123 338 -281 294 -519c-49 -266 -277 -445 -618 -445z" />
    <glyph glyph-name="Sacute" unicode="&#x15b;" horiz-adv-x="1268" 
d="M879 1745h-269l237 337h335zM559 -22c-289 0 -481 137 -562 321l291 253c65 -111 175 -184 294 -184c58 0 145 26 160 99c20 97 -111 171 -235 247c-191 117 -318 280 -270 510c50 241 300 412 581 412c221 0 408 -118 474 -280l-285 -244c-39 79 -125 133 -217 133
c-76 0 -128 -45 -137 -95c-16 -83 119 -142 230 -208c206 -123 338 -281 294 -519c-49 -266 -277 -445 -618 -445z" />
    <glyph glyph-name="Scaron" unicode="&#x160;" horiz-adv-x="1268" 
d="M1346 2052l-368 -293h-219l-258 293h287l96 -122l143 122h319zM559 -22c-289 0 -481 137 -562 321l291 253c65 -111 175 -184 294 -184c58 0 145 26 160 99c20 97 -111 171 -235 247c-191 117 -318 280 -270 510c50 241 300 412 581 412c221 0 408 -118 474 -280
l-285 -244c-39 79 -125 133 -217 133c-76 0 -128 -45 -137 -95c-16 -83 119 -142 230 -208c206 -123 338 -281 294 -519c-49 -266 -277 -445 -618 -445z" />
    <glyph glyph-name="Scaron" unicode="&#x161;" horiz-adv-x="1268" 
d="M1346 2052l-368 -293h-219l-258 293h287l96 -122l143 122h319zM559 -22c-289 0 -481 137 -562 321l291 253c65 -111 175 -184 294 -184c58 0 145 26 160 99c20 97 -111 171 -235 247c-191 117 -318 280 -270 510c50 241 300 412 581 412c221 0 408 -118 474 -280
l-285 -244c-39 79 -125 133 -217 133c-76 0 -128 -45 -137 -95c-16 -83 119 -142 230 -208c206 -123 338 -281 294 -519c-49 -266 -277 -445 -618 -445z" />
    <glyph glyph-name="Scedilla" unicode="&#x15e;" horiz-adv-x="1268" 
d="M883 942c206 -123 338 -281 294 -519c-46 -250 -251 -424 -559 -443l-63 -67c9 0 15 1 24 1c90 0 153 -74 144 -170c-15 -166 -230 -320 -470 -318l-80 231c194 -1 270 34 275 77c2 17 -6 46 -59 46c-13 0 -29 -2 -49 -7l-42 60l138 154c-221 33 -370 156 -439 312
l291 253c65 -111 175 -184 294 -184c58 0 145 26 160 99c20 97 -111 171 -235 247c-191 117 -318 280 -270 510c50 241 300 412 581 412c221 0 408 -118 474 -280l-285 -244c-39 79 -125 133 -217 133c-76 0 -128 -45 -137 -95c-16 -83 119 -142 230 -208z" />
    <glyph glyph-name="Scedilla" unicode="&#x15f;" horiz-adv-x="1268" 
d="M883 942c206 -123 338 -281 294 -519c-46 -250 -251 -424 -559 -443l-63 -67c9 0 15 1 24 1c90 0 153 -74 144 -170c-15 -166 -230 -320 -470 -318l-80 231c194 -1 270 34 275 77c2 17 -6 46 -59 46c-13 0 -29 -2 -49 -7l-42 60l138 154c-221 33 -370 156 -439 312
l291 253c65 -111 175 -184 294 -184c58 0 145 26 160 99c20 97 -111 171 -235 247c-191 117 -318 280 -270 510c50 241 300 412 581 412c221 0 408 -118 474 -280l-285 -244c-39 79 -125 133 -217 133c-76 0 -128 -45 -137 -95c-16 -83 119 -142 230 -208z" />
    <glyph glyph-name="uni0218" unicode="&#x218;" horiz-adv-x="1268" 
d="M559 -22c-289 0 -481 137 -562 321l291 253c65 -111 175 -184 294 -184c58 0 145 26 160 99c20 97 -111 171 -235 247c-191 117 -318 280 -270 510c50 241 300 412 581 412c221 0 408 -118 474 -280l-285 -244c-39 79 -125 133 -217 133c-76 0 -128 -45 -137 -95
c-16 -83 119 -142 230 -208c206 -123 338 -281 294 -519c-49 -266 -277 -445 -618 -445zM336 -618c-65 0 -102 29 -100 46c47 0 146 30 163 114c5 25 2 37 -4 46c-65 0 -123 56 -109 134c16 87 106 159 209 159c105 0 173 -80 152 -207c-25 -151 -158 -292 -311 -292z" />
    <glyph glyph-name="uni0218" unicode="&#x219;" horiz-adv-x="1268" 
d="M559 -22c-289 0 -481 137 -562 321l291 253c65 -111 175 -184 294 -184c58 0 145 26 160 99c20 97 -111 171 -235 247c-191 117 -318 280 -270 510c50 241 300 412 581 412c221 0 408 -118 474 -280l-285 -244c-39 79 -125 133 -217 133c-76 0 -128 -45 -137 -95
c-16 -83 119 -142 230 -208c206 -123 338 -281 294 -519c-49 -266 -277 -445 -618 -445zM336 -618c-65 0 -102 29 -100 46c47 0 146 30 163 114c5 25 2 37 -4 46c-65 0 -123 56 -109 134c16 87 106 159 209 159c105 0 173 -80 152 -207c-25 -151 -158 -292 -311 -292z" />
    <glyph glyph-name="uni1E9E" unicode="&#xdf;" horiz-adv-x="1941" 
d="M1611 977c196 -120 296 -286 261 -508c-51 -328 -346 -516 -653 -516c-247 0 -444 121 -521 318l294 242c46 -100 162 -176 282 -176c90 0 150 43 163 118c17 84 -39 173 -189 263c-103 63 -289 150 -383 168l308 371c-45 26 -103 36 -163 36c-191 0 -319 -111 -362 -332
l-187 -961h-437l187 961c93 482 410 696 881 696c293 0 512 -83 652 -220l-338 -369c67 -18 141 -52 205 -91z" />
    <glyph glyph-name="uni1E9E" unicode="&#x1e9e;" horiz-adv-x="1941" 
d="M1611 977c196 -120 296 -286 261 -508c-51 -328 -346 -516 -653 -516c-247 0 -444 121 -521 318l294 242c46 -100 162 -176 282 -176c90 0 150 43 163 118c17 84 -39 173 -189 263c-103 63 -289 150 -383 168l308 371c-45 26 -103 36 -163 36c-191 0 -319 -111 -362 -332
l-187 -961h-437l187 961c93 482 410 696 881 696c293 0 512 -83 652 -220l-338 -369c67 -18 141 -52 205 -91z" />
    <glyph glyph-name="uni018F" unicode="&#x18f;" horiz-adv-x="1792" 
d="M814 -12c-592 0 -772 459 -703 822c12 65 34 136 53 170h1192c-34 155 -167 274 -352 274c-76 0 -201 -20 -310 -83l-205 266c163 131 399 192 584 192c432 0 755 -330 687 -825c-62 -455 -422 -816 -946 -816zM866 357c165 0 323 99 422 273h-777
c40 -164 180 -273 355 -273z" />
    <glyph glyph-name="uni018F" unicode="&#x259;" horiz-adv-x="1792" 
d="M814 -12c-592 0 -772 459 -703 822c12 65 34 136 53 170h1192c-34 155 -167 274 -352 274c-76 0 -201 -20 -310 -83l-205 266c163 131 399 192 584 192c432 0 755 -330 687 -825c-62 -455 -422 -816 -946 -816zM866 357c165 0 323 99 422 273h-777
c40 -164 180 -273 355 -273z" />
    <glyph glyph-name="T" unicode="T" horiz-adv-x="1239" 
d="M1394 1612l-78 -400h-358l-236 -1212h-437l235 1212h-358l77 400h1155z" />
    <glyph glyph-name="T" unicode="t" horiz-adv-x="1239" 
d="M1394 1612l-78 -400h-358l-236 -1212h-437l235 1212h-358l77 400h1155z" />
    <glyph glyph-name="Tbar" unicode="&#x166;" horiz-adv-x="1239" 
d="M1316 1212h-358l-56 -290h218l-44 -230h-219l-135 -692h-437l134 692h-219l44 230h220l56 290h-358l77 400h1155z" />
    <glyph glyph-name="Tbar" unicode="&#x167;" horiz-adv-x="1239" 
d="M1316 1212h-358l-56 -290h218l-44 -230h-219l-135 -692h-437l134 692h-219l44 230h220l56 290h-358l77 400h1155z" />
    <glyph glyph-name="Tcaron" unicode="&#x164;" horiz-adv-x="1239" 
d="M957 1759h-219l-258 293h287l96 -122l143 122h319zM1394 1612l-78 -400h-358l-236 -1212h-437l235 1212h-358l77 400h1155z" />
    <glyph glyph-name="Tcaron" unicode="&#x165;" horiz-adv-x="1239" 
d="M957 1759h-219l-258 293h287l96 -122l143 122h319zM1394 1612l-78 -400h-358l-236 -1212h-437l235 1212h-358l77 400h1155z" />
    <glyph glyph-name="uni0162" unicode="&#x162;" horiz-adv-x="1239" 
d="M1394 1612l-78 -400h-358l-236 -1212h-106l-82 -87c9 0 15 1 24 1c90 0 153 -74 144 -170c-15 -166 -230 -320 -470 -318l-80 231c194 -1 270 34 275 77c2 17 -6 46 -59 46c-13 0 -29 -2 -49 -7l-42 60l149 167h-141l235 1212h-358l77 400h1155z" />
    <glyph glyph-name="uni0162" unicode="&#x163;" horiz-adv-x="1239" 
d="M1394 1612l-78 -400h-358l-236 -1212h-106l-82 -87c9 0 15 1 24 1c90 0 153 -74 144 -170c-15 -166 -230 -320 -470 -318l-80 231c194 -1 270 34 275 77c2 17 -6 46 -59 46c-13 0 -29 -2 -49 -7l-42 60l149 167h-141l235 1212h-358l77 400h1155z" />
    <glyph glyph-name="uni021A" unicode="&#x21a;" horiz-adv-x="1239" 
d="M1394 1612l-78 -400h-358l-236 -1212h-437l235 1212h-358l77 400h1155zM474 -119c105 0 173 -80 152 -207c-25 -151 -158 -292 -311 -292c-65 0 -102 29 -100 46c47 0 146 30 163 114c5 25 2 37 -4 46c-65 0 -123 56 -109 134c16 87 106 159 209 159z" />
    <glyph glyph-name="uni021A" unicode="&#x21b;" horiz-adv-x="1239" 
d="M1394 1612l-78 -400h-358l-236 -1212h-437l235 1212h-358l77 400h1155zM474 -119c105 0 173 -80 152 -207c-25 -151 -158 -292 -311 -292c-65 0 -102 29 -100 46c47 0 146 30 163 114c5 25 2 37 -4 46c-65 0 -123 56 -109 134c16 87 106 159 209 159z" />
    <glyph glyph-name="U" unicode="U" horiz-adv-x="1537" 
d="M675 -45c-407 0 -615 303 -545 666l193 991h437l-192 -990c-30 -157 46 -258 171 -258c142 0 214 129 239 258l192 990h437l-192 -991c-83 -427 -375 -666 -740 -666z" />
    <glyph glyph-name="U" unicode="u" horiz-adv-x="1537" 
d="M675 -45c-407 0 -615 303 -545 666l193 991h437l-192 -990c-30 -157 46 -258 171 -258c142 0 214 129 239 258l192 990h437l-192 -991c-83 -427 -375 -666 -740 -666z" />
    <glyph glyph-name="Uacute" unicode="&#xda;" horiz-adv-x="1537" 
d="M1006 1745h-269l237 337h335zM675 -45c-407 0 -615 303 -545 666l193 991h437l-192 -990c-30 -157 46 -258 171 -258c142 0 214 129 239 258l192 990h437l-192 -991c-83 -427 -375 -666 -740 -666z" />
    <glyph glyph-name="Uacute" unicode="&#xfa;" horiz-adv-x="1537" 
d="M1006 1745h-269l237 337h335zM675 -45c-407 0 -615 303 -545 666l193 991h437l-192 -990c-30 -157 46 -258 171 -258c142 0 214 129 239 258l192 990h437l-192 -991c-83 -427 -375 -666 -740 -666z" />
    <glyph glyph-name="Ucircumflex" unicode="&#xdb;" horiz-adv-x="1537" 
d="M571 1759l367 293h219l259 -293h-287l-96 122l-143 -122h-319zM675 -45c-407 0 -615 303 -545 666l193 991h437l-192 -990c-30 -157 46 -258 171 -258c142 0 214 129 239 258l192 990h437l-192 -991c-83 -427 -375 -666 -740 -666z" />
    <glyph glyph-name="Ucircumflex" unicode="&#xfb;" horiz-adv-x="1537" 
d="M571 1759l367 293h219l259 -293h-287l-96 122l-143 -122h-319zM675 -45c-407 0 -615 303 -545 666l193 991h437l-192 -990c-30 -157 46 -258 171 -258c142 0 214 129 239 258l192 990h437l-192 -991c-83 -427 -375 -666 -740 -666z" />
    <glyph glyph-name="Udieresis" unicode="&#xdc;" horiz-adv-x="1537" 
d="M753 1761c-80 0 -136 62 -121 137c15 74 94 139 174 139s135 -65 120 -139c-15 -75 -93 -137 -173 -137zM1235 1761c-80 0 -135 62 -120 137c14 74 93 139 173 139s135 -65 121 -139c-15 -75 -94 -137 -174 -137zM675 -45c-407 0 -615 303 -545 666l193 991h437
l-192 -990c-30 -157 46 -258 171 -258c142 0 214 129 239 258l192 990h437l-192 -991c-83 -427 -375 -666 -740 -666z" />
    <glyph glyph-name="Udieresis" unicode="&#xfc;" horiz-adv-x="1537" 
d="M753 1761c-80 0 -136 62 -121 137c15 74 94 139 174 139s135 -65 120 -139c-15 -75 -93 -137 -173 -137zM1235 1761c-80 0 -135 62 -120 137c14 74 93 139 173 139s135 -65 121 -139c-15 -75 -94 -137 -174 -137zM675 -45c-407 0 -615 303 -545 666l193 991h437
l-192 -990c-30 -157 46 -258 171 -258c142 0 214 129 239 258l192 990h437l-192 -991c-83 -427 -375 -666 -740 -666z" />
    <glyph glyph-name="Ugrave" unicode="&#xd9;" horiz-adv-x="1537" 
d="M950 1745l-172 337h335l106 -337h-269zM675 -45c-407 0 -615 303 -545 666l193 991h437l-192 -990c-30 -157 46 -258 171 -258c142 0 214 129 239 258l192 990h437l-192 -991c-83 -427 -375 -666 -740 -666z" />
    <glyph glyph-name="Ugrave" unicode="&#xf9;" horiz-adv-x="1537" 
d="M950 1745l-172 337h335l106 -337h-269zM675 -45c-407 0 -615 303 -545 666l193 991h437l-192 -990c-30 -157 46 -258 171 -258c142 0 214 129 239 258l192 990h437l-192 -991c-83 -427 -375 -666 -740 -666z" />
    <glyph glyph-name="Uhungarumlaut" unicode="&#x170;" horiz-adv-x="1537" 
d="M572 1745l203 337h299l-262 -337h-240zM957 1745l274 337h335l-355 -337h-254zM675 -45c-407 0 -615 303 -545 666l193 991h437l-192 -990c-30 -157 46 -258 171 -258c142 0 214 129 239 258l192 990h437l-192 -991c-83 -427 -375 -666 -740 -666z" />
    <glyph glyph-name="Uhungarumlaut" unicode="&#x171;" horiz-adv-x="1537" 
d="M572 1745l203 337h299l-262 -337h-240zM957 1745l274 337h335l-355 -337h-254zM675 -45c-407 0 -615 303 -545 666l193 991h437l-192 -990c-30 -157 46 -258 171 -258c142 0 214 129 239 258l192 990h437l-192 -991c-83 -427 -375 -666 -740 -666z" />
    <glyph glyph-name="Umacron" unicode="&#x16a;" horiz-adv-x="1537" 
d="M674 1801l39 201h656l-39 -201h-656zM675 -45c-407 0 -615 303 -545 666l193 991h437l-192 -990c-30 -157 46 -258 171 -258c142 0 214 129 239 258l192 990h437l-192 -991c-83 -427 -375 -666 -740 -666z" />
    <glyph glyph-name="Umacron" unicode="&#x16b;" horiz-adv-x="1537" 
d="M674 1801l39 201h656l-39 -201h-656zM675 -45c-407 0 -615 303 -545 666l193 991h437l-192 -990c-30 -157 46 -258 171 -258c142 0 214 129 239 258l192 990h437l-192 -991c-83 -427 -375 -666 -740 -666z" />
    <glyph glyph-name="Uogonek" unicode="&#x172;" horiz-adv-x="1537" 
d="M1170 1612h437l-192 -991c-75 -388 -323 -620 -641 -660c-92 -74 -133 -126 -133 -183c0 -34 17 -65 58 -65c22 0 67 6 119 19l39 -270c-71 -15 -135 -22 -193 -22c-209 0 -321 93 -321 249c0 117 64 220 157 287c-290 74 -429 338 -370 645l193 991h437l-192 -990
c-30 -157 46 -258 171 -258c142 0 214 129 239 258z" />
    <glyph glyph-name="Uogonek" unicode="&#x173;" horiz-adv-x="1537" 
d="M1170 1612h437l-192 -991c-75 -388 -323 -620 -641 -660c-92 -74 -133 -126 -133 -183c0 -34 17 -65 58 -65c22 0 67 6 119 19l39 -270c-71 -15 -135 -22 -193 -22c-209 0 -321 93 -321 249c0 117 64 220 157 287c-290 74 -429 338 -370 645l193 991h437l-192 -990
c-30 -157 46 -258 171 -258c142 0 214 129 239 258z" />
    <glyph glyph-name="Uring" unicode="&#x16e;" horiz-adv-x="1537" 
d="M991 1707c-140 0 -226 105 -204 234c23 133 146 234 283 234c132 0 224 -99 201 -234c-22 -128 -140 -234 -280 -234zM1013 1854c49 0 96 37 106 85c9 48 -23 87 -73 87s-97 -37 -106 -87c-9 -47 22 -85 73 -85zM675 -45c-407 0 -615 303 -545 666l193 991h437l-192 -990
c-30 -157 46 -258 171 -258c142 0 214 129 239 258l192 990h437l-192 -991c-83 -427 -375 -666 -740 -666z" />
    <glyph glyph-name="Uring" unicode="&#x16f;" horiz-adv-x="1537" 
d="M991 1707c-140 0 -226 105 -204 234c23 133 146 234 283 234c132 0 224 -99 201 -234c-22 -128 -140 -234 -280 -234zM1013 1854c49 0 96 37 106 85c9 48 -23 87 -73 87s-97 -37 -106 -87c-9 -47 22 -85 73 -85zM675 -45c-407 0 -615 303 -545 666l193 991h437l-192 -990
c-30 -157 46 -258 171 -258c142 0 214 129 239 258l192 990h437l-192 -991c-83 -427 -375 -666 -740 -666z" />
    <glyph glyph-name="V" unicode="V" horiz-adv-x="1659" 
d="M1327 1612h508l-1016 -1629h-221l-380 1629h446l169 -848z" />
    <glyph glyph-name="V" unicode="v" horiz-adv-x="1659" 
d="M1327 1612h508l-1016 -1629h-221l-380 1629h446l169 -848z" />
    <glyph glyph-name="W" unicode="W" horiz-adv-x="2027" 
d="M407 -10l-189 1622h436l61 -738l449 735h43l163 -733l345 736h488l-819 -1622h-163l-177 785l-477 -785h-160z" />
    <glyph glyph-name="W" unicode="w" horiz-adv-x="2027" 
d="M407 -10l-189 1622h436l61 -738l449 735h43l163 -733l345 736h488l-819 -1622h-163l-177 785l-477 -785h-160z" />
    <glyph glyph-name="Wacute" unicode="&#x1e82;" horiz-adv-x="2027" 
d="M1252 1745h-269l237 337h335zM407 -10l-189 1622h436l61 -738l449 735h43l163 -733l345 736h488l-819 -1622h-163l-177 785l-477 -785h-160z" />
    <glyph glyph-name="Wacute" unicode="&#x1e83;" horiz-adv-x="2027" 
d="M1252 1745h-269l237 337h335zM407 -10l-189 1622h436l61 -738l449 735h43l163 -733l345 736h488l-819 -1622h-163l-177 785l-477 -785h-160z" />
    <glyph glyph-name="Wcircumflex" unicode="&#x174;" horiz-adv-x="2027" 
d="M817 1759l367 293h219l259 -293h-287l-96 122l-143 -122h-319zM407 -10l-189 1622h436l61 -738l449 735h43l163 -733l345 736h488l-819 -1622h-163l-177 785l-477 -785h-160z" />
    <glyph glyph-name="Wcircumflex" unicode="&#x175;" horiz-adv-x="2027" 
d="M817 1759l367 293h219l259 -293h-287l-96 122l-143 -122h-319zM407 -10l-189 1622h436l61 -738l449 735h43l163 -733l345 736h488l-819 -1622h-163l-177 785l-477 -785h-160z" />
    <glyph glyph-name="Wdieresis" unicode="&#x1e84;" horiz-adv-x="2027" 
d="M999 1761c-80 0 -136 62 -121 137c15 74 94 139 174 139s135 -65 120 -139c-15 -75 -93 -137 -173 -137zM1481 1761c-80 0 -135 62 -120 137c14 74 93 139 173 139s135 -65 121 -139c-15 -75 -94 -137 -174 -137zM407 -10l-189 1622h436l61 -738l449 735h43l163 -733
l345 736h488l-819 -1622h-163l-177 785l-477 -785h-160z" />
    <glyph glyph-name="Wdieresis" unicode="&#x1e85;" horiz-adv-x="2027" 
d="M999 1761c-80 0 -136 62 -121 137c15 74 94 139 174 139s135 -65 120 -139c-15 -75 -93 -137 -173 -137zM1481 1761c-80 0 -135 62 -120 137c14 74 93 139 173 139s135 -65 121 -139c-15 -75 -94 -137 -174 -137zM407 -10l-189 1622h436l61 -738l449 735h43l163 -733
l345 736h488l-819 -1622h-163l-177 785l-477 -785h-160z" />
    <glyph glyph-name="Wgrave" unicode="&#x1e80;" horiz-adv-x="2027" 
d="M1196 1745l-172 337h335l106 -337h-269zM407 -10l-189 1622h436l61 -738l449 735h43l163 -733l345 736h488l-819 -1622h-163l-177 785l-477 -785h-160z" />
    <glyph glyph-name="Wgrave" unicode="&#x1e81;" horiz-adv-x="2027" 
d="M1196 1745l-172 337h335l106 -337h-269zM407 -10l-189 1622h436l61 -738l449 735h43l163 -733l345 736h488l-819 -1622h-163l-177 785l-477 -785h-160z" />
    <glyph glyph-name="X" unicode="X" horiz-adv-x="1538" 
d="M-96 0l663 851l-305 761h462l144 -425l308 425h532l-626 -788l318 -824h-466l-155 476l-340 -476h-535z" />
    <glyph glyph-name="X" unicode="x" horiz-adv-x="1538" 
d="M-96 0l663 851l-305 761h462l144 -425l308 425h532l-626 -788l318 -824h-466l-155 476l-340 -476h-535z" />
    <glyph glyph-name="Y" unicode="Y" horiz-adv-x="1406" 
d="M369 0l130 663l-281 949h462l101 -500l290 500h511l-647 -942l-130 -670h-436z" />
    <glyph glyph-name="Y" unicode="y" horiz-adv-x="1406" 
d="M369 0l130 663l-281 949h462l101 -500l290 500h511l-647 -942l-130 -670h-436z" />
    <glyph glyph-name="Yacute" unicode="&#xdd;" horiz-adv-x="1406" 
d="M941 1745h-269l237 337h335zM369 0l130 663l-281 949h462l101 -500l290 500h511l-647 -942l-130 -670h-436z" />
    <glyph glyph-name="Yacute" unicode="&#xfd;" horiz-adv-x="1406" 
d="M941 1745h-269l237 337h335zM369 0l130 663l-281 949h462l101 -500l290 500h511l-647 -942l-130 -670h-436z" />
    <glyph glyph-name="Ycircumflex" unicode="&#x176;" horiz-adv-x="1406" 
d="M506 1759l367 293h219l259 -293h-287l-96 122l-143 -122h-319zM369 0l130 663l-281 949h462l101 -500l290 500h511l-647 -942l-130 -670h-436z" />
    <glyph glyph-name="Ycircumflex" unicode="&#x177;" horiz-adv-x="1406" 
d="M506 1759l367 293h219l259 -293h-287l-96 122l-143 -122h-319zM369 0l130 663l-281 949h462l101 -500l290 500h511l-647 -942l-130 -670h-436z" />
    <glyph glyph-name="Ydieresis" unicode="&#xff;" horiz-adv-x="1406" 
d="M688 1761c-80 0 -136 62 -121 137c15 74 94 139 174 139s135 -65 120 -139c-15 -75 -93 -137 -173 -137zM1170 1761c-80 0 -135 62 -120 137c14 74 93 139 173 139s135 -65 121 -139c-15 -75 -94 -137 -174 -137zM369 0l130 663l-281 949h462l101 -500l290 500h511
l-647 -942l-130 -670h-436z" />
    <glyph glyph-name="Ydieresis" unicode="&#x178;" horiz-adv-x="1406" 
d="M688 1761c-80 0 -136 62 -121 137c15 74 94 139 174 139s135 -65 120 -139c-15 -75 -93 -137 -173 -137zM1170 1761c-80 0 -135 62 -120 137c14 74 93 139 173 139s135 -65 121 -139c-15 -75 -94 -137 -174 -137zM369 0l130 663l-281 949h462l101 -500l290 500h511
l-647 -942l-130 -670h-436z" />
    <glyph glyph-name="Ygrave" unicode="&#x1ef2;" horiz-adv-x="1406" 
d="M885 1745l-172 337h335l106 -337h-269zM369 0l130 663l-281 949h462l101 -500l290 500h511l-647 -942l-130 -670h-436z" />
    <glyph glyph-name="Ygrave" unicode="&#x1ef3;" horiz-adv-x="1406" 
d="M885 1745l-172 337h335l106 -337h-269zM369 0l130 663l-281 949h462l101 -500l290 500h511l-647 -942l-130 -670h-436z" />
    <glyph glyph-name="Z" unicode="Z" horiz-adv-x="1340" 
d="M-32 0l743 1212h-507l77 400h1171l-742 -1210h507l-78 -402h-1171z" />
    <glyph glyph-name="Z" unicode="z" horiz-adv-x="1340" 
d="M-32 0l743 1212h-507l77 400h1171l-742 -1210h507l-78 -402h-1171z" />
    <glyph glyph-name="Zacute" unicode="&#x179;" horiz-adv-x="1340" 
d="M908 1745h-269l237 337h335zM-32 0l743 1212h-507l77 400h1171l-742 -1210h507l-78 -402h-1171z" />
    <glyph glyph-name="Zacute" unicode="&#x17a;" horiz-adv-x="1340" 
d="M908 1745h-269l237 337h335zM-32 0l743 1212h-507l77 400h1171l-742 -1210h507l-78 -402h-1171z" />
    <glyph glyph-name="Zcaron" unicode="&#x17d;" horiz-adv-x="1340" 
d="M1375 2052l-368 -293h-219l-258 293h287l96 -122l143 122h319zM-32 0l743 1212h-507l77 400h1171l-742 -1210h507l-78 -402h-1171z" />
    <glyph glyph-name="Zcaron" unicode="&#x17e;" horiz-adv-x="1340" 
d="M1375 2052l-368 -293h-219l-258 293h287l96 -122l143 122h319zM-32 0l743 1212h-507l77 400h1171l-742 -1210h507l-78 -402h-1171z" />
    <glyph glyph-name="Zdotaccent" unicode="&#x17b;" horiz-adv-x="1340" 
d="M895 1759c-94 0 -155 71 -138 157c16 86 107 161 200 161s155 -75 139 -160c-17 -88 -109 -158 -201 -158zM-32 0l743 1212h-507l77 400h1171l-742 -1210h507l-78 -402h-1171z" />
    <glyph glyph-name="Zdotaccent" unicode="&#x17c;" horiz-adv-x="1340" 
d="M895 1759c-94 0 -155 71 -138 157c16 86 107 161 200 161s155 -75 139 -160c-17 -88 -109 -158 -201 -158zM-32 0l743 1212h-507l77 400h1171l-742 -1210h507l-78 -402h-1171z" />
    <glyph glyph-name="i" unicode="i" horiz-adv-x="718" 
d="M24 0l313 1612h437l-313 -1612h-437z" />
    <glyph glyph-name="dotlessi" unicode="&#x131;" horiz-adv-x="718" 
d="M24 0l313 1612h437l-313 -1612h-437z" />
    <glyph glyph-name="i.loclTRK" horiz-adv-x="718" 
d="M584 1759c-94 0 -155 71 -138 157c16 86 107 161 200 161s155 -75 139 -160c-17 -88 -109 -158 -201 -158zM24 0l313 1612h437l-313 -1612h-437z" />
    <glyph glyph-name="zero" unicode="0" horiz-adv-x="1496" 
d="M650 -32c-379 18 -612 367 -539 838c74 478 426 848 819 831c356 -15 611 -336 534 -839c-74 -480 -411 -849 -814 -830zM705 387c148 -6 275 160 323 413c46 246 -13 414 -158 420c-149 6 -275 -164 -323 -415s15 -413 158 -418z" />
    <glyph glyph-name="zero.lf" horiz-adv-x="1496" 
d="M650 -32c-379 18 -612 367 -539 838c74 478 426 848 819 831c356 -15 611 -336 534 -839c-74 -480 -411 -849 -814 -830zM705 387c148 -6 275 160 323 413c46 246 -13 414 -158 420c-149 6 -275 -164 -323 -415s15 -413 158 -418z" />
    <glyph glyph-name="zero.tf" horiz-adv-x="1543" 
d="M673 -32c-378 18 -611 367 -538 838c74 478 425 848 819 831c355 -15 610 -336 533 -839c-73 -480 -410 -849 -814 -830zM728 387c148 -6 276 160 323 413c47 246 -12 414 -158 420c-149 6 -275 -164 -323 -415s15 -413 158 -418z" />
    <glyph glyph-name="one" unicode="1" horiz-adv-x="792" 
d="M731 1622h119l-315 -1622h-437l216 1117l-151 -37l82 421z" />
    <glyph glyph-name="one.lf" horiz-adv-x="792" 
d="M731 1622h119l-315 -1622h-437l216 1117l-151 -37l82 421z" />
    <glyph glyph-name="one.tf" horiz-adv-x="1543" 
d="M946 375h260l-73 -375h-956l73 375h259l144 742l-151 -37l82 421l485 121h120z" />
    <glyph glyph-name="two" unicode="2" horiz-adv-x="1401" 
d="M1402 1058c-39 -249 -248 -513 -578 -665h467l-77 -393h-1261l35 165c683 487 940 695 972 876c20 115 -52 201 -171 201c-136 0 -262 -106 -289 -258l-308 115c62 356 347 547 661 547c381 0 598 -274 549 -588z" />
    <glyph glyph-name="two.lf" horiz-adv-x="1401" 
d="M1402 1058c-39 -249 -248 -513 -578 -665h467l-77 -393h-1261l35 165c683 487 940 695 972 876c20 115 -52 201 -171 201c-136 0 -262 -106 -289 -258l-308 115c62 356 347 547 661 547c381 0 598 -274 549 -588z" />
    <glyph glyph-name="two.tf" horiz-adv-x="1543" 
d="M1473 1058c-39 -249 -248 -513 -578 -665h467l-77 -393h-1260l34 165c683 487 940 695 972 876c20 115 -52 201 -171 201c-136 0 -262 -106 -289 -258l-308 115c62 356 347 547 661 547c381 0 598 -274 549 -588z" />
    <glyph glyph-name="three" unicode="3" horiz-adv-x="1305" 
d="M1262 1205c-24 -125 -106 -239 -222 -289c128 -61 213 -206 175 -419c-56 -314 -334 -522 -643 -522c-343 0 -543 252 -535 454l375 85c11 -87 94 -139 177 -139c95 0 175 68 194 175c22 133 -68 246 -301 248l84 190c146 0 249 80 266 173c14 75 -35 122 -101 122
c-53 0 -110 -30 -145 -105l-339 78c92 278 317 407 559 407c310 0 504 -209 456 -458z" />
    <glyph glyph-name="three.lf" horiz-adv-x="1305" 
d="M1262 1205c-24 -125 -106 -239 -222 -289c128 -61 213 -206 175 -419c-56 -314 -334 -522 -643 -522c-343 0 -543 252 -535 454l375 85c11 -87 94 -139 177 -139c95 0 175 68 194 175c22 133 -68 246 -301 248l84 190c146 0 249 80 266 173c14 75 -35 122 -101 122
c-53 0 -110 -30 -145 -105l-339 78c92 278 317 407 559 407c310 0 504 -209 456 -458z" />
    <glyph glyph-name="three.tf" horiz-adv-x="1543" 
d="M1382 1205c-24 -125 -106 -239 -223 -289c128 -61 213 -205 175 -419c-56 -314 -333 -522 -642 -522c-343 0 -544 252 -536 454l375 85c11 -87 94 -139 177 -139c96 0 175 68 194 175c23 133 -68 246 -300 248l84 190c146 0 249 80 266 173c13 75 -35 122 -102 122
c-52 0 -110 -30 -144 -105l-339 78c92 278 316 407 559 407c310 0 504 -209 456 -458z" />
    <glyph glyph-name="four" unicode="4" horiz-adv-x="1503" 
d="M1473 664l-75 -383h-147l-55 -281h-437l55 281h-855l774 1340l467 -2l-543 -955h231l69 352h437l-69 -352h148z" />
    <glyph glyph-name="four.lf" horiz-adv-x="1503" 
d="M1473 664l-75 -383h-147l-55 -281h-437l55 281h-855l774 1340l467 -2l-543 -955h231l69 352h437l-69 -352h148z" />
    <glyph glyph-name="four.tf" horiz-adv-x="1543" 
d="M1475 664l-74 -383h-148l-54 -281h-437l54 281h-855l774 1340l468 -2l-543 -955h231l68 352h437l-68 -352h147z" />
    <glyph glyph-name="five" unicode="5" horiz-adv-x="1325" 
d="M815 1104c303 0 475 -234 429 -553c-51 -355 -337 -576 -669 -576c-263 0 -480 135 -556 361l362 154c28 -72 113 -122 208 -122c121 0 205 83 221 199c16 120 -52 194 -201 194c-73 0 -157 -18 -242 -106l-210 105l285 853h862l-75 -382h-554l-58 -172
c57 31 124 45 198 45z" />
    <glyph glyph-name="five.lf" horiz-adv-x="1325" 
d="M815 1104c303 0 475 -234 429 -553c-51 -355 -337 -576 -669 -576c-263 0 -480 135 -556 361l362 154c28 -72 113 -122 208 -122c121 0 205 83 221 199c16 120 -52 194 -201 194c-73 0 -157 -18 -242 -106l-210 105l285 853h862l-75 -382h-554l-58 -172
c57 31 124 45 198 45z" />
    <glyph glyph-name="five.tf" horiz-adv-x="1543" 
d="M924 1104c303 0 476 -234 430 -553c-51 -355 -337 -576 -670 -576c-262 0 -480 135 -555 361l362 154c28 -72 112 -122 208 -122c121 0 204 83 220 199c17 120 -52 194 -201 194c-73 0 -157 -18 -241 -106l-211 105l286 853h861l-74 -382h-555l-58 -172
c57 31 124 45 198 45z" />
    <glyph glyph-name="six" unicode="6" horiz-adv-x="1345" 
d="M852 1030c240 0 442 -203 404 -519c-40 -324 -308 -542 -652 -542c-418 0 -601 320 -533 635c54 217 164 386 694 1008h512l-478 -586c17 3 35 4 53 4zM837 545c17 115 -53 190 -150 189c-103 -1 -181 -88 -195 -191c-15 -111 54 -185 153 -185c108 0 178 90 192 187z
" />
    <glyph glyph-name="six.lf" horiz-adv-x="1345" 
d="M852 1030c240 0 442 -203 404 -519c-40 -324 -308 -542 -652 -542c-418 0 -601 320 -533 635c54 217 164 386 694 1008h512l-478 -586c17 3 35 4 53 4zM837 545c17 115 -53 190 -150 189c-103 -1 -181 -88 -195 -191c-15 -111 54 -185 153 -185c108 0 178 90 192 187z
" />
    <glyph glyph-name="six.tf" horiz-adv-x="1543" 
d="M951 1030c240 0 442 -203 404 -519c-40 -324 -308 -542 -652 -542c-418 0 -601 320 -533 635c54 217 164 386 694 1008h512l-478 -586c17 3 35 4 53 4zM936 545c17 115 -53 190 -150 189c-103 -1 -181 -88 -195 -191c-15 -111 54 -185 153 -185c108 0 178 90 192 187z
" />
    <glyph glyph-name="seven" unicode="7" horiz-adv-x="1221" 
d="M239 1612h1158l-15 -74l-883 -1538h-482l679 1219h-534z" />
    <glyph glyph-name="seven.lf" horiz-adv-x="1221" 
d="M239 1612h1158l-15 -74l-883 -1538h-482l679 1219h-534z" />
    <glyph glyph-name="seven.tf" horiz-adv-x="1543" 
d="M390 1612h1158l-15 -74l-883 -1538h-482l679 1219h-534z" />
    <glyph glyph-name="eight" unicode="8" horiz-adv-x="1339" 
d="M582 -33c-366 0 -583 240 -531 532c36 208 196 375 368 412c-80 25 -166 138 -143 303c33 238 268 432 572 432c320 0 493 -215 454 -437c-26 -146 -144 -277 -264 -298c107 -32 246 -175 208 -423c-46 -305 -318 -521 -664 -521zM763 1027c79 0 139 58 151 138
c13 83 -38 134 -114 134c-79 0 -141 -54 -154 -133c-14 -87 41 -139 117 -139zM632 350c110 0 196 75 212 190c15 111 -49 193 -154 193c-111 0 -204 -92 -221 -196c-17 -103 47 -187 163 -187z" />
    <glyph glyph-name="eight.lf" horiz-adv-x="1339" 
d="M582 -33c-366 0 -583 240 -531 532c36 208 196 375 368 412c-80 25 -166 138 -143 303c33 238 268 432 572 432c320 0 493 -215 454 -437c-26 -146 -144 -277 -264 -298c107 -32 246 -175 208 -423c-46 -305 -318 -521 -664 -521zM763 1027c79 0 139 58 151 138
c13 83 -38 134 -114 134c-79 0 -141 -54 -154 -133c-14 -87 41 -139 117 -139zM632 350c110 0 196 75 212 190c15 111 -49 193 -154 193c-111 0 -204 -92 -221 -196c-17 -103 47 -187 163 -187z" />
    <glyph glyph-name="eight.tf" horiz-adv-x="1543" 
d="M684 -33c-366 0 -583 240 -531 532c36 208 196 375 368 412c-80 25 -166 138 -143 303c33 238 268 432 572 432c320 0 493 -215 454 -437c-26 -146 -144 -277 -264 -298c107 -32 246 -175 208 -423c-46 -305 -318 -521 -664 -521zM865 1027c79 0 139 58 151 138
c13 83 -38 134 -114 134c-79 0 -141 -54 -154 -133c-14 -87 41 -139 117 -139zM734 350c110 0 196 75 212 190c15 111 -49 193 -154 193c-111 0 -204 -92 -221 -196c-17 -103 47 -187 163 -187z" />
    <glyph glyph-name="nine" unicode="9" horiz-adv-x="1346" 
d="M821 1642c418 0 609 -321 533 -635c-54 -217 -164 -384 -694 -1007h-511l477 585c-18 -3 -35 -4 -53 -4c-240 0 -442 203 -404 520c40 324 308 541 652 541zM933 1068c15 112 -54 186 -153 186c-108 0 -177 -90 -192 -187c-16 -115 53 -190 150 -189
c103 1 181 87 195 190z" />
    <glyph glyph-name="nine.lf" horiz-adv-x="1346" 
d="M821 1642c418 0 609 -321 533 -635c-54 -217 -164 -384 -694 -1007h-511l477 585c-18 -3 -35 -4 -53 -4c-240 0 -442 203 -404 520c40 324 308 541 652 541zM933 1068c15 112 -54 186 -153 186c-108 0 -177 -90 -192 -187c-16 -115 53 -190 150 -189
c103 1 181 87 195 190z" />
    <glyph glyph-name="nine.tf" horiz-adv-x="1543" 
d="M918 1642c418 0 609 -321 533 -635c-54 -217 -164 -384 -694 -1007h-511l477 585c-18 -3 -35 -4 -53 -4c-240 0 -442 203 -404 520c40 324 308 541 652 541zM1030 1068c15 112 -54 186 -153 186c-108 0 -177 -90 -192 -187c-16 -115 53 -190 150 -189
c103 1 181 87 195 190z" />
    <glyph glyph-name="period" unicode="." horiz-adv-x="715" 
d="M237 -57c-142 0 -236 110 -211 249c25 133 152 248 294 248c139 0 233 -109 210 -248c-22 -138 -150 -249 -293 -249z" />
    <glyph glyph-name="comma" unicode="," horiz-adv-x="740" 
d="M96 -384c-95 0 -155 48 -150 77c69 0 195 49 224 184c8 39 3 64 -1 75c-89 0 -168 85 -146 225c24 155 156 263 298 263c157 0 251 -132 216 -343c-40 -246 -230 -481 -441 -481z" />
    <glyph glyph-name="colon" unicode=":" horiz-adv-x="702" 
d="M377 698c-139 0 -230 106 -205 241c24 130 148 241 285 241c135 0 227 -106 204 -241c-22 -134 -145 -241 -284 -241zM239 -10c-138 0 -229 106 -204 242c24 129 147 241 285 241c135 0 226 -106 204 -241s-146 -242 -285 -242z" />
    <glyph glyph-name="semicolon" unicode=";" horiz-adv-x="741" 
d="M406 701c-139 0 -230 106 -205 241c24 130 148 242 285 242c135 0 227 -106 204 -242c-22 -134 -145 -241 -284 -241zM99 -369c-95 0 -155 48 -150 77c69 0 195 49 224 184c8 39 3 64 -1 75c-89 0 -168 85 -146 225c24 155 156 263 298 263c157 0 251 -132 216 -343
c-40 -246 -230 -481 -441 -481z" />
    <glyph glyph-name="ellipsis" unicode="&#x2026;" horiz-adv-x="2551" 
d="M332 -57c-142 0 -236 110 -211 249c25 133 152 248 294 248c139 0 233 -109 210 -248c-22 -138 -150 -249 -293 -249zM1154 -57c-143 0 -237 110 -211 249c24 133 152 248 294 248c138 0 233 -109 210 -248c-23 -138 -150 -249 -293 -249zM1954 -57
c-142 0 -236 110 -211 249c25 133 152 248 294 248c139 0 233 -109 210 -248c-22 -138 -150 -249 -293 -249z" />
    <glyph glyph-name="exclam" unicode="!" horiz-adv-x="782" 
d="M206 563l136 1049h488l-271 -1049h-353zM271 -68c-138 0 -229 106 -205 241c24 130 148 242 286 242c135 0 226 -106 204 -242c-22 -134 -146 -241 -285 -241z" />
    <glyph glyph-name="exclamdown" unicode="&#xa1;" horiz-adv-x="782" 
d="M504 1230c138 0 229 -106 205 -241c-24 -130 -148 -241 -286 -241c-135 0 -226 106 -204 241c22 134 146 241 285 241zM569 600l-136 -1050h-488l271 1050h353z" />
    <glyph glyph-name="question" unicode="?" horiz-adv-x="1086" 
d="M278 561c0 12 2 24 12 74c57 296 422 448 453 561c18 67 -34 120 -138 120c-109 0 -214 -63 -286 -141l-78 303c86 102 256 203 473 203c305 0 457 -222 425 -442c-52 -345 -379 -326 -451 -609c-4 -17 -14 -51 -13 -68zM365 -68c-138 0 -229 106 -205 241
c24 130 148 242 286 242c135 0 226 -106 204 -242c-22 -134 -146 -241 -285 -241z" />
    <glyph glyph-name="questiondown" unicode="&#xbf;" horiz-adv-x="1086" 
d="M722 1271c138 0 229 -106 205 -241c-24 -130 -148 -242 -286 -242c-135 0 -226 106 -204 242c22 134 146 241 285 241zM809 642c0 -12 -2 -24 -12 -74c-57 -296 -422 -448 -453 -561c-18 -68 34 -120 138 -120c109 0 214 62 286 141l78 -303
c-86 -103 -256 -203 -473 -203c-305 0 -458 222 -426 441c52 346 380 327 452 610c4 17 14 51 13 68z" />
    <glyph glyph-name="periodcentered" unicode="&#xb7;" horiz-adv-x="714" 
d="M352 537c-142 0 -236 109 -211 248c25 133 152 248 294 248c139 0 233 -109 210 -248c-22 -138 -150 -248 -293 -248z" />
    <glyph glyph-name="bullet" unicode="&#x2022;" horiz-adv-x="1225" 
d="M546 406c-226 0 -365 169 -327 383c37 208 226 387 459 387c227 0 366 -170 327 -386c-39 -215 -232 -384 -459 -384z" />
    <glyph glyph-name="asterisk" unicode="*" horiz-adv-x="902" 
d="M385 945l95 236l-188 -157l-100 203l269 94l-233 89l179 204l127 -155l-3 234h266l-96 -234l188 155l100 -204l-270 -97l235 -86l-179 -203l-129 155l5 -234h-266z" />
    <glyph glyph-name="numbersign" unicode="#" horiz-adv-x="1616" 
d="M1515 912h-190l-85 -269h188l-94 -297h-189l-110 -346h-345l110 346h-266l-110 -346h-346l110 346h-191l94 297h192l85 269h-191l96 297h190l128 403h345l-128 -403h267l128 403h345l-128 -403h188zM895 643l85 269h-266l-86 -269h267z" />
    <glyph glyph-name="slash" unicode="/" horiz-adv-x="1088" 
d="M-119 -120l985 1852h421l-987 -1852h-419z" />
    <glyph glyph-name="backslash" unicode="\" horiz-adv-x="1088" 
d="M1207 -120h-419l-987 1852h422z" />
    <glyph glyph-name="twodotenleader" unicode="&#x2025;" horiz-adv-x="1653" 
d="M332 -57c-142 0 -236 110 -211 249c25 133 152 248 294 248c139 0 233 -109 210 -248c-22 -138 -150 -249 -293 -249zM1056 -57c-143 0 -237 110 -211 249c24 133 152 248 294 248c138 0 233 -109 210 -248c-23 -138 -150 -249 -293 -249z" />
    <glyph glyph-name="parenleft" unicode="(" horiz-adv-x="732" 
d="M196 -120c-103 203 -142 631 -80 957c64 333 190 622 439 895h325c-220 -291 -335 -574 -397 -895c-62 -319 -41 -745 39 -957h-326z" />
    <glyph glyph-name="parenright" unicode=")" horiz-adv-x="732" 
d="M256 -120h-326c163 212 349 638 411 957c63 321 58 604 -49 895h325c143 -273 156 -562 91 -895c-65 -326 -270 -754 -452 -957z" />
    <glyph glyph-name="braceleft" unicode="{" horiz-adv-x="958" 
d="M470 -120c-173 0 -283 124 -251 297l43 238c33 177 -46 323 -165 323l43 219c119 0 254 145 291 323l38 176c34 172 166 276 361 276h278l-58 -299l-119 -3c-70 -3 -114 -61 -132 -142l-13 -65c-43 -195 -177 -375 -296 -375c119 0 182 -180 144 -401l-19 -112
c-16 -86 6 -156 74 -156h117l-58 -299h-278z" />
    <glyph glyph-name="braceright" unicode="}" horiz-adv-x="958" 
d="M208 -120h-278l59 299h117c68 0 117 70 135 156l24 112c47 221 180 401 299 401c-118 0 -183 180 -149 375l12 65c14 81 -8 139 -77 142l-118 3l58 299h279c194 0 286 -104 253 -276l-31 -176c-31 -178 47 -323 166 -323l-42 -219c-119 0 -254 -146 -291 -323l-49 -238
c-35 -173 -193 -297 -367 -297z" />
    <glyph glyph-name="bracketleft" unicode="[" horiz-adv-x="813" 
d="M904 1433h-224l-244 -1254h225l-59 -299h-602l360 1852h602z" />
    <glyph glyph-name="bracketright" unicode="]" horiz-adv-x="812" 
d="M892 1732l-360 -1852h-601l57 299h224l244 1254h-223l58 299h601z" />
    <glyph glyph-name="hyphen" unicode="-" horiz-adv-x="950" 
d="M74 615l68 351h809l-68 -351h-809z" />
    <glyph glyph-name="endash" unicode="&#x2013;" horiz-adv-x="1543" 
d="M111 615l69 351h1327l-69 -351h-1327z" />
    <glyph glyph-name="emdash" unicode="&#x2014;" horiz-adv-x="2048" 
d="M114 615l68 351h1827l-68 -351h-1827z" />
    <glyph glyph-name="figuredash" unicode="&#x2012;" horiz-adv-x="1062" 
d="M74 615l68 351h921l-68 -351h-921z" />
    <glyph glyph-name="underscore" unicode="_" horiz-adv-x="1239" 
d="M-143 -136l53 273h1238l-52 -273h-1239z" />
    <glyph glyph-name="quotesinglbase" unicode="&#x201a;" horiz-adv-x="623" 
d="M58 -317c-87 0 -141 44 -136 70c62 0 177 45 203 167c7 36 3 59 -1 69c-81 0 -153 77 -133 203c22 142 142 240 271 240c143 0 228 -120 197 -312c-37 -223 -210 -437 -401 -437z" />
    <glyph glyph-name="quotedblbase" unicode="&#x201e;" horiz-adv-x="1223" 
d="M57 -320c-86 0 -140 44 -136 70c62 0 177 45 203 167c8 36 3 59 -1 69c-80 0 -153 77 -133 203c23 142 143 240 272 240c143 0 228 -120 196 -312c-36 -223 -209 -437 -401 -437zM658 -320c-86 0 -140 44 -136 70c62 0 177 45 203 167c8 36 3 59 -1 69
c-80 0 -153 77 -133 203c23 142 143 240 272 240c143 0 228 -120 196 -312c-36 -223 -209 -437 -401 -437z" />
    <glyph glyph-name="quotedblleft" unicode="&#x201c;" horiz-adv-x="1223" 
d="M589 1643c86 0 140 -44 136 -70c-62 0 -177 -45 -203 -167c-8 -36 -3 -59 1 -69c80 0 153 -77 133 -203c-23 -142 -143 -240 -272 -240c-143 0 -228 120 -196 312c36 223 209 437 401 437zM1190 1643c86 0 140 -44 136 -70c-62 0 -177 -45 -203 -167c-8 -36 -3 -59 1 -69
c80 0 153 -77 133 -203c-23 -142 -143 -240 -272 -240c-143 0 -228 120 -196 312c36 223 209 437 401 437z" />
    <glyph glyph-name="quotedblright" unicode="&#x201d;" horiz-adv-x="1224" 
d="M295 902c-87 0 -141 44 -136 70c62 0 177 45 203 168c7 35 3 58 -1 68c-81 0 -153 77 -133 204c22 141 142 239 271 239c143 0 228 -120 197 -311c-37 -223 -210 -438 -401 -438zM896 902c-87 0 -141 44 -136 70c62 0 177 45 203 168c7 35 3 58 -1 68
c-81 0 -153 77 -133 204c22 141 142 239 271 239c143 0 228 -120 197 -311c-37 -223 -210 -438 -401 -438z" />
    <glyph glyph-name="quoteleft" unicode="&#x2018;" horiz-adv-x="622" 
d="M589 1643c86 0 140 -44 136 -70c-62 0 -177 -45 -203 -167c-8 -36 -3 -59 1 -69c80 0 153 -77 133 -203c-23 -142 -143 -240 -272 -240c-143 0 -228 120 -196 312c36 223 209 437 401 437z" />
    <glyph glyph-name="quoteright" unicode="&#x2019;" horiz-adv-x="622" 
d="M297 912c-87 0 -141 44 -136 70c62 0 177 45 203 168c7 35 3 58 -1 68c-81 0 -153 77 -133 204c22 141 142 239 271 239c143 0 228 -120 197 -311c-37 -223 -210 -438 -401 -438z" />
    <glyph glyph-name="quotereversed" unicode="&#x201b;" horiz-adv-x="622" 
d="M448 916c-192 0 -282 215 -231 438c43 191 174 311 317 311c129 0 211 -98 178 -239c-29 -127 -131 -204 -211 -204c-8 -10 -22 -33 -28 -68c-22 -123 76 -168 138 -168c-6 -26 -77 -70 -163 -70z" />
    <glyph glyph-name="guillemotleft" unicode="&#xab;" horiz-adv-x="1368" 
d="M870 1277l-390 -482l171 -491l-264 -51l-272 577l481 498zM1430 1277l-390 -482l171 -491l-264 -51l-272 577l481 498z" />
    <glyph glyph-name="guillemotright" unicode="&#xbb;" horiz-adv-x="1368" 
d="M462 1158l272 -577l-480 -498l-275 51l391 482l-171 491zM1022 1158l272 -577l-480 -498l-275 51l391 482l-171 491z" />
    <glyph glyph-name="guilsinglleft" unicode="&#x2039;" horiz-adv-x="808" 
d="M870 1277l-390 -482l171 -491l-264 -51l-272 577l481 498z" />
    <glyph glyph-name="guilsinglright" unicode="&#x203a;" horiz-adv-x="808" 
d="M463 1160l272 -578l-481 -497l-275 50l391 482l-171 491z" />
    <glyph glyph-name="quotedbl" unicode="&#x22;" horiz-adv-x="1075" 
d="M256 1078l19 575h430l-205 -575h-244zM761 1078l20 575h429l-205 -575h-244z" />
    <glyph glyph-name="quotesingle" unicode="'" horiz-adv-x="569" 
d="M255 1078l20 575h429l-204 -575h-245z" />
    <glyph glyph-name="uni3000" unicode="&#x3000;" horiz-adv-x="2202" 
 />
    <glyph glyph-name="uni205F" unicode="&#x205f;" horiz-adv-x="9907" 
 />
    <glyph glyph-name="uni2001" unicode="&#x2001;" horiz-adv-x="2202" 
 />
    <glyph glyph-name="uni2003" unicode="&#x2003;" horiz-adv-x="2202" 
 />
    <glyph glyph-name="uni2000" unicode="&#x2000;" horiz-adv-x="1101" 
 />
    <glyph glyph-name="uni2002" unicode="&#x2002;" horiz-adv-x="1101" 
 />
    <glyph glyph-name="uni2007" unicode="&#x2007;" horiz-adv-x="1496" 
 />
    <glyph glyph-name="uni2005" unicode="&#x2005;" horiz-adv-x="551" 
 />
    <glyph glyph-name="uni200A" unicode="&#x200a;" horiz-adv-x="315" 
 />
    <glyph glyph-name="uni202F" unicode="&#x202f;" horiz-adv-x="516" 
 />
    <glyph glyph-name="uni2008" unicode="&#x2008;" horiz-adv-x="715" 
 />
    <glyph glyph-name="uni2006" unicode="&#x2006;" horiz-adv-x="367" 
 />
    <glyph glyph-name="uni2009" unicode="&#x2009;" horiz-adv-x="441" 
 />
    <glyph glyph-name="uni2004" unicode="&#x2004;" horiz-adv-x="734" 
 />
    <glyph glyph-name="uni200B" unicode="&#x200b;" 
 />
    <glyph glyph-name="uni200D" unicode="&#x200d;" 
 />
    <glyph glyph-name="uni200C" unicode="&#x200c;" 
 />
    <glyph glyph-name="DEL" horiz-adv-x="2142" 
 />
    <glyph glyph-name="uni0E3F" unicode="&#xe3f;" horiz-adv-x="1387" 
d="M1057 908c156 -3 307 -157 265 -421c-44 -275 -274 -485 -619 -487l-46 -235h-339l46 235h-340l313 1612h310l39 196h339l-41 -207c214 -42 332 -203 298 -409c-26 -152 -117 -260 -225 -284zM692 1240l-49 -253h74c78 0 163 28 182 124c15 75 -36 129 -136 129h-71z
M909 532c20 96 -47 162 -154 162l-169 1l-59 -306h164c125 0 201 58 218 143z" />
    <glyph glyph-name="uni20BF" unicode="&#x20bf;" horiz-adv-x="1387" 
d="M1057 908c156 -3 307 -157 265 -421c-38 -237 -213 -425 -482 -474l-48 -248h-234l46 235h-101l-46 -235h-234l46 235h-245l313 1612h201l38 196h234l-39 -196h96h6l38 196h234l-49 -244c142 -69 214 -206 186 -372c-26 -152 -117 -260 -225 -284zM692 1240l-49 -253h74
c78 0 163 28 182 124c15 75 -36 129 -136 129h-71zM909 532c20 96 -47 162 -154 162l-169 1l-59 -306h164c125 0 201 58 218 143z" />
    <glyph glyph-name="cent" unicode="&#xa2;" horiz-adv-x="1210" 
d="M641 1312l52 268l349 1l-51 -263zM375 -108l56 290l348 -7l-55 -283h-349z" />
    <glyph glyph-name="currency" unicode="&#xa4;" horiz-adv-x="1282" 
d="M1144 806c-16 -87 -58 -171 -117 -242l139 -169l-177 -145l-141 168c-74 -40 -157 -63 -243 -63c-93 0 -176 27 -241 74l-214 -173l-118 148l213 172c-29 66 -38 143 -23 226c15 86 57 172 117 245l-139 170l177 147l138 -170c73 39 156 63 245 63c91 0 172 -25 237 -69
l212 171l121 -148l-210 -170c31 -68 41 -149 24 -235zM826 808c15 91 -60 142 -132 142c-85 0 -146 -71 -156 -144c-14 -84 45 -144 125 -144c87 0 151 72 163 146z" />
    <glyph glyph-name="dollar" unicode="$" horiz-adv-x="1268" 
d="M883 942c206 -123 338 -281 294 -519c-42 -227 -214 -391 -477 -434l-43 -224h-339l47 236c-182 47 -307 159 -368 298l291 253c65 -111 175 -184 294 -184c58 0 145 26 160 99c20 97 -111 171 -235 247c-191 117 -318 280 -270 510c40 191 204 338 411 391l38 193h339
l-39 -196c144 -42 258 -137 306 -256l-285 -244c-39 79 -125 133 -217 133c-76 0 -128 -45 -137 -95c-16 -83 119 -142 230 -208z" />
    <glyph glyph-name="Euro" unicode="&#x20ac;" horiz-adv-x="1770" 
d="M1061 371c122 0 238 54 358 148l191 -338c-172 -143 -408 -216 -618 -216c-408 0 -661 264 -696 619h-229l56 191h174c2 17 4 34 7 51l3 19h-189l56 191h186c163 418 582 639 939 609c225 -19 432 -139 536 -323l-312 -283c-90 136 -194 196 -319 196
c-142 0 -279 -76 -368 -199h534l-55 -191h-567c-1 -7 -3 -13 -4 -20c-3 -17 -6 -34 -8 -50h554l-55 -191h-481c43 -126 148 -213 307 -213z" />
    <glyph glyph-name="florin" unicode="&#x192;" horiz-adv-x="1367" 
d="M1311 1252c-118 0 -192 -14 -312 -310h320l-44 -230h-366l-62 -159c-163 -412 -302 -547 -731 -547h-190l75 382h140c119 0 198 15 319 323v1h-321l44 230h367l55 142c170 435 313 550 737 550h184l-75 -382h-140z" />
    <glyph glyph-name="franc" unicode="&#x20a3;" horiz-adv-x="1187" 
d="M1263 1214h-567l-50 -261h459l-70 -358h-459l-23 -119h309l-52 -271h-310l-40 -207h-437l40 207h-129l52 271h130l222 1140h1004z" />
    <glyph glyph-name="uni20AD" unicode="&#x20ad;" horiz-adv-x="1482" 
d="M1635 1612l-495 -631h288l-64 -327h-294l281 -654h-471l-276 654h-16l-127 -654h-437l127 654h-135l64 327h134l123 631h437l-116 -596l457 596h520z" />
    <glyph glyph-name="lira" unicode="&#x20a4;" horiz-adv-x="1222" 
d="M652 554c-14 -62 -42 -132 -88 -192h541l-70 -362h-1082l71 362h113c44 65 72 127 87 192h-156l36 185h132c-1 23 -3 46 -5 70h-114l36 185h77c2 24 5 49 10 75c58 335 307 559 645 559c203 0 347 -99 399 -242l-268 -194c-22 47 -67 73 -134 73
c-132 0 -189 -101 -217 -258c-1 -4 -1 -9 -2 -13h276l-36 -185h-248c1 -24 3 -47 4 -70h230l-36 -185h-201z" />
    <glyph glyph-name="uni20A6" unicode="&#x20a6;" horiz-adv-x="1678" 
d="M1742 981l-64 -327h-160l-130 -670h-147l-601 789l-150 -774h-437l127 655h-159l64 327h159l126 647h149l598 -786l150 772h438l-123 -633h160z" />
    <glyph glyph-name="uni20B1" unicode="&#x20b1;" horiz-adv-x="1653" 
d="M1510 1068c-1 -12 -2 -24 -4 -36l-2 -14h188l-50 -260h-239c-121 -178 -337 -283 -620 -283h-118l-92 -475h-437l147 758h-210l51 260h210l9 50h-209l50 260h210l55 284h554c220 0 399 -103 473 -284h277l-51 -260h-192zM1097 1035c17 109 -52 182 -170 182h-118
l-67 -347l117 -1c141 -1 222 64 238 166z" />
    <glyph glyph-name="uni20BD" unicode="&#x20bd;" horiz-adv-x="1568" 
d="M1077 1612c289 0 568 -192 511 -544c-50 -312 -326 -523 -694 -523h-201l-19 -99h407l-52 -270h-408l-34 -176h-428l34 176h-205l52 270h206l21 109h-205l59 305h206l146 752h604zM1172 1060c15 92 -55 157 -167 157h-181l-58 -297l181 -1c129 -1 211 54 225 141z" />
    <glyph glyph-name="uni20A8" unicode="&#x20a8;" horiz-adv-x="1317" 
d="M1219 1296c10 -33 16 -69 18 -106h174l-79 -220h-125c-74 -224 -268 -427 -470 -417l384 -555h-482l-454 738l13 66l275 -1c151 0 253 70 300 169h-541l79 220h470c-32 63 -101 106 -211 106h-295l114 316h1100l-114 -316h-156z" />
    <glyph glyph-name="sterling" unicode="&#xa3;" horiz-adv-x="1222" 
d="M654 565c-12 -66 -40 -139 -84 -203h535l-70 -362h-1082l71 362h113c49 71 78 139 91 211c3 14 5 27 6 40h-153l51 262h96c-2 58 -1 121 12 194c62 366 323 559 635 559c188 0 351 -87 409 -242l-268 -194c-22 47 -67 73 -134 73c-132 0 -189 -101 -217 -258
c-9 -49 -12 -92 -12 -132h264l-51 -262h-205c-2 -16 -4 -32 -7 -48z" />
    <glyph glyph-name="uni20B8" unicode="&#x20b8;" horiz-adv-x="1230" 
d="M239 1612h1145l-68 -351h-1145zM1298 1167l-68 -352h-363l-154 -815h-428l154 815h-354l68 352h1145z" />
    <glyph glyph-name="uni20AE" unicode="&#x20ae;" horiz-adv-x="1286" 
d="M1316 1212h-358l-33 -170l234 100l-47 -243l-234 -100l-19 -97l234 100l-47 -244l-235 -100l-89 -458h-437l49 254l-235 -101l47 243l235 101l19 98l-235 -101l47 243l236 101l72 374h-358l77 400h1155z" />
    <glyph glyph-name="uni20A9" unicode="&#x20a9;" horiz-adv-x="2027" 
d="M2203 1612l-324 -641h186l-64 -330h-288l-329 -651h-163l-177 785l-477 -785h-160l-76 651h-287l65 330h184l-75 641h436l61 -738l449 735h43l163 -733l345 736h488z" />
    <glyph glyph-name="yen" unicode="&#xa5;" horiz-adv-x="1504" 
d="M1631 1612l-457 -665h269l-56 -283h-404l-20 -101h405l-55 -283h-405l-54 -280h-436l55 280h-420l56 283h419l20 100v1h-420l55 283h281l-197 665h462l101 -500l290 500h511z" />
    <glyph glyph-name="plus" unicode="+" horiz-adv-x="1292" 
d="M1225 976l-70 -360h-314l-71 -367h-384l71 367h-314l70 360h314l71 366h384l-71 -366h314z" />
    <glyph glyph-name="minus" unicode="&#x2212;" horiz-adv-x="1282" 
d="M144 616l70 360h1001l-70 -360h-1001z" />
    <glyph glyph-name="multiply" unicode="&#xd7;" horiz-adv-x="1476" 
d="M1435 1109l-408 -345l251 -314l-277 -241l-254 318l-401 -339l-231 282l405 343l-253 317l277 240l255 -320l406 344z" />
    <glyph glyph-name="divide" unicode="&#xf7;" horiz-adv-x="1589" 
d="M869 1064c-136 -1 -227 111 -201 246c26 134 161 244 294 244c135 0 228 -115 203 -245c-26 -131 -161 -244 -296 -245zM141 603l65 333h1308l-65 -333h-1308zM655 -28c-133 0 -226 112 -199 247c26 136 164 244 295 244c133 0 227 -114 201 -245
c-25 -130 -160 -246 -297 -246z" />
    <glyph glyph-name="equal" unicode="=" horiz-adv-x="1304" 
d="M197 892l65 333h1023l-65 -333h-1023zM91 347l65 331h1023l-65 -331h-1023z" />
    <glyph glyph-name="notequal" unicode="&#x2260;" horiz-adv-x="1304" 
d="M1220 889h-337l-115 -213h410l-64 -332h-524l-168 -312h-265l168 312h-234l64 332h348l115 213h-421l65 333h535l177 330h265l-177 -330h223z" />
    <glyph glyph-name="greater" unicode="&#x3e;" horiz-adv-x="1276" 
d="M319 1452l860 -630l-4 -20l-1122 -651l97 434l481 235l-385 264z" />
    <glyph glyph-name="less" unicode="&#x3c;" horiz-adv-x="1276" 
d="M1303 1460l-97 -434l-482 -235l386 -264l-73 -368l-860 630l4 20z" />
    <glyph glyph-name="greaterequal" unicode="&#x2265;" horiz-adv-x="1302" 
d="M390 1558l860 -505l-4 -16l-1122 -520l97 347l481 188l-385 211zM43 85l53 270h948l-53 -270h-948z" />
    <glyph glyph-name="lessequal" unicode="&#x2264;" horiz-adv-x="1302" 
d="M1348 1558l-97 -347l-481 -189l385 -210l-73 -295l-860 504l4 16zM53 85l53 270h948l-53 -270h-948z" />
    <glyph glyph-name="plusminus" unicode="&#xb1;" horiz-adv-x="1194" 
d="M900 1169h264l-62 -320h-264l-57 -295h-385l57 295h-264l62 320h265l52 268h384zM53 148l58 297h912l-57 -297h-913z" />
    <glyph glyph-name="approxequal" unicode="&#x2248;" horiz-adv-x="1392" 
d="M430 849l-226 78c104 271 288 348 429 348c207 0 246 -168 355 -168c69 0 116 72 154 162l225 -78c-107 -279 -295 -349 -430 -349c-207 0 -243 169 -353 169c-71 0 -116 -72 -154 -162zM321 293l-225 78c104 271 288 349 429 349c207 0 245 -169 355 -169
c68 0 115 72 153 162l226 -78c-108 -278 -296 -348 -430 -348c-208 0 -243 168 -353 168c-71 0 -117 -72 -155 -162z" />
    <glyph glyph-name="asciitilde" unicode="~" horiz-adv-x="1717" 
d="M442 545l-294 96c131 334 352 429 534 429c268 0 328 -207 469 -207c89 0 156 89 204 199l293 -96c-136 -343 -361 -429 -534 -429c-268 0 -326 207 -468 207c-92 0 -157 -88 -204 -199z" />
    <glyph glyph-name="logicalnot" unicode="&#xac;" horiz-adv-x="1497" 
d="M1418 918l-29 -149l-13 -68l-61 -314h-392l61 314h-824l74 379h1215z" />
    <glyph glyph-name="asciicircum" unicode="^" horiz-adv-x="972" 
d="M1046 1092h-310l-98 211l-176 -211h-345l548 584h58z" />
    <glyph glyph-name="emptyset" unicode="&#x2205;" horiz-adv-x="1523" 
d="M1629 1603l-288 -343c113 -118 166 -289 131 -486c-62 -355 -387 -661 -783 -661c-99 0 -189 19 -266 54l-149 -177h-310l269 319c-97 117 -140 279 -108 461c63 360 389 660 781 660c86 0 165 -14 236 -41l180 214h307zM408 770c-14 -80 -1 -154 33 -213l488 579
c-24 5 -49 7 -75 7c-228 0 -412 -176 -446 -373zM1183 769c17 94 -3 179 -50 244l-503 -600c33 -9 70 -14 109 -14c231 0 410 176 444 370z" />
    <glyph glyph-name="infinity" unicode="&#x221e;" horiz-adv-x="2425" 
d="M1917 1412c345 0 540 -286 475 -621c-64 -328 -350 -583 -684 -583c-220 0 -405 110 -514 280c-176 -176 -397 -280 -605 -280c-344 0 -539 285 -474 622c61 315 336 582 682 582c222 0 406 -110 516 -280c176 177 398 280 604 280zM663 549c148 0 308 128 425 261
c-73 150 -204 261 -344 261c-144 0 -267 -119 -292 -261c-25 -150 74 -261 211 -261zM2055 810c24 144 -67 261 -211 261c-153 0 -314 -132 -426 -261c72 -145 203 -261 345 -261c146 0 269 124 292 261z" />
    <glyph glyph-name="integral" unicode="&#x222b;" horiz-adv-x="1182" 
d="M-133 -300l67 345h93c115 0 192 80 222 171l451 1336c80 236 269 348 526 348h167l-67 -344h-93c-113 0 -190 -80 -220 -172l-451 -1336c-80 -236 -269 -348 -528 -348h-167z" />
    <glyph glyph-name="product" unicode="&#x220f;" horiz-adv-x="1484" 
d="M1704 1950l-69 -357h-194l-359 -1843h-388l358 1843h-221l-359 -1843h-389l359 1843h-207l69 357h1400z" />
    <glyph glyph-name="summation" unicode="&#x2211;" horiz-adv-x="1504" 
d="M1663 1925l-69 -357h-770l303 -769v-9l-555 -708l732 -1l-70 -356l-1383 1l11 55l841 1071l-427 1056l3 17h1384z" />
    <glyph glyph-name="radical" unicode="&#x221a;" horiz-adv-x="1266" 
d="M1947 2203l-70 -357h-403l-1057 -1921h-22l-236 1384h344l52 -461l723 1355h669z" />
    <glyph glyph-name="uni00B5" unicode="&#xb5;" horiz-adv-x="1471" 
 />
    <glyph glyph-name="partialdiff" unicode="&#x2202;" horiz-adv-x="1364" 
d="M589 -40c-407 0 -575 298 -529 586c44 282 287 519 583 519c159 0 307 -83 324 -202c22 249 -150 441 -415 555l338 220c249 -97 509 -418 417 -965c-65 -396 -303 -713 -718 -713zM627 307c121 0 210 90 234 200c27 124 -39 227 -164 227c-120 0 -218 -96 -239 -214
c-21 -114 41 -213 169 -213z" />
    <glyph glyph-name="percent" unicode="%" horiz-adv-x="1820" 
d="M525 877c-219 0 -364 164 -328 376c34 198 217 378 446 378c218 0 364 -163 327 -377c-34 -199 -217 -377 -445 -377zM82 0l1369 1613h356l-1368 -1613h-357zM563 1127c75 0 141 59 153 126c13 72 -40 127 -113 127c-75 0 -143 -59 -154 -127c-13 -72 41 -126 114 -126z
M1258 -20c-218 0 -365 164 -328 377c34 200 217 377 444 377c219 0 366 -162 329 -375c-34 -198 -216 -379 -445 -379zM1294 230c77 0 143 61 154 127c12 71 -40 126 -112 126c-76 0 -143 -59 -155 -125c-13 -73 40 -128 113 -128z" />
    <glyph glyph-name="perthousand" unicode="&#x2030;" horiz-adv-x="2667" 
d="M525 877c-219 0 -364 164 -328 376c34 198 217 378 446 378c218 0 364 -163 327 -377c-34 -199 -217 -377 -445 -377zM82 0l1369 1613h356l-1368 -1613h-357zM563 1127c75 0 141 59 153 126c13 72 -40 127 -113 127c-75 0 -143 -59 -154 -127c-13 -72 41 -126 114 -126z
M1258 -20c-218 0 -365 164 -328 377c34 200 217 377 444 377c219 0 366 -162 329 -375c-34 -198 -216 -379 -445 -379zM2105 -20c-218 0 -365 164 -328 377c34 200 217 377 444 377c219 0 366 -162 329 -375c-34 -198 -216 -379 -445 -379zM1294 230c77 0 143 61 154 127
c12 71 -40 126 -112 126c-76 0 -143 -59 -155 -125c-13 -73 40 -128 113 -128zM2141 230c77 0 143 61 154 127c12 71 -40 126 -112 126c-76 0 -143 -59 -155 -125c-13 -73 40 -128 113 -128z" />
    <glyph glyph-name="arrowup" unicode="&#x2191;" horiz-adv-x="2148" 
d="M1799 986l-193 -193l-274 279v-1214h-365v1215l-275 -280l-192 193l649 670z" />
    <glyph glyph-name="uni2197" unicode="&#x2197;" horiz-adv-x="2148" 
d="M804 1393l933 15l-15 -934h-272l3 392l-858 -859l-258 259l858 858l-391 -3v272z" />
    <glyph glyph-name="arrowright" unicode="&#x2192;" horiz-adv-x="2148" 
d="M1354 1423l670 -650l-670 -649l-193 192l280 275h-1215v365h1214l-279 274z" />
    <glyph glyph-name="uni2198" unicode="&#x2198;" horiz-adv-x="2148" 
d="M858 137v272l392 -3l-859 858l259 258l858 -858l-3 391h272l15 -933z" />
    <glyph glyph-name="arrowdown" unicode="&#x2193;" horiz-adv-x="2148" 
d="M1523 753l193 -192l-650 -671l-649 671l192 192l275 -279v1214h365v-1214z" />
    <glyph glyph-name="uni2199" unicode="&#x2199;" horiz-adv-x="2148" 
d="M1881 1291l-858 -858l391 3v-272l-934 -15l15 933h273l-3 -391l858 858z" />
    <glyph glyph-name="arrowleft" unicode="&#x2190;" horiz-adv-x="2148" 
d="M1989 956v-365h-1214l279 -275l-192 -192l-671 649l671 650l192 -193l-279 -274h1214z" />
    <glyph glyph-name="uni2196" unicode="&#x2196;" horiz-adv-x="2148" 
d="M1819 255l-259 -258l-858 859l3 -392h-272l-15 934l934 -15v-273l-391 3z" />
    <glyph glyph-name="arrowboth" unicode="&#x2194;" horiz-adv-x="2148" 
d="M1447 1423l670 -650l-670 -649l-193 192l279 275h-850l279 -275l-192 -192l-671 649l671 650l192 -193l-279 -274h850l-279 274z" />
    <glyph glyph-name="arrowupdn" unicode="&#x2195;" horiz-adv-x="2148" 
d="M1751 401l-650 -671l-649 671l192 192l275 -279v850l-275 -279l-192 193l649 670l650 -670l-193 -193l-274 279v-850l274 279z" />
    <glyph glyph-name="lozenge" unicode="&#x25ca;" horiz-adv-x="1303" 
d="M534 8l-299 771l599 772l304 -772zM607 473l259 337l-105 275l-255 -336z" />
    <glyph glyph-name="at" unicode="@" horiz-adv-x="2375" 
d="M923 -436c-605 0 -931 388 -871 922c72 651 676 1188 1389 1188c622 0 963 -411 897 -897c-53 -393 -369 -811 -824 -811c-259 0 -316 136 -280 363c-30 -94 -144 -161 -264 -161c-201 0 -301 186 -263 412c43 250 239 469 486 466c146 -1 211 -77 201 -158l80 141h275
l-187 -603c-3 -11 -9 -28 -13 -47c-12 -56 -18 -123 50 -123c132 0 261 256 299 460c61 335 -123 577 -516 577c-499 0 -848 -376 -906 -764c-52 -353 154 -603 492 -603c77 0 140 4 208 30l16 -348c-66 -27 -142 -44 -269 -44zM1129 453c83 0 159 88 177 181
c13 69 -10 125 -82 125c-85 0 -165 -82 -181 -179c-13 -81 26 -127 86 -127z" />
    <glyph glyph-name="ampersand" unicode="&#x26;" horiz-adv-x="1651" 
d="M1561 353l-79 -373c-112 0 -249 49 -387 132c-131 -97 -290 -148 -481 -148c-413 0 -621 236 -561 547c36 185 153 321 343 404c-35 102 -49 203 -34 298c40 252 278 446 573 446c275 0 450 -168 438 -387l-384 -94c4 74 -25 141 -110 141c-53 0 -119 -35 -135 -124
c-28 -153 113 -366 294 -539c25 60 46 126 66 194l406 5c-40 -166 -92 -311 -157 -433c78 -42 150 -67 208 -69zM648 319c53 0 99 9 140 27c-94 88 -180 188 -250 291c-47 -38 -78 -86 -89 -141c-17 -93 39 -177 199 -177z" />
    <glyph glyph-name="paragraph" unicode="&#xb6;" horiz-adv-x="1625" 
d="M921 1650h285l-340 -1752h-291l148 764c-277 3 -464 236 -407 535c51 267 269 453 605 453zM1341 1650h288l-342 -1760h-288z" />
    <glyph glyph-name="section" unicode="&#xa7;" horiz-adv-x="1351" 
d="M942 1159c224 -114 267 -233 246 -367c-16 -109 -68 -194 -147 -254c48 -63 68 -141 48 -241c-47 -236 -263 -386 -534 -386c-215 0 -408 99 -445 226l217 242c38 -66 170 -137 296 -137c56 0 100 14 108 53c11 59 -94 110 -192 158c-165 82 -290 210 -254 386
c18 90 77 173 163 236c-58 78 -84 171 -62 275c42 204 250 328 492 328c199 0 372 -88 408 -193l-238 -224c-36 50 -131 90 -218 90c-57 0 -93 -17 -99 -48c-8 -46 103 -88 211 -144zM594 837c-5 -58 116 -94 223 -142c38 12 60 32 64 59c9 65 -115 113 -203 151
c-52 -12 -80 -38 -84 -68z" />
    <glyph glyph-name="copyright" unicode="&#xa9;" horiz-adv-x="1769" 
d="M805 -90c-490 0 -770 369 -707 822s439 801 913 801c482 0 772 -359 708 -820c-64 -455 -439 -803 -914 -803zM821 101c362 0 657 274 709 612c52 341 -161 631 -535 631c-365 0 -657 -278 -708 -613c-52 -339 160 -630 534 -630zM841 247c-273 0 -445 228 -392 512
c49 268 273 450 532 450c132 0 228 -48 301 -129l-191 -218c-32 36 -88 59 -148 59c-101 0 -184 -66 -206 -167c-24 -116 45 -220 157 -220c51 0 96 21 143 57l124 -223c-88 -81 -204 -121 -320 -121z" />
    <glyph glyph-name="registered" unicode="&#xae;" horiz-adv-x="1128" 
d="M626 1612c294 0 438 -215 396 -469c-43 -256 -255 -431 -520 -431c-293 0 -438 214 -395 471c45 265 261 429 519 429zM906 1152c32 196 -85 355 -294 355c-200 0 -359 -145 -390 -334c-31 -194 85 -355 294 -355c193 0 357 137 390 334zM605 1394c92 0 157 -61 141 -155
c-10 -59 -50 -104 -103 -121l94 -177h-132l-83 174l-34 -174h-123l88 453h152zM554 1285l-17 -88l33 -1c30 0 52 17 56 43s-14 46 -39 46h-33z" />
    <glyph glyph-name="trademark" unicode="&#x2122;" horiz-adv-x="1364" 
d="M1293 1618h99l-134 -690h-186l51 263l-221 -252h-1l-116 250l-51 -261h-186l134 690h84l181 -393zM591 1442h-152l-100 -514h-185l99 514h-152l33 170h490z" />
    <glyph glyph-name="trademark.ss04" horiz-adv-x="1516" 
 />
    <glyph glyph-name="trademark.ss05" horiz-adv-x="1534" 
d="M1649 1299l-24 -124h-147l-48 -247h-185l48 247h-12l-207 -236h-1l-109 236h-9l-48 -247h-186l48 247h-234l-48 -247h-186l48 247h-216l24 124h216l28 143h-152l33 170h489l-32 -170h-153l-27 -143h234l62 319h83l147 -319h100l280 319h100l-62 -319h146z" />
    <glyph glyph-name="degree" unicode="&#xb0;" horiz-adv-x="737" 
d="M480 1084c-172 0 -290 117 -266 282c23 159 165 283 342 283c172 0 289 -117 265 -283c-23 -159 -165 -282 -341 -282zM507 1258c78 0 124 56 131 110c7 63 -42 109 -110 109c-73 0 -124 -53 -132 -112c-7 -65 43 -107 111 -107z" />
    <glyph glyph-name="bar" unicode="|" horiz-adv-x="651" 
d="M-20 -450l448 2300h268l-448 -2300h-268z" />
    <glyph glyph-name="brokenbar" unicode="&#xa6;" horiz-adv-x="651" 
d="M228 865l192 985h268l-191 -985h-269zM-28 -450l195 1000h269l-195 -1000h-269z" />
    <glyph glyph-name="dagger" unicode="&#x2020;" horiz-adv-x="714" 
d="M854 1426l-39 -197h-209l-239 -1229h-252l238 1229h-209l39 197h209l43 224h253l-44 -224h210z" />
    <glyph glyph-name="daggerdbl" unicode="&#x2021;" horiz-adv-x="714" 
d="M815 1229h-209l-158 -812h210l-39 -198h-209l-43 -219h-252l42 219h-210l39 198h210l157 812h-209l39 197h209l43 224h253l-44 -224h210z" />
    <glyph glyph-name="estimated" unicode="&#x212e;" horiz-adv-x="1959" 
d="M1054 -32c-485 0 -931 360 -931 834c0 465 431 834 937 834c491 0 865 -347 865 -765c0 -43 -4 -98 -8 -127h-1496v-396c181 -183 418 -261 631 -261c319 0 592 172 667 332h124c-93 -210 -392 -451 -789 -451zM421 856h1226v424c-149 149 -343 237 -587 237
c-245 0 -468 -89 -639 -258v-403z" />
    <glyph glyph-name="uni02BC" unicode="&#x2bc;" horiz-adv-x="492" 
d="M117 1095l183 555h375l-243 -555h-315z" />
    <glyph glyph-name="uni0308" unicode="&#x308;" 
d="M-616 1349c-81 0 -136 62 -121 137c14 74 94 139 174 139s135 -65 120 -139c-15 -75 -93 -137 -173 -137zM-134 1349c-80 0 -135 62 -120 137c14 74 93 139 173 139s136 -65 122 -139c-15 -75 -95 -137 -175 -137z" />
    <glyph glyph-name="uni0307" unicode="&#x307;" 
d="M-361 1347c-94 0 -155 71 -138 157c16 86 107 161 200 161s155 -75 139 -160c-17 -88 -109 -158 -201 -158z" />
    <glyph glyph-name="gravecomb" unicode="&#x300;" 
d="M-302 1333l-172 337h335l106 -337h-269z" />
    <glyph glyph-name="acutecomb" unicode="&#x301;" 
d="M-271 1333h-269l237 337h335z" />
    <glyph glyph-name="uni030B" unicode="&#x30b;" 
d="M-901 1333l203 337h299l-262 -337h-240zM-516 1333l274 337h335l-355 -337h-254z" />
    <glyph glyph-name="uni030C.alt" 
d="M-396 1280l162 470h280l-212 -470h-230z" />
    <glyph glyph-name="uni0302" unicode="&#x302;" 
d="M-829 1347l368 293h219l259 -293h-287l-96 122l-143 -122h-320z" />
    <glyph glyph-name="uni030C" unicode="&#x30c;" 
d="M17 1640l-368 -293h-219l-259 293h288l96 -122l143 122h319z" />
    <glyph glyph-name="uni0306" unicode="&#x306;" 
d="M-361 1341c-191 0 -306 138 -275 301h192c-15 -76 33 -134 107 -134c76 0 139 55 154 134h192c-34 -182 -176 -301 -370 -301z" />
    <glyph glyph-name="uni030A" unicode="&#x30a;" 
d="M-292 1295c-140 0 -227 105 -204 234c23 133 146 234 283 234c132 0 224 -99 201 -234c-22 -128 -140 -234 -280 -234zM-270 1442c49 0 96 37 106 85c9 48 -23 87 -73 87s-97 -37 -106 -87c-9 -47 22 -85 73 -85z" />
    <glyph glyph-name="tildecomb" unicode="&#x303;" 
d="M-739 1357l-184 60c82 209 220 268 334 268c167 0 205 -129 293 -129c56 0 98 55 128 124l184 -60c-86 -214 -227 -268 -335 -268c-168 0 -204 130 -293 130c-57 0 -98 -56 -127 -125z" />
    <glyph glyph-name="uni0304" unicode="&#x304;" 
d="M-680 1389l39 201h657l-40 -201h-656z" />
    <glyph glyph-name="uni0312" unicode="&#x312;" 
d="M-259 1812c65 0 102 -29 99 -46c-47 0 -145 -30 -162 -114c-5 -25 -2 -37 3 -46c66 0 123 -56 109 -134c-15 -87 -106 -159 -208 -159c-106 0 -174 80 -152 207c25 151 158 292 311 292z" />
    <glyph glyph-name="uni0326" unicode="&#x326;" 
d="M-500 -618c-65 0 -102 29 -100 46c47 0 146 30 163 114c5 25 2 37 -4 46c-65 0 -123 56 -109 134c16 87 106 159 209 159c105 0 173 -80 152 -207c-25 -151 -158 -292 -311 -292z" />
    <glyph glyph-name="uni0327" unicode="&#x327;" 
d="M-542 -574l-80 231c194 -1 270 34 275 77c2 17 -6 46 -59 46c-13 0 -29 -2 -49 -7l-42 60l187 209h191l-121 -129c9 0 15 1 24 1c90 0 153 -74 144 -170c-15 -166 -230 -320 -470 -318z" />
    <glyph glyph-name="uni0328" unicode="&#x328;" 
d="M-107 -548c-71 -15 -135 -22 -193 -22c-209 0 -321 93 -321 249c0 172 138 311 302 355l193 -34c-138 -102 -197 -163 -197 -232c0 -34 17 -65 58 -65c22 0 67 6 119 19z" />
    <glyph glyph-name="uni0335" unicode="&#x335;" 
d="M-913 628l44 230h877l-45 -230h-876z" />
    <glyph glyph-name="uni0336" unicode="&#x336;" 
d="M-1173 628l44 230h1577l-44 -230h-1577z" />
    <glyph glyph-name="uni0337" unicode="&#x337;" 
d="M-794 891l60 310l861 511l-60 -311z" />
    <glyph glyph-name="uni0338" unicode="&#x338;" 
d="M-1359 -112l1236 1405h273l-1234 -1405h-275z" />
    <glyph glyph-name="uni0338.case" 
d="M-1258 -82l1533 1732h342l-1532 -1732h-343z" />
    <glyph glyph-name="dieresis" unicode="&#xa8;" horiz-adv-x="687" 
d="M71 1349c-81 0 -136 62 -121 137c14 74 94 139 174 139s135 -65 120 -139c-15 -75 -93 -137 -173 -137zM553 1349c-80 0 -135 62 -120 137c14 74 93 139 173 139s135 -65 121 -139c-15 -75 -94 -137 -174 -137z" />
    <glyph glyph-name="dotaccent" unicode="&#x2d9;" horiz-adv-x="661" 
d="M300 1347c-94 0 -155 71 -138 157c16 86 107 161 200 161s155 -75 139 -160c-17 -88 -109 -158 -201 -158z" />
    <glyph glyph-name="grave" unicode="`" horiz-adv-x="674" 
d="M205 1333l-172 337h335l106 -337h-269z" />
    <glyph glyph-name="acute" unicode="&#xb4;" horiz-adv-x="788" 
d="M221 1333h-269l237 337h335z" />
    <glyph glyph-name="hungarumlaut" unicode="&#x2dd;" horiz-adv-x="681" 
d="M-48 1333l203 337h299l-262 -337h-240zM337 1333l274 337h335l-355 -337h-254z" />
    <glyph glyph-name="circumflex" unicode="&#x2c6;" horiz-adv-x="673" 
d="M-73 1347l368 293h219l259 -293h-287l-96 122l-143 -122h-320z" />
    <glyph glyph-name="caron" unicode="&#x2c7;" horiz-adv-x="673" 
d="M772 1640l-368 -293h-219l-259 293h288l96 -122l143 122h319z" />
    <glyph glyph-name="breve" unicode="&#x2d8;" horiz-adv-x="675" 
d="M324 1341c-191 0 -306 138 -275 301h192c-15 -76 33 -134 107 -134c76 0 139 55 154 134h192c-34 -182 -176 -301 -370 -301z" />
    <glyph glyph-name="ring" unicode="&#x2da;" horiz-adv-x="648" 
d="M216 1295c-140 0 -227 105 -204 234c23 133 146 234 283 234c132 0 224 -99 201 -234c-22 -128 -140 -234 -280 -234zM238 1442c49 0 96 37 106 85c9 48 -23 87 -73 87s-97 -37 -106 -87c-9 -47 22 -85 73 -85z" />
    <glyph glyph-name="tilde" unicode="&#x2dc;" horiz-adv-x="827" 
d="M169 1357l-184 60c82 209 220 268 334 268c167 0 205 -129 293 -129c56 0 98 55 128 124l183 -60c-85 -214 -226 -268 -334 -268c-168 0 -204 130 -293 130c-57 0 -98 -56 -127 -125z" />
    <glyph glyph-name="macron" unicode="&#xaf;" horiz-adv-x="644" 
d="M-15 1389l39 201h656l-39 -201h-656z" />
    <glyph glyph-name="cedilla" unicode="&#xb8;" horiz-adv-x="600" 
d="M113 -574l-80 231c194 -1 270 34 275 77c2 17 -6 46 -59 46c-13 0 -29 -2 -49 -7l-42 60l187 209h191l-121 -129c9 0 15 1 24 1c90 0 153 -74 144 -170c-15 -166 -230 -320 -470 -318z" />
    <glyph glyph-name="ogonek" unicode="&#x2db;" horiz-adv-x="665" 
d="M558 -548c-71 -15 -135 -22 -193 -22c-209 0 -321 93 -321 249c0 172 138 311 302 355l193 -34c-138 -102 -197 -163 -197 -232c0 -34 17 -65 58 -65c22 0 67 6 119 19z" />
    </font>
</defs>
</svg>
